<?xml version="1.0" encoding="us-ascii" standalone="no"?><svg xmlns="http://www.w3.org/2000/svg" xmlns:xlink="http://www.w3.org/1999/xlink" contentStyleType="text/css" height="412.5px" preserveAspectRatio="none" style="width:4516px;height:412px;background:#FFFFFF;" version="1.1" viewBox="0 0 4516 412" width="4516.6px" zoomAndPan="magnify"><defs/><g><!--cluster Timur--><g id="cluster_Timur"><path d="M9.35,6.615 L53.35,6.615 A4.125,4.125 0 0 1 56.1,9.365 L63.8,33.6982 L4506.15,33.6982 A2.75,2.75 0 0 1 4508.9,36.4482 L4508.9,402.065 A2.75,2.75 0 0 1 4506.15,404.815 L9.35,404.815 A2.75,2.75 0 0 1 6.6,402.065 L6.6,9.365 A2.75,2.75 0 0 1 9.35,6.615 " fill="none" style="stroke:#000000;stroke-width:1.6500000000000001;"/><line style="stroke:#000000;stroke-width:1.6500000000000001;" x1="6.6" x2="63.8" y1="33.6982" y2="33.6982"/><text fill="#000000" font-family="sans-serif" font-size="15.4" font-weight="bold" lengthAdjust="spacing" textLength="42.9" x="11" y="25.4332">Timur</text></g><!--cluster Command--><g id="cluster_Command"><path d="M954.25,56.115 L1031.25,56.115 A4.125,4.125 0 0 1 1034,58.865 L1041.7,83.1982 L4479.75,83.1982 A2.75,2.75 0 0 1 4482.5,85.9482 L4482.5,283.265 A2.75,2.75 0 0 1 4479.75,286.015 L954.25,286.015 A2.75,2.75 0 0 1 951.5,283.265 L951.5,58.865 A2.75,2.75 0 0 1 954.25,56.115 " fill="none" style="stroke:#000000;stroke-width:1.6500000000000001;"/><line style="stroke:#000000;stroke-width:1.6500000000000001;" x1="951.5" x2="1041.7" y1="83.1982" y2="83.1982"/><text fill="#000000" font-family="sans-serif" font-size="15.4" font-weight="bold" lengthAdjust="spacing" textLength="75.9" x="955.9" y="74.9332">Command</text></g><!--cluster Exceptions--><g id="cluster_Exceptions"><path d="M481.25,56.115 L568.15,56.115 A4.125,4.125 0 0 1 570.9,58.865 L578.6,83.1982 L922.35,83.1982 A2.75,2.75 0 0 1 925.1,85.9482 L925.1,164.465 A2.75,2.75 0 0 1 922.35,167.215 L481.25,167.215 A2.75,2.75 0 0 1 478.5,164.465 L478.5,58.865 A2.75,2.75 0 0 1 481.25,56.115 " fill="none" style="stroke:#000000;stroke-width:1.6500000000000001;"/><line style="stroke:#000000;stroke-width:1.6500000000000001;" x1="478.5" x2="578.6" y1="83.1982" y2="83.1982"/><text fill="#000000" font-family="sans-serif" font-size="15.4" font-weight="bold" lengthAdjust="spacing" textLength="85.8" x="482.9" y="74.9332">Exceptions</text></g><!--class AstartesCategory--><g id="elem_AstartesCategory"><rect codeLine="108" fill="#F1F1F1" height="52.8" id="AstartesCategory" rx="2.75" ry="2.75" style="stroke:#181818;stroke-width:0.55;" width="156.2" x="24.2" y="96.815"/><ellipse cx="40.7" cy="114.415" fill="#EB937F" rx="12.1" ry="12.1" style="stroke:#181818;stroke-width:1.1;"/><path d="M39.4453,115.2916 L39.4453,118.0416 L44.2063,118.0416 L44.2063,117.0275 Q44.2063,116.3572 44.4641,116.065 Q44.7391,115.7729 45.1516,115.7729 Q45.5641,115.7729 45.8219,116.065 Q46.0797,116.3572 46.0797,117.0275 L46.0797,119.915 L37.2797,119.915 Q36.5922,119.915 36.3,119.6572 Q36.025,119.3994 36.025,118.9697 Q36.025,118.5572 36.3172,118.2994 Q36.6094,118.0416 37.2797,118.0416 L37.5719,118.0416 L37.5719,110.7197 L37.2797,110.7197 Q36.5922,110.7197 36.3,110.4619 Q36.025,110.2041 36.025,109.7744 Q36.025,109.3619 36.3,109.1041 Q36.5922,108.8463 37.2797,108.8463 L45.6672,108.8463 L45.6672,111.6994 Q45.6672,112.3697 45.4094,112.6619 Q45.1688,112.9369 44.7391,112.9369 Q44.3266,112.9369 44.0688,112.6619 Q43.8109,112.3697 43.8109,111.6994 L43.8109,110.7197 L39.4453,110.7197 L39.4453,113.4182 L41.0781,113.4182 Q41.0781,112.6963 41.2156,112.49 Q41.5078,112.0432 42.0234,112.0432 Q42.4359,112.0432 42.6938,112.3354 Q42.9516,112.6104 42.9516,113.2807 L42.9516,115.4463 Q42.9516,116.0479 42.8141,116.2541 Q42.5219,116.6838 42.0234,116.6838 Q41.5078,116.6838 41.2156,116.2369 Q41.0781,116.0307 41.0781,115.2916 L39.4453,115.2916 Z " fill="#000000"/><text fill="#000000" font-family="sans-serif" font-size="15.4" lengthAdjust="spacing" textLength="121" x="56.1" y="120.7916">AstartesCategory</text><line style="stroke:#181818;stroke-width:0.55;" x1="25.3" x2="179.3" y1="132.015" y2="132.015"/><line style="stroke:#181818;stroke-width:0.55;" x1="25.3" x2="179.3" y1="140.815" y2="140.815"/></g><!--class Chapter--><g id="elem_Chapter"><rect codeLine="109" fill="#F1F1F1" height="52.8" id="Chapter" rx="2.75" ry="2.75" style="stroke:#181818;stroke-width:0.55;" width="91.3" x="219.45" y="96.815"/><ellipse cx="235.95" cy="114.415" fill="#ADD1B2" rx="12.1" ry="12.1" style="stroke:#181818;stroke-width:1.1;"/><path d="M238.9922,109.8775 Q239.1641,109.6369 239.3703,109.5166 Q239.5766,109.3963 239.8172,109.3963 Q240.2297,109.3963 240.4875,109.6885 Q240.7453,109.9635 240.7453,110.6338 L240.7453,112.2322 Q240.7453,112.9025 240.4875,113.1947 Q240.2297,113.4869 239.8172,113.4869 Q239.4391,113.4869 239.2156,113.2635 Q238.9922,113.0572 238.8719,112.49 Q238.8203,112.0947 238.6141,111.8885 Q238.2531,111.476 237.5828,111.2354 Q236.9125,110.9947 236.225,110.9947 Q235.3828,110.9947 234.6781,111.3557 Q233.9906,111.7166 233.4406,112.5416 Q232.9078,113.3666 232.9078,114.501 L232.9078,115.7041 Q232.9078,117.0619 233.8875,117.9729 Q234.8672,118.8666 236.6203,118.8666 Q237.6516,118.8666 238.3734,118.5916 Q238.8031,118.4197 239.2672,117.9385 Q239.5594,117.6463 239.7141,117.5604 Q239.8859,117.4744 240.1094,117.4744 Q240.4703,117.4744 240.7453,117.7666 Q241.0375,118.0416 241.0375,118.4197 Q241.0375,118.7979 240.6594,119.2447 Q240.1094,119.8807 239.2328,120.2416 Q238.0469,120.74 236.6203,120.74 Q234.9531,120.74 233.6297,120.0525 Q232.5469,119.5025 231.7906,118.3338 Q231.0344,117.1479 231.0344,115.7385 L231.0344,114.4666 Q231.0344,113.0057 231.7047,111.751 Q232.3922,110.4791 233.5953,109.8088 Q234.7984,109.1213 236.1563,109.1213 Q236.9641,109.1213 237.6688,109.3104 Q238.3906,109.4822 238.9922,109.8775 Z " fill="#000000"/><text fill="#000000" font-family="sans-serif" font-size="15.4" lengthAdjust="spacing" textLength="56.1" x="251.35" y="120.7916">Chapter</text><line style="stroke:#181818;stroke-width:0.55;" x1="220.55" x2="309.65" y1="132.015" y2="132.015"/><line style="stroke:#181818;stroke-width:0.55;" x1="220.55" x2="309.65" y1="140.815" y2="140.815"/></g><!--class ClientData--><g id="elem_ClientData"><rect codeLine="110" fill="#F1F1F1" height="52.8" id="ClientData" rx="2.75" ry="2.75" style="stroke:#181818;stroke-width:0.55;" width="107.8" x="349.8" y="96.815"/><ellipse cx="366.3" cy="114.415" fill="#ADD1B2" rx="12.1" ry="12.1" style="stroke:#181818;stroke-width:1.1;"/><path d="M369.3422,109.8775 Q369.5141,109.6369 369.7203,109.5166 Q369.9266,109.3963 370.1672,109.3963 Q370.5797,109.3963 370.8375,109.6885 Q371.0953,109.9635 371.0953,110.6338 L371.0953,112.2322 Q371.0953,112.9025 370.8375,113.1947 Q370.5797,113.4869 370.1672,113.4869 Q369.7891,113.4869 369.5656,113.2635 Q369.3422,113.0572 369.2219,112.49 Q369.1703,112.0947 368.9641,111.8885 Q368.6031,111.476 367.9328,111.2354 Q367.2625,110.9947 366.575,110.9947 Q365.7328,110.9947 365.0281,111.3557 Q364.3406,111.7166 363.7906,112.5416 Q363.2578,113.3666 363.2578,114.501 L363.2578,115.7041 Q363.2578,117.0619 364.2375,117.9729 Q365.2172,118.8666 366.9703,118.8666 Q368.0016,118.8666 368.7234,118.5916 Q369.1531,118.4197 369.6172,117.9385 Q369.9094,117.6463 370.0641,117.5604 Q370.2359,117.4744 370.4594,117.4744 Q370.8203,117.4744 371.0953,117.7666 Q371.3875,118.0416 371.3875,118.4197 Q371.3875,118.7979 371.0094,119.2447 Q370.4594,119.8807 369.5828,120.2416 Q368.3969,120.74 366.9703,120.74 Q365.3031,120.74 363.9797,120.0525 Q362.8969,119.5025 362.1406,118.3338 Q361.3844,117.1479 361.3844,115.7385 L361.3844,114.4666 Q361.3844,113.0057 362.0547,111.751 Q362.7422,110.4791 363.9453,109.8088 Q365.1484,109.1213 366.5063,109.1213 Q367.3141,109.1213 368.0188,109.3104 Q368.7406,109.4822 369.3422,109.8775 Z " fill="#000000"/><text fill="#000000" font-family="sans-serif" font-size="15.4" lengthAdjust="spacing" textLength="72.6" x="381.7" y="120.7916">ClientData</text><line style="stroke:#181818;stroke-width:0.55;" x1="350.9" x2="456.5" y1="132.015" y2="132.015"/><line style="stroke:#181818;stroke-width:0.55;" x1="350.9" x2="456.5" y1="140.815" y2="140.815"/></g><!--class Coordinates--><g id="elem_Coordinates"><rect codeLine="111" fill="#F1F1F1" height="52.8" id="Coordinates" rx="2.75" ry="2.75" style="stroke:#181818;stroke-width:0.55;" width="119.9" x="42.35" y="215.615"/><ellipse cx="58.85" cy="233.215" fill="#ADD1B2" rx="12.1" ry="12.1" style="stroke:#181818;stroke-width:1.1;"/><path d="M61.8922,228.6775 Q62.0641,228.4369 62.2703,228.3166 Q62.4766,228.1963 62.7172,228.1963 Q63.1297,228.1963 63.3875,228.4885 Q63.6453,228.7635 63.6453,229.4338 L63.6453,231.0322 Q63.6453,231.7025 63.3875,231.9947 Q63.1297,232.2869 62.7172,232.2869 Q62.3391,232.2869 62.1156,232.0635 Q61.8922,231.8572 61.7719,231.29 Q61.7203,230.8947 61.5141,230.6885 Q61.1531,230.276 60.4828,230.0354 Q59.8125,229.7947 59.125,229.7947 Q58.2828,229.7947 57.5781,230.1557 Q56.8906,230.5166 56.3406,231.3416 Q55.8078,232.1666 55.8078,233.301 L55.8078,234.5041 Q55.8078,235.8619 56.7875,236.7729 Q57.7672,237.6666 59.5203,237.6666 Q60.5516,237.6666 61.2734,237.3916 Q61.7031,237.2197 62.1672,236.7385 Q62.4594,236.4463 62.6141,236.3604 Q62.7859,236.2744 63.0094,236.2744 Q63.3703,236.2744 63.6453,236.5666 Q63.9375,236.8416 63.9375,237.2197 Q63.9375,237.5979 63.5594,238.0447 Q63.0094,238.6807 62.1328,239.0416 Q60.9469,239.54 59.5203,239.54 Q57.8531,239.54 56.5297,238.8525 Q55.4469,238.3025 54.6906,237.1338 Q53.9344,235.9479 53.9344,234.5385 L53.9344,233.2666 Q53.9344,231.8057 54.6047,230.551 Q55.2922,229.2791 56.4953,228.6088 Q57.6984,227.9213 59.0563,227.9213 Q59.8641,227.9213 60.5688,228.1104 Q61.2906,228.2822 61.8922,228.6775 Z " fill="#000000"/><text fill="#000000" font-family="sans-serif" font-size="15.4" lengthAdjust="spacing" textLength="84.7" x="74.25" y="239.5916">Coordinates</text><line style="stroke:#181818;stroke-width:0.55;" x1="43.45" x2="161.15" y1="250.815" y2="250.815"/><line style="stroke:#181818;stroke-width:0.55;" x1="43.45" x2="161.15" y1="259.615" y2="259.615"/></g><!--class Id--><g id="elem_Id"><rect codeLine="112" fill="#F1F1F1" height="52.8" id="Id" rx="2.75" ry="2.75" style="stroke:#181818;stroke-width:0.55;" width="47.3" x="200.75" y="215.615"/><ellipse cx="217.25" cy="233.215" fill="#ADD1B2" rx="12.1" ry="12.1" style="stroke:#181818;stroke-width:1.1;"/><path d="M220.2922,228.6775 Q220.4641,228.4369 220.6703,228.3166 Q220.8766,228.1963 221.1172,228.1963 Q221.5297,228.1963 221.7875,228.4885 Q222.0453,228.7635 222.0453,229.4338 L222.0453,231.0322 Q222.0453,231.7025 221.7875,231.9947 Q221.5297,232.2869 221.1172,232.2869 Q220.7391,232.2869 220.5156,232.0635 Q220.2922,231.8572 220.1719,231.29 Q220.1203,230.8947 219.9141,230.6885 Q219.5531,230.276 218.8828,230.0354 Q218.2125,229.7947 217.525,229.7947 Q216.6828,229.7947 215.9781,230.1557 Q215.2906,230.5166 214.7406,231.3416 Q214.2078,232.1666 214.2078,233.301 L214.2078,234.5041 Q214.2078,235.8619 215.1875,236.7729 Q216.1672,237.6666 217.9203,237.6666 Q218.9516,237.6666 219.6734,237.3916 Q220.1031,237.2197 220.5672,236.7385 Q220.8594,236.4463 221.0141,236.3604 Q221.1859,236.2744 221.4094,236.2744 Q221.7703,236.2744 222.0453,236.5666 Q222.3375,236.8416 222.3375,237.2197 Q222.3375,237.5979 221.9594,238.0447 Q221.4094,238.6807 220.5328,239.0416 Q219.3469,239.54 217.9203,239.54 Q216.2531,239.54 214.9297,238.8525 Q213.8469,238.3025 213.0906,237.1338 Q212.3344,235.9479 212.3344,234.5385 L212.3344,233.2666 Q212.3344,231.8057 213.0047,230.551 Q213.6922,229.2791 214.8953,228.6088 Q216.0984,227.9213 217.4563,227.9213 Q218.2641,227.9213 218.9688,228.1104 Q219.6906,228.2822 220.2922,228.6775 Z " fill="#000000"/><text fill="#000000" font-family="sans-serif" font-size="15.4" lengthAdjust="spacing" textLength="12.1" x="232.65" y="239.5916">Id</text><line style="stroke:#181818;stroke-width:0.55;" x1="201.85" x2="246.95" y1="250.815" y2="250.815"/><line style="stroke:#181818;stroke-width:0.55;" x1="201.85" x2="246.95" y1="259.615" y2="259.615"/></g><!--class Network--><g id="elem_Network"><rect codeLine="113" fill="#F1F1F1" height="52.8" id="Network" rx="2.75" ry="2.75" style="stroke:#181818;stroke-width:0.55;" width="90.2" x="287.1" y="215.615"/><ellipse cx="303.6" cy="233.215" fill="#ADD1B2" rx="12.1" ry="12.1" style="stroke:#181818;stroke-width:1.1;"/><path d="M306.6422,228.6775 Q306.8141,228.4369 307.0203,228.3166 Q307.2266,228.1963 307.4672,228.1963 Q307.8797,228.1963 308.1375,228.4885 Q308.3953,228.7635 308.3953,229.4338 L308.3953,231.0322 Q308.3953,231.7025 308.1375,231.9947 Q307.8797,232.2869 307.4672,232.2869 Q307.0891,232.2869 306.8656,232.0635 Q306.6422,231.8572 306.5219,231.29 Q306.4703,230.8947 306.2641,230.6885 Q305.9031,230.276 305.2328,230.0354 Q304.5625,229.7947 303.875,229.7947 Q303.0328,229.7947 302.3281,230.1557 Q301.6406,230.5166 301.0906,231.3416 Q300.5578,232.1666 300.5578,233.301 L300.5578,234.5041 Q300.5578,235.8619 301.5375,236.7729 Q302.5172,237.6666 304.2703,237.6666 Q305.3016,237.6666 306.0234,237.3916 Q306.4531,237.2197 306.9172,236.7385 Q307.2094,236.4463 307.3641,236.3604 Q307.5359,236.2744 307.7594,236.2744 Q308.1203,236.2744 308.3953,236.5666 Q308.6875,236.8416 308.6875,237.2197 Q308.6875,237.5979 308.3094,238.0447 Q307.7594,238.6807 306.8828,239.0416 Q305.6969,239.54 304.2703,239.54 Q302.6031,239.54 301.2797,238.8525 Q300.1969,238.3025 299.4406,237.1338 Q298.6844,235.9479 298.6844,234.5385 L298.6844,233.2666 Q298.6844,231.8057 299.3547,230.551 Q300.0422,229.2791 301.2453,228.6088 Q302.4484,227.9213 303.8063,227.9213 Q304.6141,227.9213 305.3188,228.1104 Q306.0406,228.2822 306.6422,228.6775 Z " fill="#000000"/><text fill="#000000" font-family="sans-serif" font-size="15.4" lengthAdjust="spacing" textLength="55" x="319" y="239.5916">Network</text><line style="stroke:#181818;stroke-width:0.55;" x1="288.2" x2="376.2" y1="250.815" y2="250.815"/><line style="stroke:#181818;stroke-width:0.55;" x1="288.2" x2="376.2" y1="259.615" y2="259.615"/></g><!--class OpenedFileSet--><g id="elem_OpenedFileSet"><rect codeLine="114" fill="#F1F1F1" height="52.8" id="OpenedFileSet" rx="2.75" ry="2.75" style="stroke:#181818;stroke-width:0.55;" width="139.7" x="32.45" y="334.415"/><ellipse cx="48.95" cy="352.015" fill="#ADD1B2" rx="12.1" ry="12.1" style="stroke:#181818;stroke-width:1.1;"/><path d="M51.9922,347.4775 Q52.1641,347.2369 52.3703,347.1166 Q52.5766,346.9963 52.8172,346.9963 Q53.2297,346.9963 53.4875,347.2885 Q53.7453,347.5635 53.7453,348.2338 L53.7453,349.8322 Q53.7453,350.5025 53.4875,350.7947 Q53.2297,351.0869 52.8172,351.0869 Q52.4391,351.0869 52.2156,350.8635 Q51.9922,350.6572 51.8719,350.09 Q51.8203,349.6947 51.6141,349.4885 Q51.2531,349.076 50.5828,348.8354 Q49.9125,348.5947 49.225,348.5947 Q48.3828,348.5947 47.6781,348.9557 Q46.9906,349.3166 46.4406,350.1416 Q45.9078,350.9666 45.9078,352.101 L45.9078,353.3041 Q45.9078,354.6619 46.8875,355.5729 Q47.8672,356.4666 49.6203,356.4666 Q50.6516,356.4666 51.3734,356.1916 Q51.8031,356.0197 52.2672,355.5385 Q52.5594,355.2463 52.7141,355.1604 Q52.8859,355.0744 53.1094,355.0744 Q53.4703,355.0744 53.7453,355.3666 Q54.0375,355.6416 54.0375,356.0197 Q54.0375,356.3979 53.6594,356.8447 Q53.1094,357.4807 52.2328,357.8416 Q51.0469,358.34 49.6203,358.34 Q47.9531,358.34 46.6297,357.6525 Q45.5469,357.1025 44.7906,355.9338 Q44.0344,354.7479 44.0344,353.3385 L44.0344,352.0666 Q44.0344,350.6057 44.7047,349.351 Q45.3922,348.0791 46.5953,347.4088 Q47.7984,346.7213 49.1563,346.7213 Q49.9641,346.7213 50.6688,346.9104 Q51.3906,347.0822 51.9922,347.4775 Z " fill="#000000"/><text fill="#000000" font-family="sans-serif" font-size="15.4" lengthAdjust="spacing" textLength="104.5" x="64.35" y="358.3916">OpenedFileSet</text><line style="stroke:#181818;stroke-width:0.55;" x1="33.55" x2="171.05" y1="369.615" y2="369.615"/><line style="stroke:#181818;stroke-width:0.55;" x1="33.55" x2="171.05" y1="378.415" y2="378.415"/></g><!--class SpaceMarine--><g id="elem_SpaceMarine"><rect codeLine="115" fill="#F1F1F1" height="52.8" id="SpaceMarine" rx="2.75" ry="2.75" style="stroke:#181818;stroke-width:0.55;" width="126.5" x="210.65" y="334.415"/><ellipse cx="227.15" cy="352.015" fill="#ADD1B2" rx="12.1" ry="12.1" style="stroke:#181818;stroke-width:1.1;"/><path d="M230.1922,347.4775 Q230.3641,347.2369 230.5703,347.1166 Q230.7766,346.9963 231.0172,346.9963 Q231.4297,346.9963 231.6875,347.2885 Q231.9453,347.5635 231.9453,348.2338 L231.9453,349.8322 Q231.9453,350.5025 231.6875,350.7947 Q231.4297,351.0869 231.0172,351.0869 Q230.6391,351.0869 230.4156,350.8635 Q230.1922,350.6572 230.0719,350.09 Q230.0203,349.6947 229.8141,349.4885 Q229.4531,349.076 228.7828,348.8354 Q228.1125,348.5947 227.425,348.5947 Q226.5828,348.5947 225.8781,348.9557 Q225.1906,349.3166 224.6406,350.1416 Q224.1078,350.9666 224.1078,352.101 L224.1078,353.3041 Q224.1078,354.6619 225.0875,355.5729 Q226.0672,356.4666 227.8203,356.4666 Q228.8516,356.4666 229.5734,356.1916 Q230.0031,356.0197 230.4672,355.5385 Q230.7594,355.2463 230.9141,355.1604 Q231.0859,355.0744 231.3094,355.0744 Q231.6703,355.0744 231.9453,355.3666 Q232.2375,355.6416 232.2375,356.0197 Q232.2375,356.3979 231.8594,356.8447 Q231.3094,357.4807 230.4328,357.8416 Q229.2469,358.34 227.8203,358.34 Q226.1531,358.34 224.8297,357.6525 Q223.7469,357.1025 222.9906,355.9338 Q222.2344,354.7479 222.2344,353.3385 L222.2344,352.0666 Q222.2344,350.6057 222.9047,349.351 Q223.5922,348.0791 224.7953,347.4088 Q225.9984,346.7213 227.3563,346.7213 Q228.1641,346.7213 228.8688,346.9104 Q229.5906,347.0822 230.1922,347.4775 Z " fill="#000000"/><text fill="#000000" font-family="sans-serif" font-size="15.4" lengthAdjust="spacing" textLength="91.3" x="242.55" y="358.3916">SpaceMarine</text><line style="stroke:#181818;stroke-width:0.55;" x1="211.75" x2="336.05" y1="369.615" y2="369.615"/><line style="stroke:#181818;stroke-width:0.55;" x1="211.75" x2="336.05" y1="378.415" y2="378.415"/></g><!--class StreamReader--><g id="elem_StreamReader"><rect codeLine="116" fill="#F1F1F1" height="52.8" id="StreamReader" rx="2.75" ry="2.75" style="stroke:#181818;stroke-width:0.55;" width="136.4" x="376.2" y="334.415"/><ellipse cx="392.7" cy="352.015" fill="#ADD1B2" rx="12.1" ry="12.1" style="stroke:#181818;stroke-width:1.1;"/><path d="M395.7422,347.4775 Q395.9141,347.2369 396.1203,347.1166 Q396.3266,346.9963 396.5672,346.9963 Q396.9797,346.9963 397.2375,347.2885 Q397.4953,347.5635 397.4953,348.2338 L397.4953,349.8322 Q397.4953,350.5025 397.2375,350.7947 Q396.9797,351.0869 396.5672,351.0869 Q396.1891,351.0869 395.9656,350.8635 Q395.7422,350.6572 395.6219,350.09 Q395.5703,349.6947 395.3641,349.4885 Q395.0031,349.076 394.3328,348.8354 Q393.6625,348.5947 392.975,348.5947 Q392.1328,348.5947 391.4281,348.9557 Q390.7406,349.3166 390.1906,350.1416 Q389.6578,350.9666 389.6578,352.101 L389.6578,353.3041 Q389.6578,354.6619 390.6375,355.5729 Q391.6172,356.4666 393.3703,356.4666 Q394.4016,356.4666 395.1234,356.1916 Q395.5531,356.0197 396.0172,355.5385 Q396.3094,355.2463 396.4641,355.1604 Q396.6359,355.0744 396.8594,355.0744 Q397.2203,355.0744 397.4953,355.3666 Q397.7875,355.6416 397.7875,356.0197 Q397.7875,356.3979 397.4094,356.8447 Q396.8594,357.4807 395.9828,357.8416 Q394.7969,358.34 393.3703,358.34 Q391.7031,358.34 390.3797,357.6525 Q389.2969,357.1025 388.5406,355.9338 Q387.7844,354.7479 387.7844,353.3385 L387.7844,352.0666 Q387.7844,350.6057 388.4547,349.351 Q389.1422,348.0791 390.3453,347.4088 Q391.5484,346.7213 392.9063,346.7213 Q393.7141,346.7213 394.4188,346.9104 Q395.1406,347.0822 395.7422,347.4775 Z " fill="#000000"/><text fill="#000000" font-family="sans-serif" font-size="15.4" lengthAdjust="spacing" textLength="101.2" x="408.1" y="358.3916">StreamReader</text><line style="stroke:#181818;stroke-width:0.55;" x1="377.3" x2="511.5" y1="369.615" y2="369.615"/><line style="stroke:#181818;stroke-width:0.55;" x1="377.3" x2="511.5" y1="378.415" y2="378.415"/></g><!--class Command--><g id="elem_Command"><rect codeLine="67" fill="#F1F1F1" height="52.8" id="Command" rx="2.75" ry="2.75" style="stroke:#181818;stroke-width:0.55;" width="105.6" x="2647.7" y="96.815"/><ellipse cx="2664.2" cy="114.415" fill="#B4A7E5" rx="12.1" ry="12.1" style="stroke:#181818;stroke-width:1.1;"/><path d="M2665.2484,110.7197 L2665.2484,118.0416 L2667.1391,118.0416 Q2667.8094,118.0416 2668.1016,118.2994 Q2668.3938,118.5572 2668.3938,118.9869 Q2668.3938,119.3994 2668.1016,119.6572 Q2667.8094,119.915 2667.1391,119.915 L2661.4844,119.915 Q2660.8141,119.915 2660.5219,119.6572 Q2660.2297,119.3994 2660.2297,118.9697 Q2660.2297,118.5572 2660.5219,118.2994 Q2660.8141,118.0416 2661.4844,118.0416 L2663.375,118.0416 L2663.375,110.7197 L2661.4844,110.7197 Q2660.8141,110.7197 2660.5219,110.4619 Q2660.2297,110.2041 2660.2297,109.7744 Q2660.2297,109.3619 2660.5219,109.1041 Q2660.8141,108.8463 2661.4844,108.8463 L2667.1391,108.8463 Q2667.8094,108.8463 2668.1016,109.1041 Q2668.3938,109.3619 2668.3938,109.7744 Q2668.3938,110.2041 2668.1016,110.4619 Q2667.8094,110.7197 2667.1391,110.7197 L2665.2484,110.7197 Z " fill="#000000"/><text fill="#000000" font-family="sans-serif" font-size="15.4" font-style="italic" lengthAdjust="spacing" textLength="70.4" x="2679.6" y="120.7916">Command</text><line style="stroke:#181818;stroke-width:0.55;" x1="2648.8" x2="2752.2" y1="132.015" y2="132.015"/><line style="stroke:#181818;stroke-width:0.55;" x1="2648.8" x2="2752.2" y1="140.815" y2="140.815"/></g><!--class AddCommand--><g id="elem_AddCommand"><rect codeLine="68" fill="#F1F1F1" height="52.8" id="AddCommand" rx="2.75" ry="2.75" style="stroke:#181818;stroke-width:0.55;" width="133.1" x="969.65" y="215.615"/><ellipse cx="986.15" cy="233.215" fill="#ADD1B2" rx="12.1" ry="12.1" style="stroke:#181818;stroke-width:1.1;"/><path d="M989.1922,228.6775 Q989.3641,228.4369 989.5703,228.3166 Q989.7766,228.1963 990.0172,228.1963 Q990.4297,228.1963 990.6875,228.4885 Q990.9453,228.7635 990.9453,229.4338 L990.9453,231.0322 Q990.9453,231.7025 990.6875,231.9947 Q990.4297,232.2869 990.0172,232.2869 Q989.6391,232.2869 989.4156,232.0635 Q989.1922,231.8572 989.0719,231.29 Q989.0203,230.8947 988.8141,230.6885 Q988.4531,230.276 987.7828,230.0354 Q987.1125,229.7947 986.425,229.7947 Q985.5828,229.7947 984.8781,230.1557 Q984.1906,230.5166 983.6406,231.3416 Q983.1078,232.1666 983.1078,233.301 L983.1078,234.5041 Q983.1078,235.8619 984.0875,236.7729 Q985.0672,237.6666 986.8203,237.6666 Q987.8516,237.6666 988.5734,237.3916 Q989.0031,237.2197 989.4672,236.7385 Q989.7594,236.4463 989.9141,236.3604 Q990.0859,236.2744 990.3094,236.2744 Q990.6703,236.2744 990.9453,236.5666 Q991.2375,236.8416 991.2375,237.2197 Q991.2375,237.5979 990.8594,238.0447 Q990.3094,238.6807 989.4328,239.0416 Q988.2469,239.54 986.8203,239.54 Q985.1531,239.54 983.8297,238.8525 Q982.7469,238.3025 981.9906,237.1338 Q981.2344,235.9479 981.2344,234.5385 L981.2344,233.2666 Q981.2344,231.8057 981.9047,230.551 Q982.5922,229.2791 983.7953,228.6088 Q984.9984,227.9213 986.3563,227.9213 Q987.1641,227.9213 987.8688,228.1104 Q988.5906,228.2822 989.1922,228.6775 Z " fill="#000000"/><text fill="#000000" font-family="sans-serif" font-size="15.4" lengthAdjust="spacing" textLength="97.9" x="1001.55" y="239.5916">AddCommand</text><line style="stroke:#181818;stroke-width:0.55;" x1="970.75" x2="1101.65" y1="250.815" y2="250.815"/><line style="stroke:#181818;stroke-width:0.55;" x1="970.75" x2="1101.65" y1="259.615" y2="259.615"/></g><!--class AddIfMinCommand--><g id="elem_AddIfMinCommand"><rect codeLine="69" fill="#F1F1F1" height="52.8" id="AddIfMinCommand" rx="2.75" ry="2.75" style="stroke:#181818;stroke-width:0.55;" width="165" x="1141.8" y="215.615"/><ellipse cx="1158.3" cy="233.215" fill="#ADD1B2" rx="12.1" ry="12.1" style="stroke:#181818;stroke-width:1.1;"/><path d="M1161.3422,228.6775 Q1161.5141,228.4369 1161.7203,228.3166 Q1161.9266,228.1963 1162.1672,228.1963 Q1162.5797,228.1963 1162.8375,228.4885 Q1163.0953,228.7635 1163.0953,229.4338 L1163.0953,231.0322 Q1163.0953,231.7025 1162.8375,231.9947 Q1162.5797,232.2869 1162.1672,232.2869 Q1161.7891,232.2869 1161.5656,232.0635 Q1161.3422,231.8572 1161.2219,231.29 Q1161.1703,230.8947 1160.9641,230.6885 Q1160.6031,230.276 1159.9328,230.0354 Q1159.2625,229.7947 1158.575,229.7947 Q1157.7328,229.7947 1157.0281,230.1557 Q1156.3406,230.5166 1155.7906,231.3416 Q1155.2578,232.1666 1155.2578,233.301 L1155.2578,234.5041 Q1155.2578,235.8619 1156.2375,236.7729 Q1157.2172,237.6666 1158.9703,237.6666 Q1160.0016,237.6666 1160.7234,237.3916 Q1161.1531,237.2197 1161.6172,236.7385 Q1161.9094,236.4463 1162.0641,236.3604 Q1162.2359,236.2744 1162.4594,236.2744 Q1162.8203,236.2744 1163.0953,236.5666 Q1163.3875,236.8416 1163.3875,237.2197 Q1163.3875,237.5979 1163.0094,238.0447 Q1162.4594,238.6807 1161.5828,239.0416 Q1160.3969,239.54 1158.9703,239.54 Q1157.3031,239.54 1155.9797,238.8525 Q1154.8969,238.3025 1154.1406,237.1338 Q1153.3844,235.9479 1153.3844,234.5385 L1153.3844,233.2666 Q1153.3844,231.8057 1154.0547,230.551 Q1154.7422,229.2791 1155.9453,228.6088 Q1157.1484,227.9213 1158.5063,227.9213 Q1159.3141,227.9213 1160.0188,228.1104 Q1160.7406,228.2822 1161.3422,228.6775 Z " fill="#000000"/><text fill="#000000" font-family="sans-serif" font-size="15.4" lengthAdjust="spacing" textLength="129.8" x="1173.7" y="239.5916">AddIfMinCommand</text><line style="stroke:#181818;stroke-width:0.55;" x1="1142.9" x2="1305.7" y1="250.815" y2="250.815"/><line style="stroke:#181818;stroke-width:0.55;" x1="1142.9" x2="1305.7" y1="259.615" y2="259.615"/></g><!--class AverageCommand--><g id="elem_AverageCommand"><rect codeLine="70" fill="#F1F1F1" height="52.8" id="AverageCommand" rx="2.75" ry="2.75" style="stroke:#181818;stroke-width:0.55;" width="163.9" x="1345.85" y="215.615"/><ellipse cx="1362.35" cy="233.215" fill="#ADD1B2" rx="12.1" ry="12.1" style="stroke:#181818;stroke-width:1.1;"/><path d="M1365.3922,228.6775 Q1365.5641,228.4369 1365.7703,228.3166 Q1365.9766,228.1963 1366.2172,228.1963 Q1366.6297,228.1963 1366.8875,228.4885 Q1367.1453,228.7635 1367.1453,229.4338 L1367.1453,231.0322 Q1367.1453,231.7025 1366.8875,231.9947 Q1366.6297,232.2869 1366.2172,232.2869 Q1365.8391,232.2869 1365.6156,232.0635 Q1365.3922,231.8572 1365.2719,231.29 Q1365.2203,230.8947 1365.0141,230.6885 Q1364.6531,230.276 1363.9828,230.0354 Q1363.3125,229.7947 1362.625,229.7947 Q1361.7828,229.7947 1361.0781,230.1557 Q1360.3906,230.5166 1359.8406,231.3416 Q1359.3078,232.1666 1359.3078,233.301 L1359.3078,234.5041 Q1359.3078,235.8619 1360.2875,236.7729 Q1361.2672,237.6666 1363.0203,237.6666 Q1364.0516,237.6666 1364.7734,237.3916 Q1365.2031,237.2197 1365.6672,236.7385 Q1365.9594,236.4463 1366.1141,236.3604 Q1366.2859,236.2744 1366.5094,236.2744 Q1366.8703,236.2744 1367.1453,236.5666 Q1367.4375,236.8416 1367.4375,237.2197 Q1367.4375,237.5979 1367.0594,238.0447 Q1366.5094,238.6807 1365.6328,239.0416 Q1364.4469,239.54 1363.0203,239.54 Q1361.3531,239.54 1360.0297,238.8525 Q1358.9469,238.3025 1358.1906,237.1338 Q1357.4344,235.9479 1357.4344,234.5385 L1357.4344,233.2666 Q1357.4344,231.8057 1358.1047,230.551 Q1358.7922,229.2791 1359.9953,228.6088 Q1361.1984,227.9213 1362.5563,227.9213 Q1363.3641,227.9213 1364.0688,228.1104 Q1364.7906,228.2822 1365.3922,228.6775 Z " fill="#000000"/><text fill="#000000" font-family="sans-serif" font-size="15.4" lengthAdjust="spacing" textLength="128.7" x="1377.75" y="239.5916">AverageCommand</text><line style="stroke:#181818;stroke-width:0.55;" x1="1346.95" x2="1508.65" y1="250.815" y2="250.815"/><line style="stroke:#181818;stroke-width:0.55;" x1="1346.95" x2="1508.65" y1="259.615" y2="259.615"/></g><!--class ClearCommand--><g id="elem_ClearCommand"><rect codeLine="71" fill="#F1F1F1" height="52.8" id="ClearCommand" rx="2.75" ry="2.75" style="stroke:#181818;stroke-width:0.55;" width="143" x="1548.8" y="215.615"/><ellipse cx="1565.3" cy="233.215" fill="#ADD1B2" rx="12.1" ry="12.1" style="stroke:#181818;stroke-width:1.1;"/><path d="M1568.3422,228.6775 Q1568.5141,228.4369 1568.7203,228.3166 Q1568.9266,228.1963 1569.1672,228.1963 Q1569.5797,228.1963 1569.8375,228.4885 Q1570.0953,228.7635 1570.0953,229.4338 L1570.0953,231.0322 Q1570.0953,231.7025 1569.8375,231.9947 Q1569.5797,232.2869 1569.1672,232.2869 Q1568.7891,232.2869 1568.5656,232.0635 Q1568.3422,231.8572 1568.2219,231.29 Q1568.1703,230.8947 1567.9641,230.6885 Q1567.6031,230.276 1566.9328,230.0354 Q1566.2625,229.7947 1565.575,229.7947 Q1564.7328,229.7947 1564.0281,230.1557 Q1563.3406,230.5166 1562.7906,231.3416 Q1562.2578,232.1666 1562.2578,233.301 L1562.2578,234.5041 Q1562.2578,235.8619 1563.2375,236.7729 Q1564.2172,237.6666 1565.9703,237.6666 Q1567.0016,237.6666 1567.7234,237.3916 Q1568.1531,237.2197 1568.6172,236.7385 Q1568.9094,236.4463 1569.0641,236.3604 Q1569.2359,236.2744 1569.4594,236.2744 Q1569.8203,236.2744 1570.0953,236.5666 Q1570.3875,236.8416 1570.3875,237.2197 Q1570.3875,237.5979 1570.0094,238.0447 Q1569.4594,238.6807 1568.5828,239.0416 Q1567.3969,239.54 1565.9703,239.54 Q1564.3031,239.54 1562.9797,238.8525 Q1561.8969,238.3025 1561.1406,237.1338 Q1560.3844,235.9479 1560.3844,234.5385 L1560.3844,233.2666 Q1560.3844,231.8057 1561.0547,230.551 Q1561.7422,229.2791 1562.9453,228.6088 Q1564.1484,227.9213 1565.5063,227.9213 Q1566.3141,227.9213 1567.0188,228.1104 Q1567.7406,228.2822 1568.3422,228.6775 Z " fill="#000000"/><text fill="#000000" font-family="sans-serif" font-size="15.4" lengthAdjust="spacing" textLength="107.8" x="1580.7" y="239.5916">ClearCommand</text><line style="stroke:#181818;stroke-width:0.55;" x1="1549.9" x2="1690.7" y1="250.815" y2="250.815"/><line style="stroke:#181818;stroke-width:0.55;" x1="1549.9" x2="1690.7" y1="259.615" y2="259.615"/></g><!--class CountGreaterThanHealthCommand--><g id="elem_CountGreaterThanHealthCommand"><rect codeLine="72" fill="#F1F1F1" height="52.8" id="CountGreaterThanHealthCommand" rx="2.75" ry="2.75" style="stroke:#181818;stroke-width:0.55;" width="281.6" x="1730.3" y="215.615"/><ellipse cx="1746.8" cy="233.215" fill="#ADD1B2" rx="12.1" ry="12.1" style="stroke:#181818;stroke-width:1.1;"/><path d="M1749.8422,228.6775 Q1750.0141,228.4369 1750.2203,228.3166 Q1750.4266,228.1963 1750.6672,228.1963 Q1751.0797,228.1963 1751.3375,228.4885 Q1751.5953,228.7635 1751.5953,229.4338 L1751.5953,231.0322 Q1751.5953,231.7025 1751.3375,231.9947 Q1751.0797,232.2869 1750.6672,232.2869 Q1750.2891,232.2869 1750.0656,232.0635 Q1749.8422,231.8572 1749.7219,231.29 Q1749.6703,230.8947 1749.4641,230.6885 Q1749.1031,230.276 1748.4328,230.0354 Q1747.7625,229.7947 1747.075,229.7947 Q1746.2328,229.7947 1745.5281,230.1557 Q1744.8406,230.5166 1744.2906,231.3416 Q1743.7578,232.1666 1743.7578,233.301 L1743.7578,234.5041 Q1743.7578,235.8619 1744.7375,236.7729 Q1745.7172,237.6666 1747.4703,237.6666 Q1748.5016,237.6666 1749.2234,237.3916 Q1749.6531,237.2197 1750.1172,236.7385 Q1750.4094,236.4463 1750.5641,236.3604 Q1750.7359,236.2744 1750.9594,236.2744 Q1751.3203,236.2744 1751.5953,236.5666 Q1751.8875,236.8416 1751.8875,237.2197 Q1751.8875,237.5979 1751.5094,238.0447 Q1750.9594,238.6807 1750.0828,239.0416 Q1748.8969,239.54 1747.4703,239.54 Q1745.8031,239.54 1744.4797,238.8525 Q1743.3969,238.3025 1742.6406,237.1338 Q1741.8844,235.9479 1741.8844,234.5385 L1741.8844,233.2666 Q1741.8844,231.8057 1742.5547,230.551 Q1743.2422,229.2791 1744.4453,228.6088 Q1745.6484,227.9213 1747.0063,227.9213 Q1747.8141,227.9213 1748.5188,228.1104 Q1749.2406,228.2822 1749.8422,228.6775 Z " fill="#000000"/><text fill="#000000" font-family="sans-serif" font-size="15.4" lengthAdjust="spacing" textLength="246.4" x="1762.2" y="239.5916">CountGreaterThanHealthCommand</text><line style="stroke:#181818;stroke-width:0.55;" x1="1731.4" x2="2010.8" y1="250.815" y2="250.815"/><line style="stroke:#181818;stroke-width:0.55;" x1="1731.4" x2="2010.8" y1="259.615" y2="259.615"/></g><!--class ExecuteScriptCommand--><g id="elem_ExecuteScriptCommand"><rect codeLine="73" fill="#F1F1F1" height="52.8" id="ExecuteScriptCommand" rx="2.75" ry="2.75" style="stroke:#181818;stroke-width:0.55;" width="200.2" x="2050.4" y="215.615"/><ellipse cx="2066.9" cy="233.215" fill="#ADD1B2" rx="12.1" ry="12.1" style="stroke:#181818;stroke-width:1.1;"/><path d="M2069.9422,228.6775 Q2070.1141,228.4369 2070.3203,228.3166 Q2070.5266,228.1963 2070.7672,228.1963 Q2071.1797,228.1963 2071.4375,228.4885 Q2071.6953,228.7635 2071.6953,229.4338 L2071.6953,231.0322 Q2071.6953,231.7025 2071.4375,231.9947 Q2071.1797,232.2869 2070.7672,232.2869 Q2070.3891,232.2869 2070.1656,232.0635 Q2069.9422,231.8572 2069.8219,231.29 Q2069.7703,230.8947 2069.5641,230.6885 Q2069.2031,230.276 2068.5328,230.0354 Q2067.8625,229.7947 2067.175,229.7947 Q2066.3328,229.7947 2065.6281,230.1557 Q2064.9406,230.5166 2064.3906,231.3416 Q2063.8578,232.1666 2063.8578,233.301 L2063.8578,234.5041 Q2063.8578,235.8619 2064.8375,236.7729 Q2065.8172,237.6666 2067.5703,237.6666 Q2068.6016,237.6666 2069.3234,237.3916 Q2069.7531,237.2197 2070.2172,236.7385 Q2070.5094,236.4463 2070.6641,236.3604 Q2070.8359,236.2744 2071.0594,236.2744 Q2071.4203,236.2744 2071.6953,236.5666 Q2071.9875,236.8416 2071.9875,237.2197 Q2071.9875,237.5979 2071.6094,238.0447 Q2071.0594,238.6807 2070.1828,239.0416 Q2068.9969,239.54 2067.5703,239.54 Q2065.9031,239.54 2064.5797,238.8525 Q2063.4969,238.3025 2062.7406,237.1338 Q2061.9844,235.9479 2061.9844,234.5385 L2061.9844,233.2666 Q2061.9844,231.8057 2062.6547,230.551 Q2063.3422,229.2791 2064.5453,228.6088 Q2065.7484,227.9213 2067.1063,227.9213 Q2067.9141,227.9213 2068.6188,228.1104 Q2069.3406,228.2822 2069.9422,228.6775 Z " fill="#000000"/><text fill="#000000" font-family="sans-serif" font-size="15.4" lengthAdjust="spacing" textLength="165" x="2082.3" y="239.5916">ExecuteScriptCommand</text><line style="stroke:#181818;stroke-width:0.55;" x1="2051.5" x2="2249.5" y1="250.815" y2="250.815"/><line style="stroke:#181818;stroke-width:0.55;" x1="2051.5" x2="2249.5" y1="259.615" y2="259.615"/></g><!--class ExitCommand--><g id="elem_ExitCommand"><rect codeLine="74" fill="#F1F1F1" height="52.8" id="ExitCommand" rx="2.75" ry="2.75" style="stroke:#181818;stroke-width:0.55;" width="129.8" x="2289.1" y="215.615"/><ellipse cx="2305.6" cy="233.215" fill="#ADD1B2" rx="12.1" ry="12.1" style="stroke:#181818;stroke-width:1.1;"/><path d="M2308.6422,228.6775 Q2308.8141,228.4369 2309.0203,228.3166 Q2309.2266,228.1963 2309.4672,228.1963 Q2309.8797,228.1963 2310.1375,228.4885 Q2310.3953,228.7635 2310.3953,229.4338 L2310.3953,231.0322 Q2310.3953,231.7025 2310.1375,231.9947 Q2309.8797,232.2869 2309.4672,232.2869 Q2309.0891,232.2869 2308.8656,232.0635 Q2308.6422,231.8572 2308.5219,231.29 Q2308.4703,230.8947 2308.2641,230.6885 Q2307.9031,230.276 2307.2328,230.0354 Q2306.5625,229.7947 2305.875,229.7947 Q2305.0328,229.7947 2304.3281,230.1557 Q2303.6406,230.5166 2303.0906,231.3416 Q2302.5578,232.1666 2302.5578,233.301 L2302.5578,234.5041 Q2302.5578,235.8619 2303.5375,236.7729 Q2304.5172,237.6666 2306.2703,237.6666 Q2307.3016,237.6666 2308.0234,237.3916 Q2308.4531,237.2197 2308.9172,236.7385 Q2309.2094,236.4463 2309.3641,236.3604 Q2309.5359,236.2744 2309.7594,236.2744 Q2310.1203,236.2744 2310.3953,236.5666 Q2310.6875,236.8416 2310.6875,237.2197 Q2310.6875,237.5979 2310.3094,238.0447 Q2309.7594,238.6807 2308.8828,239.0416 Q2307.6969,239.54 2306.2703,239.54 Q2304.6031,239.54 2303.2797,238.8525 Q2302.1969,238.3025 2301.4406,237.1338 Q2300.6844,235.9479 2300.6844,234.5385 L2300.6844,233.2666 Q2300.6844,231.8057 2301.3547,230.551 Q2302.0422,229.2791 2303.2453,228.6088 Q2304.4484,227.9213 2305.8063,227.9213 Q2306.6141,227.9213 2307.3188,228.1104 Q2308.0406,228.2822 2308.6422,228.6775 Z " fill="#000000"/><text fill="#000000" font-family="sans-serif" font-size="15.4" lengthAdjust="spacing" textLength="94.6" x="2321" y="239.5916">ExitCommand</text><line style="stroke:#181818;stroke-width:0.55;" x1="2290.2" x2="2417.8" y1="250.815" y2="250.815"/><line style="stroke:#181818;stroke-width:0.55;" x1="2290.2" x2="2417.8" y1="259.615" y2="259.615"/></g><!--class FilterStartsWithNameCommand--><g id="elem_FilterStartsWithNameCommand"><rect codeLine="75" fill="#F1F1F1" height="52.8" id="FilterStartsWithNameCommand" rx="2.75" ry="2.75" style="stroke:#181818;stroke-width:0.55;" width="251.9" x="2457.95" y="215.615"/><ellipse cx="2474.45" cy="233.215" fill="#ADD1B2" rx="12.1" ry="12.1" style="stroke:#181818;stroke-width:1.1;"/><path d="M2477.4922,228.6775 Q2477.6641,228.4369 2477.8703,228.3166 Q2478.0766,228.1963 2478.3172,228.1963 Q2478.7297,228.1963 2478.9875,228.4885 Q2479.2453,228.7635 2479.2453,229.4338 L2479.2453,231.0322 Q2479.2453,231.7025 2478.9875,231.9947 Q2478.7297,232.2869 2478.3172,232.2869 Q2477.9391,232.2869 2477.7156,232.0635 Q2477.4922,231.8572 2477.3719,231.29 Q2477.3203,230.8947 2477.1141,230.6885 Q2476.7531,230.276 2476.0828,230.0354 Q2475.4125,229.7947 2474.725,229.7947 Q2473.8828,229.7947 2473.1781,230.1557 Q2472.4906,230.5166 2471.9406,231.3416 Q2471.4078,232.1666 2471.4078,233.301 L2471.4078,234.5041 Q2471.4078,235.8619 2472.3875,236.7729 Q2473.3672,237.6666 2475.1203,237.6666 Q2476.1516,237.6666 2476.8734,237.3916 Q2477.3031,237.2197 2477.7672,236.7385 Q2478.0594,236.4463 2478.2141,236.3604 Q2478.3859,236.2744 2478.6094,236.2744 Q2478.9703,236.2744 2479.2453,236.5666 Q2479.5375,236.8416 2479.5375,237.2197 Q2479.5375,237.5979 2479.1594,238.0447 Q2478.6094,238.6807 2477.7328,239.0416 Q2476.5469,239.54 2475.1203,239.54 Q2473.4531,239.54 2472.1297,238.8525 Q2471.0469,238.3025 2470.2906,237.1338 Q2469.5344,235.9479 2469.5344,234.5385 L2469.5344,233.2666 Q2469.5344,231.8057 2470.2047,230.551 Q2470.8922,229.2791 2472.0953,228.6088 Q2473.2984,227.9213 2474.6563,227.9213 Q2475.4641,227.9213 2476.1688,228.1104 Q2476.8906,228.2822 2477.4922,228.6775 Z " fill="#000000"/><text fill="#000000" font-family="sans-serif" font-size="15.4" lengthAdjust="spacing" textLength="216.7" x="2489.85" y="239.5916">FilterStartsWithNameCommand</text><line style="stroke:#181818;stroke-width:0.55;" x1="2459.05" x2="2708.75" y1="250.815" y2="250.815"/><line style="stroke:#181818;stroke-width:0.55;" x1="2459.05" x2="2708.75" y1="259.615" y2="259.615"/></g><!--class HelpCommand--><g id="elem_HelpCommand"><rect codeLine="76" fill="#F1F1F1" height="52.8" id="HelpCommand" rx="2.75" ry="2.75" style="stroke:#181818;stroke-width:0.55;" width="136.4" x="2748.9" y="215.615"/><ellipse cx="2765.4" cy="233.215" fill="#ADD1B2" rx="12.1" ry="12.1" style="stroke:#181818;stroke-width:1.1;"/><path d="M2768.4422,228.6775 Q2768.6141,228.4369 2768.8203,228.3166 Q2769.0266,228.1963 2769.2672,228.1963 Q2769.6797,228.1963 2769.9375,228.4885 Q2770.1953,228.7635 2770.1953,229.4338 L2770.1953,231.0322 Q2770.1953,231.7025 2769.9375,231.9947 Q2769.6797,232.2869 2769.2672,232.2869 Q2768.8891,232.2869 2768.6656,232.0635 Q2768.4422,231.8572 2768.3219,231.29 Q2768.2703,230.8947 2768.0641,230.6885 Q2767.7031,230.276 2767.0328,230.0354 Q2766.3625,229.7947 2765.675,229.7947 Q2764.8328,229.7947 2764.1281,230.1557 Q2763.4406,230.5166 2762.8906,231.3416 Q2762.3578,232.1666 2762.3578,233.301 L2762.3578,234.5041 Q2762.3578,235.8619 2763.3375,236.7729 Q2764.3172,237.6666 2766.0703,237.6666 Q2767.1016,237.6666 2767.8234,237.3916 Q2768.2531,237.2197 2768.7172,236.7385 Q2769.0094,236.4463 2769.1641,236.3604 Q2769.3359,236.2744 2769.5594,236.2744 Q2769.9203,236.2744 2770.1953,236.5666 Q2770.4875,236.8416 2770.4875,237.2197 Q2770.4875,237.5979 2770.1094,238.0447 Q2769.5594,238.6807 2768.6828,239.0416 Q2767.4969,239.54 2766.0703,239.54 Q2764.4031,239.54 2763.0797,238.8525 Q2761.9969,238.3025 2761.2406,237.1338 Q2760.4844,235.9479 2760.4844,234.5385 L2760.4844,233.2666 Q2760.4844,231.8057 2761.1547,230.551 Q2761.8422,229.2791 2763.0453,228.6088 Q2764.2484,227.9213 2765.6063,227.9213 Q2766.4141,227.9213 2767.1188,228.1104 Q2767.8406,228.2822 2768.4422,228.6775 Z " fill="#000000"/><text fill="#000000" font-family="sans-serif" font-size="15.4" lengthAdjust="spacing" textLength="101.2" x="2780.8" y="239.5916">HelpCommand</text><line style="stroke:#181818;stroke-width:0.55;" x1="2750" x2="2884.2" y1="250.815" y2="250.815"/><line style="stroke:#181818;stroke-width:0.55;" x1="2750" x2="2884.2" y1="259.615" y2="259.615"/></g><!--class InfoCommand--><g id="elem_InfoCommand"><rect codeLine="77" fill="#F1F1F1" height="52.8" id="InfoCommand" rx="2.75" ry="2.75" style="stroke:#181818;stroke-width:0.55;" width="130.9" x="2924.35" y="215.615"/><ellipse cx="2940.85" cy="233.215" fill="#ADD1B2" rx="12.1" ry="12.1" style="stroke:#181818;stroke-width:1.1;"/><path d="M2943.8922,228.6775 Q2944.0641,228.4369 2944.2703,228.3166 Q2944.4766,228.1963 2944.7172,228.1963 Q2945.1297,228.1963 2945.3875,228.4885 Q2945.6453,228.7635 2945.6453,229.4338 L2945.6453,231.0322 Q2945.6453,231.7025 2945.3875,231.9947 Q2945.1297,232.2869 2944.7172,232.2869 Q2944.3391,232.2869 2944.1156,232.0635 Q2943.8922,231.8572 2943.7719,231.29 Q2943.7203,230.8947 2943.5141,230.6885 Q2943.1531,230.276 2942.4828,230.0354 Q2941.8125,229.7947 2941.125,229.7947 Q2940.2828,229.7947 2939.5781,230.1557 Q2938.8906,230.5166 2938.3406,231.3416 Q2937.8078,232.1666 2937.8078,233.301 L2937.8078,234.5041 Q2937.8078,235.8619 2938.7875,236.7729 Q2939.7672,237.6666 2941.5203,237.6666 Q2942.5516,237.6666 2943.2734,237.3916 Q2943.7031,237.2197 2944.1672,236.7385 Q2944.4594,236.4463 2944.6141,236.3604 Q2944.7859,236.2744 2945.0094,236.2744 Q2945.3703,236.2744 2945.6453,236.5666 Q2945.9375,236.8416 2945.9375,237.2197 Q2945.9375,237.5979 2945.5594,238.0447 Q2945.0094,238.6807 2944.1328,239.0416 Q2942.9469,239.54 2941.5203,239.54 Q2939.8531,239.54 2938.5297,238.8525 Q2937.4469,238.3025 2936.6906,237.1338 Q2935.9344,235.9479 2935.9344,234.5385 L2935.9344,233.2666 Q2935.9344,231.8057 2936.6047,230.551 Q2937.2922,229.2791 2938.4953,228.6088 Q2939.6984,227.9213 2941.0563,227.9213 Q2941.8641,227.9213 2942.5688,228.1104 Q2943.2906,228.2822 2943.8922,228.6775 Z " fill="#000000"/><text fill="#000000" font-family="sans-serif" font-size="15.4" lengthAdjust="spacing" textLength="95.7" x="2956.25" y="239.5916">InfoCommand</text><line style="stroke:#181818;stroke-width:0.55;" x1="2925.45" x2="3054.15" y1="250.815" y2="250.815"/><line style="stroke:#181818;stroke-width:0.55;" x1="2925.45" x2="3054.15" y1="259.615" y2="259.615"/></g><!--class RemoveByIdCommand--><g id="elem_RemoveByIdCommand"><rect codeLine="78" fill="#F1F1F1" height="52.8" id="RemoveByIdCommand" rx="2.75" ry="2.75" style="stroke:#181818;stroke-width:0.55;" width="192.5" x="3093.75" y="215.615"/><ellipse cx="3110.25" cy="233.215" fill="#ADD1B2" rx="12.1" ry="12.1" style="stroke:#181818;stroke-width:1.1;"/><path d="M3113.2922,228.6775 Q3113.4641,228.4369 3113.6703,228.3166 Q3113.8766,228.1963 3114.1172,228.1963 Q3114.5297,228.1963 3114.7875,228.4885 Q3115.0453,228.7635 3115.0453,229.4338 L3115.0453,231.0322 Q3115.0453,231.7025 3114.7875,231.9947 Q3114.5297,232.2869 3114.1172,232.2869 Q3113.7391,232.2869 3113.5156,232.0635 Q3113.2922,231.8572 3113.1719,231.29 Q3113.1203,230.8947 3112.9141,230.6885 Q3112.5531,230.276 3111.8828,230.0354 Q3111.2125,229.7947 3110.525,229.7947 Q3109.6828,229.7947 3108.9781,230.1557 Q3108.2906,230.5166 3107.7406,231.3416 Q3107.2078,232.1666 3107.2078,233.301 L3107.2078,234.5041 Q3107.2078,235.8619 3108.1875,236.7729 Q3109.1672,237.6666 3110.9203,237.6666 Q3111.9516,237.6666 3112.6734,237.3916 Q3113.1031,237.2197 3113.5672,236.7385 Q3113.8594,236.4463 3114.0141,236.3604 Q3114.1859,236.2744 3114.4094,236.2744 Q3114.7703,236.2744 3115.0453,236.5666 Q3115.3375,236.8416 3115.3375,237.2197 Q3115.3375,237.5979 3114.9594,238.0447 Q3114.4094,238.6807 3113.5328,239.0416 Q3112.3469,239.54 3110.9203,239.54 Q3109.2531,239.54 3107.9297,238.8525 Q3106.8469,238.3025 3106.0906,237.1338 Q3105.3344,235.9479 3105.3344,234.5385 L3105.3344,233.2666 Q3105.3344,231.8057 3106.0047,230.551 Q3106.6922,229.2791 3107.8953,228.6088 Q3109.0984,227.9213 3110.4563,227.9213 Q3111.2641,227.9213 3111.9688,228.1104 Q3112.6906,228.2822 3113.2922,228.6775 Z " fill="#000000"/><text fill="#000000" font-family="sans-serif" font-size="15.4" lengthAdjust="spacing" textLength="157.3" x="3125.65" y="239.5916">RemoveByIdCommand</text><line style="stroke:#181818;stroke-width:0.55;" x1="3094.85" x2="3285.15" y1="250.815" y2="250.815"/><line style="stroke:#181818;stroke-width:0.55;" x1="3094.85" x2="3285.15" y1="259.615" y2="259.615"/></g><!--class RemoveGreaterCommand--><g id="elem_RemoveGreaterCommand"><rect codeLine="79" fill="#F1F1F1" height="52.8" id="RemoveGreaterCommand" rx="2.75" ry="2.75" style="stroke:#181818;stroke-width:0.55;" width="216.7" x="3324.75" y="215.615"/><ellipse cx="3341.25" cy="233.215" fill="#ADD1B2" rx="12.1" ry="12.1" style="stroke:#181818;stroke-width:1.1;"/><path d="M3344.2922,228.6775 Q3344.4641,228.4369 3344.6703,228.3166 Q3344.8766,228.1963 3345.1172,228.1963 Q3345.5297,228.1963 3345.7875,228.4885 Q3346.0453,228.7635 3346.0453,229.4338 L3346.0453,231.0322 Q3346.0453,231.7025 3345.7875,231.9947 Q3345.5297,232.2869 3345.1172,232.2869 Q3344.7391,232.2869 3344.5156,232.0635 Q3344.2922,231.8572 3344.1719,231.29 Q3344.1203,230.8947 3343.9141,230.6885 Q3343.5531,230.276 3342.8828,230.0354 Q3342.2125,229.7947 3341.525,229.7947 Q3340.6828,229.7947 3339.9781,230.1557 Q3339.2906,230.5166 3338.7406,231.3416 Q3338.2078,232.1666 3338.2078,233.301 L3338.2078,234.5041 Q3338.2078,235.8619 3339.1875,236.7729 Q3340.1672,237.6666 3341.9203,237.6666 Q3342.9516,237.6666 3343.6734,237.3916 Q3344.1031,237.2197 3344.5672,236.7385 Q3344.8594,236.4463 3345.0141,236.3604 Q3345.1859,236.2744 3345.4094,236.2744 Q3345.7703,236.2744 3346.0453,236.5666 Q3346.3375,236.8416 3346.3375,237.2197 Q3346.3375,237.5979 3345.9594,238.0447 Q3345.4094,238.6807 3344.5328,239.0416 Q3343.3469,239.54 3341.9203,239.54 Q3340.2531,239.54 3338.9297,238.8525 Q3337.8469,238.3025 3337.0906,237.1338 Q3336.3344,235.9479 3336.3344,234.5385 L3336.3344,233.2666 Q3336.3344,231.8057 3337.0047,230.551 Q3337.6922,229.2791 3338.8953,228.6088 Q3340.0984,227.9213 3341.4563,227.9213 Q3342.2641,227.9213 3342.9688,228.1104 Q3343.6906,228.2822 3344.2922,228.6775 Z " fill="#000000"/><text fill="#000000" font-family="sans-serif" font-size="15.4" lengthAdjust="spacing" textLength="181.5" x="3356.65" y="239.5916">RemoveGreaterCommand</text><line style="stroke:#181818;stroke-width:0.55;" x1="3325.85" x2="3540.35" y1="250.815" y2="250.815"/><line style="stroke:#181818;stroke-width:0.55;" x1="3325.85" x2="3540.35" y1="259.615" y2="259.615"/></g><!--class RemoveLowerCommand--><g id="elem_RemoveLowerCommand"><rect codeLine="80" fill="#F1F1F1" height="52.8" id="RemoveLowerCommand" rx="2.75" ry="2.75" style="stroke:#181818;stroke-width:0.55;" width="204.6" x="3580.5" y="215.615"/><ellipse cx="3597" cy="233.215" fill="#ADD1B2" rx="12.1" ry="12.1" style="stroke:#181818;stroke-width:1.1;"/><path d="M3600.0422,228.6775 Q3600.2141,228.4369 3600.4203,228.3166 Q3600.6266,228.1963 3600.8672,228.1963 Q3601.2797,228.1963 3601.5375,228.4885 Q3601.7953,228.7635 3601.7953,229.4338 L3601.7953,231.0322 Q3601.7953,231.7025 3601.5375,231.9947 Q3601.2797,232.2869 3600.8672,232.2869 Q3600.4891,232.2869 3600.2656,232.0635 Q3600.0422,231.8572 3599.9219,231.29 Q3599.8703,230.8947 3599.6641,230.6885 Q3599.3031,230.276 3598.6328,230.0354 Q3597.9625,229.7947 3597.275,229.7947 Q3596.4328,229.7947 3595.7281,230.1557 Q3595.0406,230.5166 3594.4906,231.3416 Q3593.9578,232.1666 3593.9578,233.301 L3593.9578,234.5041 Q3593.9578,235.8619 3594.9375,236.7729 Q3595.9172,237.6666 3597.6703,237.6666 Q3598.7016,237.6666 3599.4234,237.3916 Q3599.8531,237.2197 3600.3172,236.7385 Q3600.6094,236.4463 3600.7641,236.3604 Q3600.9359,236.2744 3601.1594,236.2744 Q3601.5203,236.2744 3601.7953,236.5666 Q3602.0875,236.8416 3602.0875,237.2197 Q3602.0875,237.5979 3601.7094,238.0447 Q3601.1594,238.6807 3600.2828,239.0416 Q3599.0969,239.54 3597.6703,239.54 Q3596.0031,239.54 3594.6797,238.8525 Q3593.5969,238.3025 3592.8406,237.1338 Q3592.0844,235.9479 3592.0844,234.5385 L3592.0844,233.2666 Q3592.0844,231.8057 3592.7547,230.551 Q3593.4422,229.2791 3594.6453,228.6088 Q3595.8484,227.9213 3597.2063,227.9213 Q3598.0141,227.9213 3598.7188,228.1104 Q3599.4406,228.2822 3600.0422,228.6775 Z " fill="#000000"/><text fill="#000000" font-family="sans-serif" font-size="15.4" lengthAdjust="spacing" textLength="169.4" x="3612.4" y="239.5916">RemoveLowerCommand</text><line style="stroke:#181818;stroke-width:0.55;" x1="3581.6" x2="3784" y1="250.815" y2="250.815"/><line style="stroke:#181818;stroke-width:0.55;" x1="3581.6" x2="3784" y1="259.615" y2="259.615"/></g><!--class SaveCommand--><g id="elem_SaveCommand"><rect codeLine="81" fill="#F1F1F1" height="52.8" id="SaveCommand" rx="2.75" ry="2.75" style="stroke:#181818;stroke-width:0.55;" width="140.8" x="3823.6" y="215.615"/><ellipse cx="3840.1" cy="233.215" fill="#ADD1B2" rx="12.1" ry="12.1" style="stroke:#181818;stroke-width:1.1;"/><path d="M3843.1422,228.6775 Q3843.3141,228.4369 3843.5203,228.3166 Q3843.7266,228.1963 3843.9672,228.1963 Q3844.3797,228.1963 3844.6375,228.4885 Q3844.8953,228.7635 3844.8953,229.4338 L3844.8953,231.0322 Q3844.8953,231.7025 3844.6375,231.9947 Q3844.3797,232.2869 3843.9672,232.2869 Q3843.5891,232.2869 3843.3656,232.0635 Q3843.1422,231.8572 3843.0219,231.29 Q3842.9703,230.8947 3842.7641,230.6885 Q3842.4031,230.276 3841.7328,230.0354 Q3841.0625,229.7947 3840.375,229.7947 Q3839.5328,229.7947 3838.8281,230.1557 Q3838.1406,230.5166 3837.5906,231.3416 Q3837.0578,232.1666 3837.0578,233.301 L3837.0578,234.5041 Q3837.0578,235.8619 3838.0375,236.7729 Q3839.0172,237.6666 3840.7703,237.6666 Q3841.8016,237.6666 3842.5234,237.3916 Q3842.9531,237.2197 3843.4172,236.7385 Q3843.7094,236.4463 3843.8641,236.3604 Q3844.0359,236.2744 3844.2594,236.2744 Q3844.6203,236.2744 3844.8953,236.5666 Q3845.1875,236.8416 3845.1875,237.2197 Q3845.1875,237.5979 3844.8094,238.0447 Q3844.2594,238.6807 3843.3828,239.0416 Q3842.1969,239.54 3840.7703,239.54 Q3839.1031,239.54 3837.7797,238.8525 Q3836.6969,238.3025 3835.9406,237.1338 Q3835.1844,235.9479 3835.1844,234.5385 L3835.1844,233.2666 Q3835.1844,231.8057 3835.8547,230.551 Q3836.5422,229.2791 3837.7453,228.6088 Q3838.9484,227.9213 3840.3063,227.9213 Q3841.1141,227.9213 3841.8188,228.1104 Q3842.5406,228.2822 3843.1422,228.6775 Z " fill="#000000"/><text fill="#000000" font-family="sans-serif" font-size="15.4" lengthAdjust="spacing" textLength="105.6" x="3855.5" y="239.5916">SaveCommand</text><line style="stroke:#181818;stroke-width:0.55;" x1="3824.7" x2="3963.3" y1="250.815" y2="250.815"/><line style="stroke:#181818;stroke-width:0.55;" x1="3824.7" x2="3963.3" y1="259.615" y2="259.615"/></g><!--class ShowCommand--><g id="elem_ShowCommand"><rect codeLine="82" fill="#F1F1F1" height="52.8" id="ShowCommand" rx="2.75" ry="2.75" style="stroke:#181818;stroke-width:0.55;" width="143" x="4002.9" y="215.615"/><ellipse cx="4019.4" cy="233.215" fill="#ADD1B2" rx="12.1" ry="12.1" style="stroke:#181818;stroke-width:1.1;"/><path d="M4022.4422,228.6775 Q4022.6141,228.4369 4022.8203,228.3166 Q4023.0266,228.1963 4023.2672,228.1963 Q4023.6797,228.1963 4023.9375,228.4885 Q4024.1953,228.7635 4024.1953,229.4338 L4024.1953,231.0322 Q4024.1953,231.7025 4023.9375,231.9947 Q4023.6797,232.2869 4023.2672,232.2869 Q4022.8891,232.2869 4022.6656,232.0635 Q4022.4422,231.8572 4022.3219,231.29 Q4022.2703,230.8947 4022.0641,230.6885 Q4021.7031,230.276 4021.0328,230.0354 Q4020.3625,229.7947 4019.675,229.7947 Q4018.8328,229.7947 4018.1281,230.1557 Q4017.4406,230.5166 4016.8906,231.3416 Q4016.3578,232.1666 4016.3578,233.301 L4016.3578,234.5041 Q4016.3578,235.8619 4017.3375,236.7729 Q4018.3172,237.6666 4020.0703,237.6666 Q4021.1016,237.6666 4021.8234,237.3916 Q4022.2531,237.2197 4022.7172,236.7385 Q4023.0094,236.4463 4023.1641,236.3604 Q4023.3359,236.2744 4023.5594,236.2744 Q4023.9203,236.2744 4024.1953,236.5666 Q4024.4875,236.8416 4024.4875,237.2197 Q4024.4875,237.5979 4024.1094,238.0447 Q4023.5594,238.6807 4022.6828,239.0416 Q4021.4969,239.54 4020.0703,239.54 Q4018.4031,239.54 4017.0797,238.8525 Q4015.9969,238.3025 4015.2406,237.1338 Q4014.4844,235.9479 4014.4844,234.5385 L4014.4844,233.2666 Q4014.4844,231.8057 4015.1547,230.551 Q4015.8422,229.2791 4017.0453,228.6088 Q4018.2484,227.9213 4019.6063,227.9213 Q4020.4141,227.9213 4021.1188,228.1104 Q4021.8406,228.2822 4022.4422,228.6775 Z " fill="#000000"/><text fill="#000000" font-family="sans-serif" font-size="15.4" lengthAdjust="spacing" textLength="107.8" x="4034.8" y="239.5916">ShowCommand</text><line style="stroke:#181818;stroke-width:0.55;" x1="4004" x2="4144.8" y1="250.815" y2="250.815"/><line style="stroke:#181818;stroke-width:0.55;" x1="4004" x2="4144.8" y1="259.615" y2="259.615"/></g><!--class UpdateCommand--><g id="elem_UpdateCommand"><rect codeLine="83" fill="#F1F1F1" height="52.8" id="UpdateCommand" rx="2.75" ry="2.75" style="stroke:#181818;stroke-width:0.55;" width="155.1" x="4184.95" y="215.615"/><ellipse cx="4201.45" cy="233.215" fill="#ADD1B2" rx="12.1" ry="12.1" style="stroke:#181818;stroke-width:1.1;"/><path d="M4204.4922,228.6775 Q4204.6641,228.4369 4204.8703,228.3166 Q4205.0766,228.1963 4205.3172,228.1963 Q4205.7297,228.1963 4205.9875,228.4885 Q4206.2453,228.7635 4206.2453,229.4338 L4206.2453,231.0322 Q4206.2453,231.7025 4205.9875,231.9947 Q4205.7297,232.2869 4205.3172,232.2869 Q4204.9391,232.2869 4204.7156,232.0635 Q4204.4922,231.8572 4204.3719,231.29 Q4204.3203,230.8947 4204.1141,230.6885 Q4203.7531,230.276 4203.0828,230.0354 Q4202.4125,229.7947 4201.725,229.7947 Q4200.8828,229.7947 4200.1781,230.1557 Q4199.4906,230.5166 4198.9406,231.3416 Q4198.4078,232.1666 4198.4078,233.301 L4198.4078,234.5041 Q4198.4078,235.8619 4199.3875,236.7729 Q4200.3672,237.6666 4202.1203,237.6666 Q4203.1516,237.6666 4203.8734,237.3916 Q4204.3031,237.2197 4204.7672,236.7385 Q4205.0594,236.4463 4205.2141,236.3604 Q4205.3859,236.2744 4205.6094,236.2744 Q4205.9703,236.2744 4206.2453,236.5666 Q4206.5375,236.8416 4206.5375,237.2197 Q4206.5375,237.5979 4206.1594,238.0447 Q4205.6094,238.6807 4204.7328,239.0416 Q4203.5469,239.54 4202.1203,239.54 Q4200.4531,239.54 4199.1297,238.8525 Q4198.0469,238.3025 4197.2906,237.1338 Q4196.5344,235.9479 4196.5344,234.5385 L4196.5344,233.2666 Q4196.5344,231.8057 4197.2047,230.551 Q4197.8922,229.2791 4199.0953,228.6088 Q4200.2984,227.9213 4201.6563,227.9213 Q4202.4641,227.9213 4203.1688,228.1104 Q4203.8906,228.2822 4204.4922,228.6775 Z " fill="#000000"/><text fill="#000000" font-family="sans-serif" font-size="15.4" lengthAdjust="spacing" textLength="119.9" x="4216.85" y="239.5916">UpdateCommand</text><line style="stroke:#181818;stroke-width:0.55;" x1="4186.05" x2="4338.95" y1="250.815" y2="250.815"/><line style="stroke:#181818;stroke-width:0.55;" x1="4186.05" x2="4338.95" y1="259.615" y2="259.615"/></g><!--class Validation--><g id="elem_Validation"><rect codeLine="85" fill="#F1F1F1" height="52.8" id="Validation" rx="2.75" ry="2.75" style="stroke:#181818;stroke-width:0.55;" width="103.4" x="4213" y="96.815"/><ellipse cx="4229.5" cy="114.415" fill="#ADD1B2" rx="12.1" ry="12.1" style="stroke:#181818;stroke-width:1.1;"/><path d="M4232.5422,109.8775 Q4232.7141,109.6369 4232.9203,109.5166 Q4233.1266,109.3963 4233.3672,109.3963 Q4233.7797,109.3963 4234.0375,109.6885 Q4234.2953,109.9635 4234.2953,110.6338 L4234.2953,112.2322 Q4234.2953,112.9025 4234.0375,113.1947 Q4233.7797,113.4869 4233.3672,113.4869 Q4232.9891,113.4869 4232.7656,113.2635 Q4232.5422,113.0572 4232.4219,112.49 Q4232.3703,112.0947 4232.1641,111.8885 Q4231.8031,111.476 4231.1328,111.2354 Q4230.4625,110.9947 4229.775,110.9947 Q4228.9328,110.9947 4228.2281,111.3557 Q4227.5406,111.7166 4226.9906,112.5416 Q4226.4578,113.3666 4226.4578,114.501 L4226.4578,115.7041 Q4226.4578,117.0619 4227.4375,117.9729 Q4228.4172,118.8666 4230.1703,118.8666 Q4231.2016,118.8666 4231.9234,118.5916 Q4232.3531,118.4197 4232.8172,117.9385 Q4233.1094,117.6463 4233.2641,117.5604 Q4233.4359,117.4744 4233.6594,117.4744 Q4234.0203,117.4744 4234.2953,117.7666 Q4234.5875,118.0416 4234.5875,118.4197 Q4234.5875,118.7979 4234.2094,119.2447 Q4233.6594,119.8807 4232.7828,120.2416 Q4231.5969,120.74 4230.1703,120.74 Q4228.5031,120.74 4227.1797,120.0525 Q4226.0969,119.5025 4225.3406,118.3338 Q4224.5844,117.1479 4224.5844,115.7385 L4224.5844,114.4666 Q4224.5844,113.0057 4225.2547,111.751 Q4225.9422,110.4791 4227.1453,109.8088 Q4228.3484,109.1213 4229.7063,109.1213 Q4230.5141,109.1213 4231.2188,109.3104 Q4231.9406,109.4822 4232.5422,109.8775 Z " fill="#000000"/><text fill="#000000" font-family="sans-serif" font-size="15.4" lengthAdjust="spacing" textLength="68.2" x="4244.9" y="120.7916">Validation</text><line style="stroke:#181818;stroke-width:0.55;" x1="4214.1" x2="4315.3" y1="132.015" y2="132.015"/><line style="stroke:#181818;stroke-width:0.55;" x1="4214.1" x2="4315.3" y1="140.815" y2="140.815"/></g><!--class Arguments--><g id="elem_Arguments"><rect codeLine="86" fill="#F1F1F1" height="52.8" id="Arguments" rx="2.75" ry="2.75" style="stroke:#181818;stroke-width:0.55;" width="110" x="4354.9" y="96.815"/><ellipse cx="4371.4" cy="114.415" fill="#ADD1B2" rx="12.1" ry="12.1" style="stroke:#181818;stroke-width:1.1;"/><path d="M4374.4422,109.8775 Q4374.6141,109.6369 4374.8203,109.5166 Q4375.0266,109.3963 4375.2672,109.3963 Q4375.6797,109.3963 4375.9375,109.6885 Q4376.1953,109.9635 4376.1953,110.6338 L4376.1953,112.2322 Q4376.1953,112.9025 4375.9375,113.1947 Q4375.6797,113.4869 4375.2672,113.4869 Q4374.8891,113.4869 4374.6656,113.2635 Q4374.4422,113.0572 4374.3219,112.49 Q4374.2703,112.0947 4374.0641,111.8885 Q4373.7031,111.476 4373.0328,111.2354 Q4372.3625,110.9947 4371.675,110.9947 Q4370.8328,110.9947 4370.1281,111.3557 Q4369.4406,111.7166 4368.8906,112.5416 Q4368.3578,113.3666 4368.3578,114.501 L4368.3578,115.7041 Q4368.3578,117.0619 4369.3375,117.9729 Q4370.3172,118.8666 4372.0703,118.8666 Q4373.1016,118.8666 4373.8234,118.5916 Q4374.2531,118.4197 4374.7172,117.9385 Q4375.0094,117.6463 4375.1641,117.5604 Q4375.3359,117.4744 4375.5594,117.4744 Q4375.9203,117.4744 4376.1953,117.7666 Q4376.4875,118.0416 4376.4875,118.4197 Q4376.4875,118.7979 4376.1094,119.2447 Q4375.5594,119.8807 4374.6828,120.2416 Q4373.4969,120.74 4372.0703,120.74 Q4370.4031,120.74 4369.0797,120.0525 Q4367.9969,119.5025 4367.2406,118.3338 Q4366.4844,117.1479 4366.4844,115.7385 L4366.4844,114.4666 Q4366.4844,113.0057 4367.1547,111.751 Q4367.8422,110.4791 4369.0453,109.8088 Q4370.2484,109.1213 4371.6063,109.1213 Q4372.4141,109.1213 4373.1188,109.3104 Q4373.8406,109.4822 4374.4422,109.8775 Z " fill="#000000"/><text fill="#000000" font-family="sans-serif" font-size="15.4" lengthAdjust="spacing" textLength="74.8" x="4386.8" y="120.7916">Arguments</text><line style="stroke:#181818;stroke-width:0.55;" x1="4356" x2="4463.8" y1="132.015" y2="132.015"/><line style="stroke:#181818;stroke-width:0.55;" x1="4356" x2="4463.8" y1="140.815" y2="140.815"/></g><!--class Invoker--><g id="elem_Invoker"><rect codeLine="87" fill="#F1F1F1" height="52.8" id="Invoker" rx="2.75" ry="2.75" style="stroke:#181818;stroke-width:0.55;" width="85.8" x="4379.1" y="215.615"/><ellipse cx="4395.6" cy="233.215" fill="#ADD1B2" rx="12.1" ry="12.1" style="stroke:#181818;stroke-width:1.1;"/><path d="M4398.6422,228.6775 Q4398.8141,228.4369 4399.0203,228.3166 Q4399.2266,228.1963 4399.4672,228.1963 Q4399.8797,228.1963 4400.1375,228.4885 Q4400.3953,228.7635 4400.3953,229.4338 L4400.3953,231.0322 Q4400.3953,231.7025 4400.1375,231.9947 Q4399.8797,232.2869 4399.4672,232.2869 Q4399.0891,232.2869 4398.8656,232.0635 Q4398.6422,231.8572 4398.5219,231.29 Q4398.4703,230.8947 4398.2641,230.6885 Q4397.9031,230.276 4397.2328,230.0354 Q4396.5625,229.7947 4395.875,229.7947 Q4395.0328,229.7947 4394.3281,230.1557 Q4393.6406,230.5166 4393.0906,231.3416 Q4392.5578,232.1666 4392.5578,233.301 L4392.5578,234.5041 Q4392.5578,235.8619 4393.5375,236.7729 Q4394.5172,237.6666 4396.2703,237.6666 Q4397.3016,237.6666 4398.0234,237.3916 Q4398.4531,237.2197 4398.9172,236.7385 Q4399.2094,236.4463 4399.3641,236.3604 Q4399.5359,236.2744 4399.7594,236.2744 Q4400.1203,236.2744 4400.3953,236.5666 Q4400.6875,236.8416 4400.6875,237.2197 Q4400.6875,237.5979 4400.3094,238.0447 Q4399.7594,238.6807 4398.8828,239.0416 Q4397.6969,239.54 4396.2703,239.54 Q4394.6031,239.54 4393.2797,238.8525 Q4392.1969,238.3025 4391.4406,237.1338 Q4390.6844,235.9479 4390.6844,234.5385 L4390.6844,233.2666 Q4390.6844,231.8057 4391.3547,230.551 Q4392.0422,229.2791 4393.2453,228.6088 Q4394.4484,227.9213 4395.8063,227.9213 Q4396.6141,227.9213 4397.3188,228.1104 Q4398.0406,228.2822 4398.6422,228.6775 Z " fill="#000000"/><text fill="#000000" font-family="sans-serif" font-size="15.4" lengthAdjust="spacing" textLength="50.6" x="4411" y="239.5916">Invoker</text><line style="stroke:#181818;stroke-width:0.55;" x1="4380.2" x2="4463.8" y1="250.815" y2="250.815"/><line style="stroke:#181818;stroke-width:0.55;" x1="4380.2" x2="4463.8" y1="259.615" y2="259.615"/></g><!--class ExitException--><g id="elem_ExitException"><rect codeLine="120" fill="#F1F1F1" height="52.8" id="ExitException" rx="2.75" ry="2.75" style="stroke:#181818;stroke-width:0.55;" width="126.5" x="780.45" y="96.815"/><ellipse cx="796.95" cy="114.415" fill="#ADD1B2" rx="12.1" ry="12.1" style="stroke:#181818;stroke-width:1.1;"/><path d="M799.9922,109.8775 Q800.1641,109.6369 800.3703,109.5166 Q800.5766,109.3963 800.8172,109.3963 Q801.2297,109.3963 801.4875,109.6885 Q801.7453,109.9635 801.7453,110.6338 L801.7453,112.2322 Q801.7453,112.9025 801.4875,113.1947 Q801.2297,113.4869 800.8172,113.4869 Q800.4391,113.4869 800.2156,113.2635 Q799.9922,113.0572 799.8719,112.49 Q799.8203,112.0947 799.6141,111.8885 Q799.2531,111.476 798.5828,111.2354 Q797.9125,110.9947 797.225,110.9947 Q796.3828,110.9947 795.6781,111.3557 Q794.9906,111.7166 794.4406,112.5416 Q793.9078,113.3666 793.9078,114.501 L793.9078,115.7041 Q793.9078,117.0619 794.8875,117.9729 Q795.8672,118.8666 797.6203,118.8666 Q798.6516,118.8666 799.3734,118.5916 Q799.8031,118.4197 800.2672,117.9385 Q800.5594,117.6463 800.7141,117.5604 Q800.8859,117.4744 801.1094,117.4744 Q801.4703,117.4744 801.7453,117.7666 Q802.0375,118.0416 802.0375,118.4197 Q802.0375,118.7979 801.6594,119.2447 Q801.1094,119.8807 800.2328,120.2416 Q799.0469,120.74 797.6203,120.74 Q795.9531,120.74 794.6297,120.0525 Q793.5469,119.5025 792.7906,118.3338 Q792.0344,117.1479 792.0344,115.7385 L792.0344,114.4666 Q792.0344,113.0057 792.7047,111.751 Q793.3922,110.4791 794.5953,109.8088 Q795.7984,109.1213 797.1563,109.1213 Q797.9641,109.1213 798.6688,109.3104 Q799.3906,109.4822 799.9922,109.8775 Z " fill="#000000"/><text fill="#000000" font-family="sans-serif" font-size="15.4" lengthAdjust="spacing" textLength="91.3" x="812.35" y="120.7916">ExitException</text><line style="stroke:#181818;stroke-width:0.55;" x1="781.55" x2="905.85" y1="132.015" y2="132.015"/><line style="stroke:#181818;stroke-width:0.55;" x1="781.55" x2="905.85" y1="140.815" y2="140.815"/></g><!--class NonValidFileElementException--><g id="elem_NonValidFileElementException"><rect codeLine="121" fill="#F1F1F1" height="52.8" id="NonValidFileElementException" rx="2.75" ry="2.75" style="stroke:#181818;stroke-width:0.55;" width="245.3" x="496.65" y="96.815"/><ellipse cx="513.15" cy="114.415" fill="#ADD1B2" rx="12.1" ry="12.1" style="stroke:#181818;stroke-width:1.1;"/><path d="M516.1922,109.8775 Q516.3641,109.6369 516.5703,109.5166 Q516.7766,109.3963 517.0172,109.3963 Q517.4297,109.3963 517.6875,109.6885 Q517.9453,109.9635 517.9453,110.6338 L517.9453,112.2322 Q517.9453,112.9025 517.6875,113.1947 Q517.4297,113.4869 517.0172,113.4869 Q516.6391,113.4869 516.4156,113.2635 Q516.1922,113.0572 516.0719,112.49 Q516.0203,112.0947 515.8141,111.8885 Q515.4531,111.476 514.7828,111.2354 Q514.1125,110.9947 513.425,110.9947 Q512.5828,110.9947 511.8781,111.3557 Q511.1906,111.7166 510.6406,112.5416 Q510.1078,113.3666 510.1078,114.501 L510.1078,115.7041 Q510.1078,117.0619 511.0875,117.9729 Q512.0672,118.8666 513.8203,118.8666 Q514.8516,118.8666 515.5734,118.5916 Q516.0031,118.4197 516.4672,117.9385 Q516.7594,117.6463 516.9141,117.5604 Q517.0859,117.4744 517.3094,117.4744 Q517.6703,117.4744 517.9453,117.7666 Q518.2375,118.0416 518.2375,118.4197 Q518.2375,118.7979 517.8594,119.2447 Q517.3094,119.8807 516.4328,120.2416 Q515.2469,120.74 513.8203,120.74 Q512.1531,120.74 510.8297,120.0525 Q509.7469,119.5025 508.9906,118.3338 Q508.2344,117.1479 508.2344,115.7385 L508.2344,114.4666 Q508.2344,113.0057 508.9047,111.751 Q509.5922,110.4791 510.7953,109.8088 Q511.9984,109.1213 513.3563,109.1213 Q514.1641,109.1213 514.8688,109.3104 Q515.5906,109.4822 516.1922,109.8775 Z " fill="#000000"/><text fill="#000000" font-family="sans-serif" font-size="15.4" lengthAdjust="spacing" textLength="210.1" x="528.55" y="120.7916">NonValidFileElementException</text><line style="stroke:#181818;stroke-width:0.55;" x1="497.75" x2="740.85" y1="132.015" y2="132.015"/><line style="stroke:#181818;stroke-width:0.55;" x1="497.75" x2="740.85" y1="140.815" y2="140.815"/></g><!--reverse link Command to AddCommand--><g id="link_Command_AddCommand"><path codeLine="89" d="M2640.7177,125.9669 C2400.9837,132.8309 1426.04,163.442 1123.1,215.615 C1116.599,216.737 1109.889,218.167 1103.212,219.784 " fill="none" id="Command-backto-AddCommand" style="stroke:#181818;stroke-width:1.1;"/><polygon fill="#181818" points="2647.315,125.778,2637.2931,121.6632,2641.8173,125.9354,2637.545,130.4596,2647.315,125.778" style="stroke:#181818;stroke-width:1.1;"/></g><!--reverse link Command to AddIfMinCommand--><g id="link_Command_AddIfMinCommand"><path codeLine="90" d="M2640.8032,124.5384 C2456.8172,125.8584 1836.516,136.25 1326.6,215.615 C1320.187,216.616 1313.576,217.826 1306.965,219.168 " fill="none" id="Command-backto-AddIfMinCommand" style="stroke:#181818;stroke-width:1.1;"/><polygon fill="#181818" points="2647.403,124.491,2637.4717,120.1622,2641.9031,124.5305,2637.5348,128.962,2647.403,124.491" style="stroke:#181818;stroke-width:1.1;"/></g><!--reverse link Command to AverageCommand--><g id="link_Command_AverageCommand"><path codeLine="91" d="M2641.0358,125.5036 C2475.2438,129.3866 1957.659,146.546 1530.1,215.615 C1523.511,216.682 1516.713,217.958 1509.915,219.355 " fill="none" id="Command-backto-AverageCommand" style="stroke:#181818;stroke-width:1.1;"/><polygon fill="#181818" points="2647.634,125.349,2637.6337,121.182,2642.1355,125.4778,2637.8397,129.9796,2647.634,125.349" style="stroke:#181818;stroke-width:1.1;"/></g><!--reverse link Command to ClearCommand--><g id="link_Command_ClearCommand"><path codeLine="92" d="M2640.9169,126.1154 C2492.1969,131.2414 2065.195,150.836 1711.6,215.615 C1705.286,216.77 1698.785,218.167 1692.284,219.685 " fill="none" id="Command-backto-ClearCommand" style="stroke:#181818;stroke-width:1.1;"/><polygon fill="#181818" points="2647.513,125.888,2637.4673,121.8317,2642.0163,126.0775,2637.7704,130.6265,2647.513,125.888" style="stroke:#181818;stroke-width:1.1;"/></g><!--reverse link Command to CountGreaterThanHealthCommand--><g id="link_Command_CountGreaterThanHealthCommand"><path codeLine="93" d="M2641.0121,132.0194 C2527.8661,146.7374 2260.687,181.955 2031.7,215.615 C2025.276,216.561 2018.709,217.54 2012.087,218.541 " fill="none" id="Command-backto-CountGreaterThanHealthCommand" style="stroke:#181818;stroke-width:1.1;"/><polygon fill="#181818" points="2647.557,131.168,2637.1721,128.0818,2642.1029,131.8775,2638.3073,136.8083,2647.557,131.168" style="stroke:#181818;stroke-width:1.1;"/></g><!--reverse link Command to ExecuteScriptCommand--><g id="link_Command_ExecuteScriptCommand"><path codeLine="94" d="M2640.8034,136.9696 C2549.4154,156.3406 2367.728,194.858 2251.018,219.608 " fill="none" id="Command-backto-ExecuteScriptCommand" style="stroke:#181818;stroke-width:1.1;"/><polygon fill="#181818" points="2647.26,135.601,2636.6628,133.3495,2641.8795,136.7415,2638.4875,141.9582,2647.26,135.601" style="stroke:#181818;stroke-width:1.1;"/></g><!--reverse link Command to ExitCommand--><g id="link_Command_ExitCommand"><path codeLine="95" d="M2641.2469,144.2516 C2579.9109,164.8986 2485.175,196.772 2419.12,219.003 " fill="none" id="Command-backto-ExitCommand" style="stroke:#181818;stroke-width:1.1;"/><polygon fill="#181818" points="2647.502,142.146,2636.7156,141.1344,2642.2894,143.9007,2639.5231,149.4745,2647.502,142.146" style="stroke:#181818;stroke-width:1.1;"/></g><!--reverse link Command to FilterStartsWithNameCommand--><g id="link_Command_FilterStartsWithNameCommand"><path codeLine="96" d="M2670.5331,154.2819 C2651.1071,173.7079 2629.066,195.749 2609.552,215.263 " fill="none" id="Command-backto-FilterStartsWithNameCommand" style="stroke:#181818;stroke-width:1.1;"/><polygon fill="#181818" points="2675.2,149.615,2665.0884,153.5041,2671.3109,153.5041,2671.3109,159.7267,2675.2,149.615" style="stroke:#181818;stroke-width:1.1;"/></g><!--reverse link Command to HelpCommand--><g id="link_Command_HelpCommand"><path codeLine="97" d="M2730.4669,154.2819 C2749.8929,173.7079 2771.934,195.749 2791.448,215.263 " fill="none" id="Command-backto-HelpCommand" style="stroke:#181818;stroke-width:1.1;"/><polygon fill="#181818" points="2725.8,149.615,2729.6891,159.7267,2729.6891,153.5041,2735.9116,153.5041,2725.8,149.615" style="stroke:#181818;stroke-width:1.1;"/></g><!--reverse link Command to InfoCommand--><g id="link_Command_InfoCommand"><path codeLine="98" d="M2759.6856,148.1661 C2808.6246,167.8891 2875.191,194.726 2927.001,215.604 " fill="none" id="Command-backto-InfoCommand" style="stroke:#181818;stroke-width:1.1;"/><polygon fill="#181818" points="2753.564,145.699,2761.1016,153.4807,2758.6653,147.7549,2764.3911,145.3186,2753.564,145.699" style="stroke:#181818;stroke-width:1.1;"/></g><!--reverse link Command to RemoveByIdCommand--><g id="link_Command_RemoveByIdCommand"><path codeLine="99" d="M2759.7752,138.429 C2841.1092,157.811 2991.791,193.703 3093.695,217.98 " fill="none" id="Command-backto-RemoveByIdCommand" style="stroke:#181818;stroke-width:1.1;"/><polygon fill="#181818" points="2753.355,136.899,2761.9654,143.4741,2758.7052,138.174,2764.0053,134.9138,2753.355,136.899" style="stroke:#181818;stroke-width:1.1;"/></g><!--reverse link Command to RemoveGreaterCommand--><g id="link_Command_RemoveGreaterCommand"><path codeLine="100" d="M2760.18,132.3936 C2865.637,146.8366 3102.231,180.14 3305.5,215.615 C3311.726,216.704 3318.128,217.859 3324.574,219.047 " fill="none" id="Command-backto-RemoveGreaterCommand" style="stroke:#181818;stroke-width:1.1;"/><polygon fill="#181818" points="2753.641,131.498,2762.8524,137.2007,2759.0901,132.2443,2764.0465,128.4821,2753.641,131.498" style="stroke:#181818;stroke-width:1.1;"/></g><!--reverse link Command to RemoveLowerCommand--><g id="link_Command_RemoveLowerCommand"><path codeLine="101" d="M2760.1787,128.6116 C2895.3797,138.6876 3256.891,168.139 3560.7,215.615 C3567.113,216.616 3573.702,217.738 3580.335,218.926 " fill="none" id="Command-backto-RemoveLowerCommand" style="stroke:#181818;stroke-width:1.1;"/><polygon fill="#181818" points="2753.597,128.121,2763.1426,133.2446,2759.0818,128.5298,2763.7966,124.469,2753.597,128.121" style="stroke:#181818;stroke-width:1.1;"/></g><!--reverse link Command to SaveCommand--><g id="link_Command_SaveCommand"><path codeLine="102" d="M2760.1628,125.1877 C2920.2348,128.2127 3405.248,143.07 3804.9,215.615 C3810.917,216.704 3817.099,218.035 3823.281,219.498 " fill="none" id="Command-backto-SaveCommand" style="stroke:#181818;stroke-width:1.1;"/><polygon fill="#181818" points="2753.564,125.063,2763.3791,129.6493,2759.063,125.167,2763.5454,120.8509,2753.564,125.063" style="stroke:#181818;stroke-width:1.1;"/></g><!--reverse link Command to ShowCommand--><g id="link_Command_ShowCommand"><path codeLine="103" d="M2760.142,124.2835 C2936.483,124.9105 3512.036,133.478 3984.2,215.615 C3990.294,216.671 3996.553,217.98 4002.823,219.421 " fill="none" id="Command-backto-ShowCommand" style="stroke:#181818;stroke-width:1.1;"/><polygon fill="#181818" points="2753.542,124.26,2763.4263,128.6952,2759.042,124.2796,2763.4576,119.8953,2753.542,124.26" style="stroke:#181818;stroke-width:1.1;"/></g><!--reverse link Command to UpdateCommand--><g id="link_Command_UpdateCommand"><path codeLine="104" d="M2760.065,123.9096 C2951.586,123.3156 3618.978,127.978 4165.7,215.615 C4171.871,216.605 4178.229,217.815 4184.587,219.168 " fill="none" id="Command-backto-UpdateCommand" style="stroke:#181818;stroke-width:1.1;"/><polygon fill="#181818" points="2753.465,123.93,2763.3786,128.2993,2758.965,123.913,2763.3513,119.4994,2753.465,123.93" style="stroke:#181818;stroke-width:1.1;"/></g><!--SRC=[xLJ1ReCm3Btp5Vn0-mMxTAnRAwsjLBfrLukO4XKS50AqglRl2nkm9A1AathOeIV4Uo-svMURiCxXW5uEqL5__HtFIZaDH9O1iOl7IQ6C8KA_XRmeXQBmPumDW6MyukIW5KeTrGQ3544wa2X9lKW4dMsN02qGKfNOcla9er9X64cUAvVY3lBCKnqgL21LiUSgMKFcLB70DBUH9SN2HhQOYGeVpqisXhVrZb6ledQ942gdWZ0HjOsyvKn7xB1EfaJJmwwZyb1cIAheYwx44QNdjQ_yXyd4TCU1BOyipdRAf2o_BEAgQwPor3jRm4VnQpwQEjDD4pSzDV6XiqFMyNSei5msQTDh2pSSDt7Rzq_FtiQBXrHc_gneke15eAK78S_TwYIGwohxtU9wE9v0GRzPGZ9E-aq_CTsqRN8aPBh36ABgXardnXL8JjYFdsv3jaLWEebRslHZzNhfXN3IlwtImlQIgx7NyrE4kUA2YYv80AIQ24rLFTjjER5DF4Qi1Rr3odyUfTYinwz49wNxZVldD-xRFZ0ilP-v-vcxqPbRewg5FDxmw0tFLkFh7w_I5m00]--></g></svg>