<?xml version="1.0" encoding="us-ascii" standalone="no"?><svg xmlns="http://www.w3.org/2000/svg" xmlns:xlink="http://www.w3.org/1999/xlink" contentStyleType="text/css" height="412.5px" preserveAspectRatio="none" style="width:4897px;height:412px;background:#FFFFFF;" version="1.1" viewBox="0 0 4897 412" width="4897.2px" zoomAndPan="magnify"><defs/><g><!--cluster Timur--><g id="cluster_Timur"><path d="M9.35,6.615 L53.35,6.615 A4.125,4.125 0 0 1 56.1,9.365 L63.8,33.6982 L4886.75,33.6982 A2.75,2.75 0 0 1 4889.5,36.4482 L4889.5,402.065 A2.75,2.75 0 0 1 4886.75,404.815 L9.35,404.815 A2.75,2.75 0 0 1 6.6,402.065 L6.6,9.365 A2.75,2.75 0 0 1 9.35,6.615 " fill="none" style="stroke:#000000;stroke-width:1.6500000000000001;"/><line style="stroke:#000000;stroke-width:1.6500000000000001;" x1="6.6" x2="63.8" y1="33.6982" y2="33.6982"/><text fill="#000000" font-family="sans-serif" font-size="15.4" font-weight="bold" lengthAdjust="spacing" textLength="42.9" x="11" y="25.4332">Timur</text></g><!--cluster Command--><g id="cluster_Command"><path d="M1334.85,56.115 L1411.85,56.115 A4.125,4.125 0 0 1 1414.6,58.865 L1422.3,83.1982 L4860.35,83.1982 A2.75,2.75 0 0 1 4863.1,85.9482 L4863.1,283.265 A2.75,2.75 0 0 1 4860.35,286.015 L1334.85,286.015 A2.75,2.75 0 0 1 1332.1,283.265 L1332.1,58.865 A2.75,2.75 0 0 1 1334.85,56.115 " fill="none" style="stroke:#000000;stroke-width:1.6500000000000001;"/><line style="stroke:#000000;stroke-width:1.6500000000000001;" x1="1332.1" x2="1422.3" y1="83.1982" y2="83.1982"/><text fill="#000000" font-family="sans-serif" font-size="15.4" font-weight="bold" lengthAdjust="spacing" textLength="75.9" x="1336.5" y="74.9332">Command</text></g><!--cluster XML--><g id="cluster_XML"><path d="M950.95,56.115 L985.05,56.115 A4.125,4.125 0 0 1 987.8,58.865 L995.5,83.1982 L1302.95,83.1982 A2.75,2.75 0 0 1 1305.7,85.9482 L1305.7,164.465 A2.75,2.75 0 0 1 1302.95,167.215 L950.95,167.215 A2.75,2.75 0 0 1 948.2,164.465 L948.2,58.865 A2.75,2.75 0 0 1 950.95,56.115 " fill="none" style="stroke:#000000;stroke-width:1.6500000000000001;"/><line style="stroke:#000000;stroke-width:1.6500000000000001;" x1="948.2" x2="995.5" y1="83.1982" y2="83.1982"/><text fill="#000000" font-family="sans-serif" font-size="15.4" font-weight="bold" lengthAdjust="spacing" textLength="33" x="952.6" y="74.9332">XML</text></g><!--cluster Exceptions--><g id="cluster_Exceptions"><path d="M481.25,56.115 L568.15,56.115 A4.125,4.125 0 0 1 570.9,58.865 L578.6,83.1982 L919.05,83.1982 A2.75,2.75 0 0 1 921.8,85.9482 L921.8,283.265 A2.75,2.75 0 0 1 919.05,286.015 L481.25,286.015 A2.75,2.75 0 0 1 478.5,283.265 L478.5,58.865 A2.75,2.75 0 0 1 481.25,56.115 " fill="none" style="stroke:#000000;stroke-width:1.6500000000000001;"/><line style="stroke:#000000;stroke-width:1.6500000000000001;" x1="478.5" x2="578.6" y1="83.1982" y2="83.1982"/><text fill="#000000" font-family="sans-serif" font-size="15.4" font-weight="bold" lengthAdjust="spacing" textLength="85.8" x="482.9" y="74.9332">Exceptions</text></g><!--class AstartesCategory--><g id="elem_AstartesCategory"><rect codeLine="44" fill="#F1F1F1" height="52.8" id="AstartesCategory" rx="2.75" ry="2.75" style="stroke:#181818;stroke-width:0.55;" width="156.2" x="24.2" y="96.815"/><ellipse cx="40.7" cy="114.415" fill="#EB937F" rx="12.1" ry="12.1" style="stroke:#181818;stroke-width:1.1;"/><path d="M39.4453,115.2916 L39.4453,118.0416 L44.2063,118.0416 L44.2063,117.0275 Q44.2063,116.3572 44.4641,116.065 Q44.7391,115.7729 45.1516,115.7729 Q45.5641,115.7729 45.8219,116.065 Q46.0797,116.3572 46.0797,117.0275 L46.0797,119.915 L37.2797,119.915 Q36.5922,119.915 36.3,119.6572 Q36.025,119.3994 36.025,118.9697 Q36.025,118.5572 36.3172,118.2994 Q36.6094,118.0416 37.2797,118.0416 L37.5719,118.0416 L37.5719,110.7197 L37.2797,110.7197 Q36.5922,110.7197 36.3,110.4619 Q36.025,110.2041 36.025,109.7744 Q36.025,109.3619 36.3,109.1041 Q36.5922,108.8463 37.2797,108.8463 L45.6672,108.8463 L45.6672,111.6994 Q45.6672,112.3697 45.4094,112.6619 Q45.1688,112.9369 44.7391,112.9369 Q44.3266,112.9369 44.0688,112.6619 Q43.8109,112.3697 43.8109,111.6994 L43.8109,110.7197 L39.4453,110.7197 L39.4453,113.4182 L41.0781,113.4182 Q41.0781,112.6963 41.2156,112.49 Q41.5078,112.0432 42.0234,112.0432 Q42.4359,112.0432 42.6938,112.3354 Q42.9516,112.6104 42.9516,113.2807 L42.9516,115.4463 Q42.9516,116.0479 42.8141,116.2541 Q42.5219,116.6838 42.0234,116.6838 Q41.5078,116.6838 41.2156,116.2369 Q41.0781,116.0307 41.0781,115.2916 L39.4453,115.2916 Z " fill="#000000"/><text fill="#000000" font-family="sans-serif" font-size="15.4" lengthAdjust="spacing" textLength="121" x="56.1" y="120.7916">AstartesCategory</text><line style="stroke:#181818;stroke-width:0.55;" x1="25.3" x2="179.3" y1="132.015" y2="132.015"/><line style="stroke:#181818;stroke-width:0.55;" x1="25.3" x2="179.3" y1="140.815" y2="140.815"/></g><!--class Chapter--><g id="elem_Chapter"><rect codeLine="45" fill="#F1F1F1" height="52.8" id="Chapter" rx="2.75" ry="2.75" style="stroke:#181818;stroke-width:0.55;" width="91.3" x="219.45" y="96.815"/><ellipse cx="235.95" cy="114.415" fill="#ADD1B2" rx="12.1" ry="12.1" style="stroke:#181818;stroke-width:1.1;"/><path d="M238.9922,109.8775 Q239.1641,109.6369 239.3703,109.5166 Q239.5766,109.3963 239.8172,109.3963 Q240.2297,109.3963 240.4875,109.6885 Q240.7453,109.9635 240.7453,110.6338 L240.7453,112.2322 Q240.7453,112.9025 240.4875,113.1947 Q240.2297,113.4869 239.8172,113.4869 Q239.4391,113.4869 239.2156,113.2635 Q238.9922,113.0572 238.8719,112.49 Q238.8203,112.0947 238.6141,111.8885 Q238.2531,111.476 237.5828,111.2354 Q236.9125,110.9947 236.225,110.9947 Q235.3828,110.9947 234.6781,111.3557 Q233.9906,111.7166 233.4406,112.5416 Q232.9078,113.3666 232.9078,114.501 L232.9078,115.7041 Q232.9078,117.0619 233.8875,117.9729 Q234.8672,118.8666 236.6203,118.8666 Q237.6516,118.8666 238.3734,118.5916 Q238.8031,118.4197 239.2672,117.9385 Q239.5594,117.6463 239.7141,117.5604 Q239.8859,117.4744 240.1094,117.4744 Q240.4703,117.4744 240.7453,117.7666 Q241.0375,118.0416 241.0375,118.4197 Q241.0375,118.7979 240.6594,119.2447 Q240.1094,119.8807 239.2328,120.2416 Q238.0469,120.74 236.6203,120.74 Q234.9531,120.74 233.6297,120.0525 Q232.5469,119.5025 231.7906,118.3338 Q231.0344,117.1479 231.0344,115.7385 L231.0344,114.4666 Q231.0344,113.0057 231.7047,111.751 Q232.3922,110.4791 233.5953,109.8088 Q234.7984,109.1213 236.1563,109.1213 Q236.9641,109.1213 237.6688,109.3104 Q238.3906,109.4822 238.9922,109.8775 Z " fill="#000000"/><text fill="#000000" font-family="sans-serif" font-size="15.4" lengthAdjust="spacing" textLength="56.1" x="251.35" y="120.7916">Chapter</text><line style="stroke:#181818;stroke-width:0.55;" x1="220.55" x2="309.65" y1="132.015" y2="132.015"/><line style="stroke:#181818;stroke-width:0.55;" x1="220.55" x2="309.65" y1="140.815" y2="140.815"/></g><!--class ClientData--><g id="elem_ClientData"><rect codeLine="46" fill="#F1F1F1" height="52.8" id="ClientData" rx="2.75" ry="2.75" style="stroke:#181818;stroke-width:0.55;" width="107.8" x="349.8" y="96.815"/><ellipse cx="366.3" cy="114.415" fill="#ADD1B2" rx="12.1" ry="12.1" style="stroke:#181818;stroke-width:1.1;"/><path d="M369.3422,109.8775 Q369.5141,109.6369 369.7203,109.5166 Q369.9266,109.3963 370.1672,109.3963 Q370.5797,109.3963 370.8375,109.6885 Q371.0953,109.9635 371.0953,110.6338 L371.0953,112.2322 Q371.0953,112.9025 370.8375,113.1947 Q370.5797,113.4869 370.1672,113.4869 Q369.7891,113.4869 369.5656,113.2635 Q369.3422,113.0572 369.2219,112.49 Q369.1703,112.0947 368.9641,111.8885 Q368.6031,111.476 367.9328,111.2354 Q367.2625,110.9947 366.575,110.9947 Q365.7328,110.9947 365.0281,111.3557 Q364.3406,111.7166 363.7906,112.5416 Q363.2578,113.3666 363.2578,114.501 L363.2578,115.7041 Q363.2578,117.0619 364.2375,117.9729 Q365.2172,118.8666 366.9703,118.8666 Q368.0016,118.8666 368.7234,118.5916 Q369.1531,118.4197 369.6172,117.9385 Q369.9094,117.6463 370.0641,117.5604 Q370.2359,117.4744 370.4594,117.4744 Q370.8203,117.4744 371.0953,117.7666 Q371.3875,118.0416 371.3875,118.4197 Q371.3875,118.7979 371.0094,119.2447 Q370.4594,119.8807 369.5828,120.2416 Q368.3969,120.74 366.9703,120.74 Q365.3031,120.74 363.9797,120.0525 Q362.8969,119.5025 362.1406,118.3338 Q361.3844,117.1479 361.3844,115.7385 L361.3844,114.4666 Q361.3844,113.0057 362.0547,111.751 Q362.7422,110.4791 363.9453,109.8088 Q365.1484,109.1213 366.5063,109.1213 Q367.3141,109.1213 368.0188,109.3104 Q368.7406,109.4822 369.3422,109.8775 Z " fill="#000000"/><text fill="#000000" font-family="sans-serif" font-size="15.4" lengthAdjust="spacing" textLength="72.6" x="381.7" y="120.7916">ClientData</text><line style="stroke:#181818;stroke-width:0.55;" x1="350.9" x2="456.5" y1="132.015" y2="132.015"/><line style="stroke:#181818;stroke-width:0.55;" x1="350.9" x2="456.5" y1="140.815" y2="140.815"/></g><!--class Coordinates--><g id="elem_Coordinates"><rect codeLine="47" fill="#F1F1F1" height="52.8" id="Coordinates" rx="2.75" ry="2.75" style="stroke:#181818;stroke-width:0.55;" width="119.9" x="42.35" y="215.615"/><ellipse cx="58.85" cy="233.215" fill="#ADD1B2" rx="12.1" ry="12.1" style="stroke:#181818;stroke-width:1.1;"/><path d="M61.8922,228.6775 Q62.0641,228.4369 62.2703,228.3166 Q62.4766,228.1963 62.7172,228.1963 Q63.1297,228.1963 63.3875,228.4885 Q63.6453,228.7635 63.6453,229.4338 L63.6453,231.0322 Q63.6453,231.7025 63.3875,231.9947 Q63.1297,232.2869 62.7172,232.2869 Q62.3391,232.2869 62.1156,232.0635 Q61.8922,231.8572 61.7719,231.29 Q61.7203,230.8947 61.5141,230.6885 Q61.1531,230.276 60.4828,230.0354 Q59.8125,229.7947 59.125,229.7947 Q58.2828,229.7947 57.5781,230.1557 Q56.8906,230.5166 56.3406,231.3416 Q55.8078,232.1666 55.8078,233.301 L55.8078,234.5041 Q55.8078,235.8619 56.7875,236.7729 Q57.7672,237.6666 59.5203,237.6666 Q60.5516,237.6666 61.2734,237.3916 Q61.7031,237.2197 62.1672,236.7385 Q62.4594,236.4463 62.6141,236.3604 Q62.7859,236.2744 63.0094,236.2744 Q63.3703,236.2744 63.6453,236.5666 Q63.9375,236.8416 63.9375,237.2197 Q63.9375,237.5979 63.5594,238.0447 Q63.0094,238.6807 62.1328,239.0416 Q60.9469,239.54 59.5203,239.54 Q57.8531,239.54 56.5297,238.8525 Q55.4469,238.3025 54.6906,237.1338 Q53.9344,235.9479 53.9344,234.5385 L53.9344,233.2666 Q53.9344,231.8057 54.6047,230.551 Q55.2922,229.2791 56.4953,228.6088 Q57.6984,227.9213 59.0563,227.9213 Q59.8641,227.9213 60.5688,228.1104 Q61.2906,228.2822 61.8922,228.6775 Z " fill="#000000"/><text fill="#000000" font-family="sans-serif" font-size="15.4" lengthAdjust="spacing" textLength="84.7" x="74.25" y="239.5916">Coordinates</text><line style="stroke:#181818;stroke-width:0.55;" x1="43.45" x2="161.15" y1="250.815" y2="250.815"/><line style="stroke:#181818;stroke-width:0.55;" x1="43.45" x2="161.15" y1="259.615" y2="259.615"/></g><!--class Id--><g id="elem_Id"><rect codeLine="48" fill="#F1F1F1" height="52.8" id="Id" rx="2.75" ry="2.75" style="stroke:#181818;stroke-width:0.55;" width="47.3" x="200.75" y="215.615"/><ellipse cx="217.25" cy="233.215" fill="#ADD1B2" rx="12.1" ry="12.1" style="stroke:#181818;stroke-width:1.1;"/><path d="M220.2922,228.6775 Q220.4641,228.4369 220.6703,228.3166 Q220.8766,228.1963 221.1172,228.1963 Q221.5297,228.1963 221.7875,228.4885 Q222.0453,228.7635 222.0453,229.4338 L222.0453,231.0322 Q222.0453,231.7025 221.7875,231.9947 Q221.5297,232.2869 221.1172,232.2869 Q220.7391,232.2869 220.5156,232.0635 Q220.2922,231.8572 220.1719,231.29 Q220.1203,230.8947 219.9141,230.6885 Q219.5531,230.276 218.8828,230.0354 Q218.2125,229.7947 217.525,229.7947 Q216.6828,229.7947 215.9781,230.1557 Q215.2906,230.5166 214.7406,231.3416 Q214.2078,232.1666 214.2078,233.301 L214.2078,234.5041 Q214.2078,235.8619 215.1875,236.7729 Q216.1672,237.6666 217.9203,237.6666 Q218.9516,237.6666 219.6734,237.3916 Q220.1031,237.2197 220.5672,236.7385 Q220.8594,236.4463 221.0141,236.3604 Q221.1859,236.2744 221.4094,236.2744 Q221.7703,236.2744 222.0453,236.5666 Q222.3375,236.8416 222.3375,237.2197 Q222.3375,237.5979 221.9594,238.0447 Q221.4094,238.6807 220.5328,239.0416 Q219.3469,239.54 217.9203,239.54 Q216.2531,239.54 214.9297,238.8525 Q213.8469,238.3025 213.0906,237.1338 Q212.3344,235.9479 212.3344,234.5385 L212.3344,233.2666 Q212.3344,231.8057 213.0047,230.551 Q213.6922,229.2791 214.8953,228.6088 Q216.0984,227.9213 217.4563,227.9213 Q218.2641,227.9213 218.9688,228.1104 Q219.6906,228.2822 220.2922,228.6775 Z " fill="#000000"/><text fill="#000000" font-family="sans-serif" font-size="15.4" lengthAdjust="spacing" textLength="12.1" x="232.65" y="239.5916">Id</text><line style="stroke:#181818;stroke-width:0.55;" x1="201.85" x2="246.95" y1="250.815" y2="250.815"/><line style="stroke:#181818;stroke-width:0.55;" x1="201.85" x2="246.95" y1="259.615" y2="259.615"/></g><!--class OpenedFileSet--><g id="elem_OpenedFileSet"><rect codeLine="49" fill="#F1F1F1" height="52.8" id="OpenedFileSet" rx="2.75" ry="2.75" style="stroke:#181818;stroke-width:0.55;" width="139.7" x="286.55" y="215.615"/><ellipse cx="303.05" cy="233.215" fill="#ADD1B2" rx="12.1" ry="12.1" style="stroke:#181818;stroke-width:1.1;"/><path d="M306.0922,228.6775 Q306.2641,228.4369 306.4703,228.3166 Q306.6766,228.1963 306.9172,228.1963 Q307.3297,228.1963 307.5875,228.4885 Q307.8453,228.7635 307.8453,229.4338 L307.8453,231.0322 Q307.8453,231.7025 307.5875,231.9947 Q307.3297,232.2869 306.9172,232.2869 Q306.5391,232.2869 306.3156,232.0635 Q306.0922,231.8572 305.9719,231.29 Q305.9203,230.8947 305.7141,230.6885 Q305.3531,230.276 304.6828,230.0354 Q304.0125,229.7947 303.325,229.7947 Q302.4828,229.7947 301.7781,230.1557 Q301.0906,230.5166 300.5406,231.3416 Q300.0078,232.1666 300.0078,233.301 L300.0078,234.5041 Q300.0078,235.8619 300.9875,236.7729 Q301.9672,237.6666 303.7203,237.6666 Q304.7516,237.6666 305.4734,237.3916 Q305.9031,237.2197 306.3672,236.7385 Q306.6594,236.4463 306.8141,236.3604 Q306.9859,236.2744 307.2094,236.2744 Q307.5703,236.2744 307.8453,236.5666 Q308.1375,236.8416 308.1375,237.2197 Q308.1375,237.5979 307.7594,238.0447 Q307.2094,238.6807 306.3328,239.0416 Q305.1469,239.54 303.7203,239.54 Q302.0531,239.54 300.7297,238.8525 Q299.6469,238.3025 298.8906,237.1338 Q298.1344,235.9479 298.1344,234.5385 L298.1344,233.2666 Q298.1344,231.8057 298.8047,230.551 Q299.4922,229.2791 300.6953,228.6088 Q301.8984,227.9213 303.2563,227.9213 Q304.0641,227.9213 304.7688,228.1104 Q305.4906,228.2822 306.0922,228.6775 Z " fill="#000000"/><text fill="#000000" font-family="sans-serif" font-size="15.4" lengthAdjust="spacing" textLength="104.5" x="318.45" y="239.5916">OpenedFileSet</text><line style="stroke:#181818;stroke-width:0.55;" x1="287.65" x2="425.15" y1="250.815" y2="250.815"/><line style="stroke:#181818;stroke-width:0.55;" x1="287.65" x2="425.15" y1="259.615" y2="259.615"/></g><!--class SpaceMarine--><g id="elem_SpaceMarine"><rect codeLine="50" fill="#F1F1F1" height="52.8" id="SpaceMarine" rx="2.75" ry="2.75" style="stroke:#181818;stroke-width:0.55;" width="126.5" x="39.05" y="334.415"/><ellipse cx="55.55" cy="352.015" fill="#ADD1B2" rx="12.1" ry="12.1" style="stroke:#181818;stroke-width:1.1;"/><path d="M58.5922,347.4775 Q58.7641,347.2369 58.9703,347.1166 Q59.1766,346.9963 59.4172,346.9963 Q59.8297,346.9963 60.0875,347.2885 Q60.3453,347.5635 60.3453,348.2338 L60.3453,349.8322 Q60.3453,350.5025 60.0875,350.7947 Q59.8297,351.0869 59.4172,351.0869 Q59.0391,351.0869 58.8156,350.8635 Q58.5922,350.6572 58.4719,350.09 Q58.4203,349.6947 58.2141,349.4885 Q57.8531,349.076 57.1828,348.8354 Q56.5125,348.5947 55.825,348.5947 Q54.9828,348.5947 54.2781,348.9557 Q53.5906,349.3166 53.0406,350.1416 Q52.5078,350.9666 52.5078,352.101 L52.5078,353.3041 Q52.5078,354.6619 53.4875,355.5729 Q54.4672,356.4666 56.2203,356.4666 Q57.2516,356.4666 57.9734,356.1916 Q58.4031,356.0197 58.8672,355.5385 Q59.1594,355.2463 59.3141,355.1604 Q59.4859,355.0744 59.7094,355.0744 Q60.0703,355.0744 60.3453,355.3666 Q60.6375,355.6416 60.6375,356.0197 Q60.6375,356.3979 60.2594,356.8447 Q59.7094,357.4807 58.8328,357.8416 Q57.6469,358.34 56.2203,358.34 Q54.5531,358.34 53.2297,357.6525 Q52.1469,357.1025 51.3906,355.9338 Q50.6344,354.7479 50.6344,353.3385 L50.6344,352.0666 Q50.6344,350.6057 51.3047,349.351 Q51.9922,348.0791 53.1953,347.4088 Q54.3984,346.7213 55.7563,346.7213 Q56.5641,346.7213 57.2688,346.9104 Q57.9906,347.0822 58.5922,347.4775 Z " fill="#000000"/><text fill="#000000" font-family="sans-serif" font-size="15.4" lengthAdjust="spacing" textLength="91.3" x="70.95" y="358.3916">SpaceMarine</text><line style="stroke:#181818;stroke-width:0.55;" x1="40.15" x2="164.45" y1="369.615" y2="369.615"/><line style="stroke:#181818;stroke-width:0.55;" x1="40.15" x2="164.45" y1="378.415" y2="378.415"/></g><!--class StreamReader--><g id="elem_StreamReader"><rect codeLine="51" fill="#F1F1F1" height="52.8" id="StreamReader" rx="2.75" ry="2.75" style="stroke:#181818;stroke-width:0.55;" width="136.4" x="204.6" y="334.415"/><ellipse cx="221.1" cy="352.015" fill="#ADD1B2" rx="12.1" ry="12.1" style="stroke:#181818;stroke-width:1.1;"/><path d="M224.1422,347.4775 Q224.3141,347.2369 224.5203,347.1166 Q224.7266,346.9963 224.9672,346.9963 Q225.3797,346.9963 225.6375,347.2885 Q225.8953,347.5635 225.8953,348.2338 L225.8953,349.8322 Q225.8953,350.5025 225.6375,350.7947 Q225.3797,351.0869 224.9672,351.0869 Q224.5891,351.0869 224.3656,350.8635 Q224.1422,350.6572 224.0219,350.09 Q223.9703,349.6947 223.7641,349.4885 Q223.4031,349.076 222.7328,348.8354 Q222.0625,348.5947 221.375,348.5947 Q220.5328,348.5947 219.8281,348.9557 Q219.1406,349.3166 218.5906,350.1416 Q218.0578,350.9666 218.0578,352.101 L218.0578,353.3041 Q218.0578,354.6619 219.0375,355.5729 Q220.0172,356.4666 221.7703,356.4666 Q222.8016,356.4666 223.5234,356.1916 Q223.9531,356.0197 224.4172,355.5385 Q224.7094,355.2463 224.8641,355.1604 Q225.0359,355.0744 225.2594,355.0744 Q225.6203,355.0744 225.8953,355.3666 Q226.1875,355.6416 226.1875,356.0197 Q226.1875,356.3979 225.8094,356.8447 Q225.2594,357.4807 224.3828,357.8416 Q223.1969,358.34 221.7703,358.34 Q220.1031,358.34 218.7797,357.6525 Q217.6969,357.1025 216.9406,355.9338 Q216.1844,354.7479 216.1844,353.3385 L216.1844,352.0666 Q216.1844,350.6057 216.8547,349.351 Q217.5422,348.0791 218.7453,347.4088 Q219.9484,346.7213 221.3063,346.7213 Q222.1141,346.7213 222.8188,346.9104 Q223.5406,347.0822 224.1422,347.4775 Z " fill="#000000"/><text fill="#000000" font-family="sans-serif" font-size="15.4" lengthAdjust="spacing" textLength="101.2" x="236.5" y="358.3916">StreamReader</text><line style="stroke:#181818;stroke-width:0.55;" x1="205.7" x2="339.9" y1="369.615" y2="369.615"/><line style="stroke:#181818;stroke-width:0.55;" x1="205.7" x2="339.9" y1="378.415" y2="378.415"/></g><!--class Command--><g id="elem_Command"><rect codeLine="3" fill="#F1F1F1" height="52.8" id="Command" rx="2.75" ry="2.75" style="stroke:#181818;stroke-width:0.55;" width="105.6" x="3028.3" y="96.815"/><ellipse cx="3044.8" cy="114.415" fill="#B4A7E5" rx="12.1" ry="12.1" style="stroke:#181818;stroke-width:1.1;"/><path d="M3045.8484,110.7197 L3045.8484,118.0416 L3047.7391,118.0416 Q3048.4094,118.0416 3048.7016,118.2994 Q3048.9938,118.5572 3048.9938,118.9869 Q3048.9938,119.3994 3048.7016,119.6572 Q3048.4094,119.915 3047.7391,119.915 L3042.0844,119.915 Q3041.4141,119.915 3041.1219,119.6572 Q3040.8297,119.3994 3040.8297,118.9697 Q3040.8297,118.5572 3041.1219,118.2994 Q3041.4141,118.0416 3042.0844,118.0416 L3043.975,118.0416 L3043.975,110.7197 L3042.0844,110.7197 Q3041.4141,110.7197 3041.1219,110.4619 Q3040.8297,110.2041 3040.8297,109.7744 Q3040.8297,109.3619 3041.1219,109.1041 Q3041.4141,108.8463 3042.0844,108.8463 L3047.7391,108.8463 Q3048.4094,108.8463 3048.7016,109.1041 Q3048.9938,109.3619 3048.9938,109.7744 Q3048.9938,110.2041 3048.7016,110.4619 Q3048.4094,110.7197 3047.7391,110.7197 L3045.8484,110.7197 Z " fill="#000000"/><text fill="#000000" font-family="sans-serif" font-size="15.4" font-style="italic" lengthAdjust="spacing" textLength="70.4" x="3060.2" y="120.7916">Command</text><line style="stroke:#181818;stroke-width:0.55;" x1="3029.4" x2="3132.8" y1="132.015" y2="132.015"/><line style="stroke:#181818;stroke-width:0.55;" x1="3029.4" x2="3132.8" y1="140.815" y2="140.815"/></g><!--class AddCommand--><g id="elem_AddCommand"><rect codeLine="4" fill="#F1F1F1" height="52.8" id="AddCommand" rx="2.75" ry="2.75" style="stroke:#181818;stroke-width:0.55;" width="133.1" x="1350.25" y="215.615"/><ellipse cx="1366.75" cy="233.215" fill="#ADD1B2" rx="12.1" ry="12.1" style="stroke:#181818;stroke-width:1.1;"/><path d="M1369.7922,228.6775 Q1369.9641,228.4369 1370.1703,228.3166 Q1370.3766,228.1963 1370.6172,228.1963 Q1371.0297,228.1963 1371.2875,228.4885 Q1371.5453,228.7635 1371.5453,229.4338 L1371.5453,231.0322 Q1371.5453,231.7025 1371.2875,231.9947 Q1371.0297,232.2869 1370.6172,232.2869 Q1370.2391,232.2869 1370.0156,232.0635 Q1369.7922,231.8572 1369.6719,231.29 Q1369.6203,230.8947 1369.4141,230.6885 Q1369.0531,230.276 1368.3828,230.0354 Q1367.7125,229.7947 1367.025,229.7947 Q1366.1828,229.7947 1365.4781,230.1557 Q1364.7906,230.5166 1364.2406,231.3416 Q1363.7078,232.1666 1363.7078,233.301 L1363.7078,234.5041 Q1363.7078,235.8619 1364.6875,236.7729 Q1365.6672,237.6666 1367.4203,237.6666 Q1368.4516,237.6666 1369.1734,237.3916 Q1369.6031,237.2197 1370.0672,236.7385 Q1370.3594,236.4463 1370.5141,236.3604 Q1370.6859,236.2744 1370.9094,236.2744 Q1371.2703,236.2744 1371.5453,236.5666 Q1371.8375,236.8416 1371.8375,237.2197 Q1371.8375,237.5979 1371.4594,238.0447 Q1370.9094,238.6807 1370.0328,239.0416 Q1368.8469,239.54 1367.4203,239.54 Q1365.7531,239.54 1364.4297,238.8525 Q1363.3469,238.3025 1362.5906,237.1338 Q1361.8344,235.9479 1361.8344,234.5385 L1361.8344,233.2666 Q1361.8344,231.8057 1362.5047,230.551 Q1363.1922,229.2791 1364.3953,228.6088 Q1365.5984,227.9213 1366.9563,227.9213 Q1367.7641,227.9213 1368.4688,228.1104 Q1369.1906,228.2822 1369.7922,228.6775 Z " fill="#000000"/><text fill="#000000" font-family="sans-serif" font-size="15.4" lengthAdjust="spacing" textLength="97.9" x="1382.15" y="239.5916">AddCommand</text><line style="stroke:#181818;stroke-width:0.55;" x1="1351.35" x2="1482.25" y1="250.815" y2="250.815"/><line style="stroke:#181818;stroke-width:0.55;" x1="1351.35" x2="1482.25" y1="259.615" y2="259.615"/></g><!--class AddIfMinCommand--><g id="elem_AddIfMinCommand"><rect codeLine="5" fill="#F1F1F1" height="52.8" id="AddIfMinCommand" rx="2.75" ry="2.75" style="stroke:#181818;stroke-width:0.55;" width="165" x="1522.4" y="215.615"/><ellipse cx="1538.9" cy="233.215" fill="#ADD1B2" rx="12.1" ry="12.1" style="stroke:#181818;stroke-width:1.1;"/><path d="M1541.9422,228.6775 Q1542.1141,228.4369 1542.3203,228.3166 Q1542.5266,228.1963 1542.7672,228.1963 Q1543.1797,228.1963 1543.4375,228.4885 Q1543.6953,228.7635 1543.6953,229.4338 L1543.6953,231.0322 Q1543.6953,231.7025 1543.4375,231.9947 Q1543.1797,232.2869 1542.7672,232.2869 Q1542.3891,232.2869 1542.1656,232.0635 Q1541.9422,231.8572 1541.8219,231.29 Q1541.7703,230.8947 1541.5641,230.6885 Q1541.2031,230.276 1540.5328,230.0354 Q1539.8625,229.7947 1539.175,229.7947 Q1538.3328,229.7947 1537.6281,230.1557 Q1536.9406,230.5166 1536.3906,231.3416 Q1535.8578,232.1666 1535.8578,233.301 L1535.8578,234.5041 Q1535.8578,235.8619 1536.8375,236.7729 Q1537.8172,237.6666 1539.5703,237.6666 Q1540.6016,237.6666 1541.3234,237.3916 Q1541.7531,237.2197 1542.2172,236.7385 Q1542.5094,236.4463 1542.6641,236.3604 Q1542.8359,236.2744 1543.0594,236.2744 Q1543.4203,236.2744 1543.6953,236.5666 Q1543.9875,236.8416 1543.9875,237.2197 Q1543.9875,237.5979 1543.6094,238.0447 Q1543.0594,238.6807 1542.1828,239.0416 Q1540.9969,239.54 1539.5703,239.54 Q1537.9031,239.54 1536.5797,238.8525 Q1535.4969,238.3025 1534.7406,237.1338 Q1533.9844,235.9479 1533.9844,234.5385 L1533.9844,233.2666 Q1533.9844,231.8057 1534.6547,230.551 Q1535.3422,229.2791 1536.5453,228.6088 Q1537.7484,227.9213 1539.1063,227.9213 Q1539.9141,227.9213 1540.6188,228.1104 Q1541.3406,228.2822 1541.9422,228.6775 Z " fill="#000000"/><text fill="#000000" font-family="sans-serif" font-size="15.4" lengthAdjust="spacing" textLength="129.8" x="1554.3" y="239.5916">AddIfMinCommand</text><line style="stroke:#181818;stroke-width:0.55;" x1="1523.5" x2="1686.3" y1="250.815" y2="250.815"/><line style="stroke:#181818;stroke-width:0.55;" x1="1523.5" x2="1686.3" y1="259.615" y2="259.615"/></g><!--class AverageCommand--><g id="elem_AverageCommand"><rect codeLine="6" fill="#F1F1F1" height="52.8" id="AverageCommand" rx="2.75" ry="2.75" style="stroke:#181818;stroke-width:0.55;" width="163.9" x="1726.45" y="215.615"/><ellipse cx="1742.95" cy="233.215" fill="#ADD1B2" rx="12.1" ry="12.1" style="stroke:#181818;stroke-width:1.1;"/><path d="M1745.9922,228.6775 Q1746.1641,228.4369 1746.3703,228.3166 Q1746.5766,228.1963 1746.8172,228.1963 Q1747.2297,228.1963 1747.4875,228.4885 Q1747.7453,228.7635 1747.7453,229.4338 L1747.7453,231.0322 Q1747.7453,231.7025 1747.4875,231.9947 Q1747.2297,232.2869 1746.8172,232.2869 Q1746.4391,232.2869 1746.2156,232.0635 Q1745.9922,231.8572 1745.8719,231.29 Q1745.8203,230.8947 1745.6141,230.6885 Q1745.2531,230.276 1744.5828,230.0354 Q1743.9125,229.7947 1743.225,229.7947 Q1742.3828,229.7947 1741.6781,230.1557 Q1740.9906,230.5166 1740.4406,231.3416 Q1739.9078,232.1666 1739.9078,233.301 L1739.9078,234.5041 Q1739.9078,235.8619 1740.8875,236.7729 Q1741.8672,237.6666 1743.6203,237.6666 Q1744.6516,237.6666 1745.3734,237.3916 Q1745.8031,237.2197 1746.2672,236.7385 Q1746.5594,236.4463 1746.7141,236.3604 Q1746.8859,236.2744 1747.1094,236.2744 Q1747.4703,236.2744 1747.7453,236.5666 Q1748.0375,236.8416 1748.0375,237.2197 Q1748.0375,237.5979 1747.6594,238.0447 Q1747.1094,238.6807 1746.2328,239.0416 Q1745.0469,239.54 1743.6203,239.54 Q1741.9531,239.54 1740.6297,238.8525 Q1739.5469,238.3025 1738.7906,237.1338 Q1738.0344,235.9479 1738.0344,234.5385 L1738.0344,233.2666 Q1738.0344,231.8057 1738.7047,230.551 Q1739.3922,229.2791 1740.5953,228.6088 Q1741.7984,227.9213 1743.1563,227.9213 Q1743.9641,227.9213 1744.6688,228.1104 Q1745.3906,228.2822 1745.9922,228.6775 Z " fill="#000000"/><text fill="#000000" font-family="sans-serif" font-size="15.4" lengthAdjust="spacing" textLength="128.7" x="1758.35" y="239.5916">AverageCommand</text><line style="stroke:#181818;stroke-width:0.55;" x1="1727.55" x2="1889.25" y1="250.815" y2="250.815"/><line style="stroke:#181818;stroke-width:0.55;" x1="1727.55" x2="1889.25" y1="259.615" y2="259.615"/></g><!--class ClearCommand--><g id="elem_ClearCommand"><rect codeLine="7" fill="#F1F1F1" height="52.8" id="ClearCommand" rx="2.75" ry="2.75" style="stroke:#181818;stroke-width:0.55;" width="143" x="1929.4" y="215.615"/><ellipse cx="1945.9" cy="233.215" fill="#ADD1B2" rx="12.1" ry="12.1" style="stroke:#181818;stroke-width:1.1;"/><path d="M1948.9422,228.6775 Q1949.1141,228.4369 1949.3203,228.3166 Q1949.5266,228.1963 1949.7672,228.1963 Q1950.1797,228.1963 1950.4375,228.4885 Q1950.6953,228.7635 1950.6953,229.4338 L1950.6953,231.0322 Q1950.6953,231.7025 1950.4375,231.9947 Q1950.1797,232.2869 1949.7672,232.2869 Q1949.3891,232.2869 1949.1656,232.0635 Q1948.9422,231.8572 1948.8219,231.29 Q1948.7703,230.8947 1948.5641,230.6885 Q1948.2031,230.276 1947.5328,230.0354 Q1946.8625,229.7947 1946.175,229.7947 Q1945.3328,229.7947 1944.6281,230.1557 Q1943.9406,230.5166 1943.3906,231.3416 Q1942.8578,232.1666 1942.8578,233.301 L1942.8578,234.5041 Q1942.8578,235.8619 1943.8375,236.7729 Q1944.8172,237.6666 1946.5703,237.6666 Q1947.6016,237.6666 1948.3234,237.3916 Q1948.7531,237.2197 1949.2172,236.7385 Q1949.5094,236.4463 1949.6641,236.3604 Q1949.8359,236.2744 1950.0594,236.2744 Q1950.4203,236.2744 1950.6953,236.5666 Q1950.9875,236.8416 1950.9875,237.2197 Q1950.9875,237.5979 1950.6094,238.0447 Q1950.0594,238.6807 1949.1828,239.0416 Q1947.9969,239.54 1946.5703,239.54 Q1944.9031,239.54 1943.5797,238.8525 Q1942.4969,238.3025 1941.7406,237.1338 Q1940.9844,235.9479 1940.9844,234.5385 L1940.9844,233.2666 Q1940.9844,231.8057 1941.6547,230.551 Q1942.3422,229.2791 1943.5453,228.6088 Q1944.7484,227.9213 1946.1063,227.9213 Q1946.9141,227.9213 1947.6188,228.1104 Q1948.3406,228.2822 1948.9422,228.6775 Z " fill="#000000"/><text fill="#000000" font-family="sans-serif" font-size="15.4" lengthAdjust="spacing" textLength="107.8" x="1961.3" y="239.5916">ClearCommand</text><line style="stroke:#181818;stroke-width:0.55;" x1="1930.5" x2="2071.3" y1="250.815" y2="250.815"/><line style="stroke:#181818;stroke-width:0.55;" x1="1930.5" x2="2071.3" y1="259.615" y2="259.615"/></g><!--class CountGreaterThanHealthCommand--><g id="elem_CountGreaterThanHealthCommand"><rect codeLine="8" fill="#F1F1F1" height="52.8" id="CountGreaterThanHealthCommand" rx="2.75" ry="2.75" style="stroke:#181818;stroke-width:0.55;" width="281.6" x="2110.9" y="215.615"/><ellipse cx="2127.4" cy="233.215" fill="#ADD1B2" rx="12.1" ry="12.1" style="stroke:#181818;stroke-width:1.1;"/><path d="M2130.4422,228.6775 Q2130.6141,228.4369 2130.8203,228.3166 Q2131.0266,228.1963 2131.2672,228.1963 Q2131.6797,228.1963 2131.9375,228.4885 Q2132.1953,228.7635 2132.1953,229.4338 L2132.1953,231.0322 Q2132.1953,231.7025 2131.9375,231.9947 Q2131.6797,232.2869 2131.2672,232.2869 Q2130.8891,232.2869 2130.6656,232.0635 Q2130.4422,231.8572 2130.3219,231.29 Q2130.2703,230.8947 2130.0641,230.6885 Q2129.7031,230.276 2129.0328,230.0354 Q2128.3625,229.7947 2127.675,229.7947 Q2126.8328,229.7947 2126.1281,230.1557 Q2125.4406,230.5166 2124.8906,231.3416 Q2124.3578,232.1666 2124.3578,233.301 L2124.3578,234.5041 Q2124.3578,235.8619 2125.3375,236.7729 Q2126.3172,237.6666 2128.0703,237.6666 Q2129.1016,237.6666 2129.8234,237.3916 Q2130.2531,237.2197 2130.7172,236.7385 Q2131.0094,236.4463 2131.1641,236.3604 Q2131.3359,236.2744 2131.5594,236.2744 Q2131.9203,236.2744 2132.1953,236.5666 Q2132.4875,236.8416 2132.4875,237.2197 Q2132.4875,237.5979 2132.1094,238.0447 Q2131.5594,238.6807 2130.6828,239.0416 Q2129.4969,239.54 2128.0703,239.54 Q2126.4031,239.54 2125.0797,238.8525 Q2123.9969,238.3025 2123.2406,237.1338 Q2122.4844,235.9479 2122.4844,234.5385 L2122.4844,233.2666 Q2122.4844,231.8057 2123.1547,230.551 Q2123.8422,229.2791 2125.0453,228.6088 Q2126.2484,227.9213 2127.6063,227.9213 Q2128.4141,227.9213 2129.1188,228.1104 Q2129.8406,228.2822 2130.4422,228.6775 Z " fill="#000000"/><text fill="#000000" font-family="sans-serif" font-size="15.4" lengthAdjust="spacing" textLength="246.4" x="2142.8" y="239.5916">CountGreaterThanHealthCommand</text><line style="stroke:#181818;stroke-width:0.55;" x1="2112" x2="2391.4" y1="250.815" y2="250.815"/><line style="stroke:#181818;stroke-width:0.55;" x1="2112" x2="2391.4" y1="259.615" y2="259.615"/></g><!--class ExecuteScriptCommand--><g id="elem_ExecuteScriptCommand"><rect codeLine="9" fill="#F1F1F1" height="52.8" id="ExecuteScriptCommand" rx="2.75" ry="2.75" style="stroke:#181818;stroke-width:0.55;" width="200.2" x="2431" y="215.615"/><ellipse cx="2447.5" cy="233.215" fill="#ADD1B2" rx="12.1" ry="12.1" style="stroke:#181818;stroke-width:1.1;"/><path d="M2450.5422,228.6775 Q2450.7141,228.4369 2450.9203,228.3166 Q2451.1266,228.1963 2451.3672,228.1963 Q2451.7797,228.1963 2452.0375,228.4885 Q2452.2953,228.7635 2452.2953,229.4338 L2452.2953,231.0322 Q2452.2953,231.7025 2452.0375,231.9947 Q2451.7797,232.2869 2451.3672,232.2869 Q2450.9891,232.2869 2450.7656,232.0635 Q2450.5422,231.8572 2450.4219,231.29 Q2450.3703,230.8947 2450.1641,230.6885 Q2449.8031,230.276 2449.1328,230.0354 Q2448.4625,229.7947 2447.775,229.7947 Q2446.9328,229.7947 2446.2281,230.1557 Q2445.5406,230.5166 2444.9906,231.3416 Q2444.4578,232.1666 2444.4578,233.301 L2444.4578,234.5041 Q2444.4578,235.8619 2445.4375,236.7729 Q2446.4172,237.6666 2448.1703,237.6666 Q2449.2016,237.6666 2449.9234,237.3916 Q2450.3531,237.2197 2450.8172,236.7385 Q2451.1094,236.4463 2451.2641,236.3604 Q2451.4359,236.2744 2451.6594,236.2744 Q2452.0203,236.2744 2452.2953,236.5666 Q2452.5875,236.8416 2452.5875,237.2197 Q2452.5875,237.5979 2452.2094,238.0447 Q2451.6594,238.6807 2450.7828,239.0416 Q2449.5969,239.54 2448.1703,239.54 Q2446.5031,239.54 2445.1797,238.8525 Q2444.0969,238.3025 2443.3406,237.1338 Q2442.5844,235.9479 2442.5844,234.5385 L2442.5844,233.2666 Q2442.5844,231.8057 2443.2547,230.551 Q2443.9422,229.2791 2445.1453,228.6088 Q2446.3484,227.9213 2447.7063,227.9213 Q2448.5141,227.9213 2449.2188,228.1104 Q2449.9406,228.2822 2450.5422,228.6775 Z " fill="#000000"/><text fill="#000000" font-family="sans-serif" font-size="15.4" lengthAdjust="spacing" textLength="165" x="2462.9" y="239.5916">ExecuteScriptCommand</text><line style="stroke:#181818;stroke-width:0.55;" x1="2432.1" x2="2630.1" y1="250.815" y2="250.815"/><line style="stroke:#181818;stroke-width:0.55;" x1="2432.1" x2="2630.1" y1="259.615" y2="259.615"/></g><!--class ExitCommand--><g id="elem_ExitCommand"><rect codeLine="10" fill="#F1F1F1" height="52.8" id="ExitCommand" rx="2.75" ry="2.75" style="stroke:#181818;stroke-width:0.55;" width="129.8" x="2669.7" y="215.615"/><ellipse cx="2686.2" cy="233.215" fill="#ADD1B2" rx="12.1" ry="12.1" style="stroke:#181818;stroke-width:1.1;"/><path d="M2689.2422,228.6775 Q2689.4141,228.4369 2689.6203,228.3166 Q2689.8266,228.1963 2690.0672,228.1963 Q2690.4797,228.1963 2690.7375,228.4885 Q2690.9953,228.7635 2690.9953,229.4338 L2690.9953,231.0322 Q2690.9953,231.7025 2690.7375,231.9947 Q2690.4797,232.2869 2690.0672,232.2869 Q2689.6891,232.2869 2689.4656,232.0635 Q2689.2422,231.8572 2689.1219,231.29 Q2689.0703,230.8947 2688.8641,230.6885 Q2688.5031,230.276 2687.8328,230.0354 Q2687.1625,229.7947 2686.475,229.7947 Q2685.6328,229.7947 2684.9281,230.1557 Q2684.2406,230.5166 2683.6906,231.3416 Q2683.1578,232.1666 2683.1578,233.301 L2683.1578,234.5041 Q2683.1578,235.8619 2684.1375,236.7729 Q2685.1172,237.6666 2686.8703,237.6666 Q2687.9016,237.6666 2688.6234,237.3916 Q2689.0531,237.2197 2689.5172,236.7385 Q2689.8094,236.4463 2689.9641,236.3604 Q2690.1359,236.2744 2690.3594,236.2744 Q2690.7203,236.2744 2690.9953,236.5666 Q2691.2875,236.8416 2691.2875,237.2197 Q2691.2875,237.5979 2690.9094,238.0447 Q2690.3594,238.6807 2689.4828,239.0416 Q2688.2969,239.54 2686.8703,239.54 Q2685.2031,239.54 2683.8797,238.8525 Q2682.7969,238.3025 2682.0406,237.1338 Q2681.2844,235.9479 2681.2844,234.5385 L2681.2844,233.2666 Q2681.2844,231.8057 2681.9547,230.551 Q2682.6422,229.2791 2683.8453,228.6088 Q2685.0484,227.9213 2686.4063,227.9213 Q2687.2141,227.9213 2687.9188,228.1104 Q2688.6406,228.2822 2689.2422,228.6775 Z " fill="#000000"/><text fill="#000000" font-family="sans-serif" font-size="15.4" lengthAdjust="spacing" textLength="94.6" x="2701.6" y="239.5916">ExitCommand</text><line style="stroke:#181818;stroke-width:0.55;" x1="2670.8" x2="2798.4" y1="250.815" y2="250.815"/><line style="stroke:#181818;stroke-width:0.55;" x1="2670.8" x2="2798.4" y1="259.615" y2="259.615"/></g><!--class FilterStartsWithNameCommand--><g id="elem_FilterStartsWithNameCommand"><rect codeLine="11" fill="#F1F1F1" height="52.8" id="FilterStartsWithNameCommand" rx="2.75" ry="2.75" style="stroke:#181818;stroke-width:0.55;" width="251.9" x="2838.55" y="215.615"/><ellipse cx="2855.05" cy="233.215" fill="#ADD1B2" rx="12.1" ry="12.1" style="stroke:#181818;stroke-width:1.1;"/><path d="M2858.0922,228.6775 Q2858.2641,228.4369 2858.4703,228.3166 Q2858.6766,228.1963 2858.9172,228.1963 Q2859.3297,228.1963 2859.5875,228.4885 Q2859.8453,228.7635 2859.8453,229.4338 L2859.8453,231.0322 Q2859.8453,231.7025 2859.5875,231.9947 Q2859.3297,232.2869 2858.9172,232.2869 Q2858.5391,232.2869 2858.3156,232.0635 Q2858.0922,231.8572 2857.9719,231.29 Q2857.9203,230.8947 2857.7141,230.6885 Q2857.3531,230.276 2856.6828,230.0354 Q2856.0125,229.7947 2855.325,229.7947 Q2854.4828,229.7947 2853.7781,230.1557 Q2853.0906,230.5166 2852.5406,231.3416 Q2852.0078,232.1666 2852.0078,233.301 L2852.0078,234.5041 Q2852.0078,235.8619 2852.9875,236.7729 Q2853.9672,237.6666 2855.7203,237.6666 Q2856.7516,237.6666 2857.4734,237.3916 Q2857.9031,237.2197 2858.3672,236.7385 Q2858.6594,236.4463 2858.8141,236.3604 Q2858.9859,236.2744 2859.2094,236.2744 Q2859.5703,236.2744 2859.8453,236.5666 Q2860.1375,236.8416 2860.1375,237.2197 Q2860.1375,237.5979 2859.7594,238.0447 Q2859.2094,238.6807 2858.3328,239.0416 Q2857.1469,239.54 2855.7203,239.54 Q2854.0531,239.54 2852.7297,238.8525 Q2851.6469,238.3025 2850.8906,237.1338 Q2850.1344,235.9479 2850.1344,234.5385 L2850.1344,233.2666 Q2850.1344,231.8057 2850.8047,230.551 Q2851.4922,229.2791 2852.6953,228.6088 Q2853.8984,227.9213 2855.2563,227.9213 Q2856.0641,227.9213 2856.7688,228.1104 Q2857.4906,228.2822 2858.0922,228.6775 Z " fill="#000000"/><text fill="#000000" font-family="sans-serif" font-size="15.4" lengthAdjust="spacing" textLength="216.7" x="2870.45" y="239.5916">FilterStartsWithNameCommand</text><line style="stroke:#181818;stroke-width:0.55;" x1="2839.65" x2="3089.35" y1="250.815" y2="250.815"/><line style="stroke:#181818;stroke-width:0.55;" x1="2839.65" x2="3089.35" y1="259.615" y2="259.615"/></g><!--class HelpCommand--><g id="elem_HelpCommand"><rect codeLine="12" fill="#F1F1F1" height="52.8" id="HelpCommand" rx="2.75" ry="2.75" style="stroke:#181818;stroke-width:0.55;" width="136.4" x="3129.5" y="215.615"/><ellipse cx="3146" cy="233.215" fill="#ADD1B2" rx="12.1" ry="12.1" style="stroke:#181818;stroke-width:1.1;"/><path d="M3149.0422,228.6775 Q3149.2141,228.4369 3149.4203,228.3166 Q3149.6266,228.1963 3149.8672,228.1963 Q3150.2797,228.1963 3150.5375,228.4885 Q3150.7953,228.7635 3150.7953,229.4338 L3150.7953,231.0322 Q3150.7953,231.7025 3150.5375,231.9947 Q3150.2797,232.2869 3149.8672,232.2869 Q3149.4891,232.2869 3149.2656,232.0635 Q3149.0422,231.8572 3148.9219,231.29 Q3148.8703,230.8947 3148.6641,230.6885 Q3148.3031,230.276 3147.6328,230.0354 Q3146.9625,229.7947 3146.275,229.7947 Q3145.4328,229.7947 3144.7281,230.1557 Q3144.0406,230.5166 3143.4906,231.3416 Q3142.9578,232.1666 3142.9578,233.301 L3142.9578,234.5041 Q3142.9578,235.8619 3143.9375,236.7729 Q3144.9172,237.6666 3146.6703,237.6666 Q3147.7016,237.6666 3148.4234,237.3916 Q3148.8531,237.2197 3149.3172,236.7385 Q3149.6094,236.4463 3149.7641,236.3604 Q3149.9359,236.2744 3150.1594,236.2744 Q3150.5203,236.2744 3150.7953,236.5666 Q3151.0875,236.8416 3151.0875,237.2197 Q3151.0875,237.5979 3150.7094,238.0447 Q3150.1594,238.6807 3149.2828,239.0416 Q3148.0969,239.54 3146.6703,239.54 Q3145.0031,239.54 3143.6797,238.8525 Q3142.5969,238.3025 3141.8406,237.1338 Q3141.0844,235.9479 3141.0844,234.5385 L3141.0844,233.2666 Q3141.0844,231.8057 3141.7547,230.551 Q3142.4422,229.2791 3143.6453,228.6088 Q3144.8484,227.9213 3146.2063,227.9213 Q3147.0141,227.9213 3147.7188,228.1104 Q3148.4406,228.2822 3149.0422,228.6775 Z " fill="#000000"/><text fill="#000000" font-family="sans-serif" font-size="15.4" lengthAdjust="spacing" textLength="101.2" x="3161.4" y="239.5916">HelpCommand</text><line style="stroke:#181818;stroke-width:0.55;" x1="3130.6" x2="3264.8" y1="250.815" y2="250.815"/><line style="stroke:#181818;stroke-width:0.55;" x1="3130.6" x2="3264.8" y1="259.615" y2="259.615"/></g><!--class InfoCommand--><g id="elem_InfoCommand"><rect codeLine="13" fill="#F1F1F1" height="52.8" id="InfoCommand" rx="2.75" ry="2.75" style="stroke:#181818;stroke-width:0.55;" width="130.9" x="3304.95" y="215.615"/><ellipse cx="3321.45" cy="233.215" fill="#ADD1B2" rx="12.1" ry="12.1" style="stroke:#181818;stroke-width:1.1;"/><path d="M3324.4922,228.6775 Q3324.6641,228.4369 3324.8703,228.3166 Q3325.0766,228.1963 3325.3172,228.1963 Q3325.7297,228.1963 3325.9875,228.4885 Q3326.2453,228.7635 3326.2453,229.4338 L3326.2453,231.0322 Q3326.2453,231.7025 3325.9875,231.9947 Q3325.7297,232.2869 3325.3172,232.2869 Q3324.9391,232.2869 3324.7156,232.0635 Q3324.4922,231.8572 3324.3719,231.29 Q3324.3203,230.8947 3324.1141,230.6885 Q3323.7531,230.276 3323.0828,230.0354 Q3322.4125,229.7947 3321.725,229.7947 Q3320.8828,229.7947 3320.1781,230.1557 Q3319.4906,230.5166 3318.9406,231.3416 Q3318.4078,232.1666 3318.4078,233.301 L3318.4078,234.5041 Q3318.4078,235.8619 3319.3875,236.7729 Q3320.3672,237.6666 3322.1203,237.6666 Q3323.1516,237.6666 3323.8734,237.3916 Q3324.3031,237.2197 3324.7672,236.7385 Q3325.0594,236.4463 3325.2141,236.3604 Q3325.3859,236.2744 3325.6094,236.2744 Q3325.9703,236.2744 3326.2453,236.5666 Q3326.5375,236.8416 3326.5375,237.2197 Q3326.5375,237.5979 3326.1594,238.0447 Q3325.6094,238.6807 3324.7328,239.0416 Q3323.5469,239.54 3322.1203,239.54 Q3320.4531,239.54 3319.1297,238.8525 Q3318.0469,238.3025 3317.2906,237.1338 Q3316.5344,235.9479 3316.5344,234.5385 L3316.5344,233.2666 Q3316.5344,231.8057 3317.2047,230.551 Q3317.8922,229.2791 3319.0953,228.6088 Q3320.2984,227.9213 3321.6563,227.9213 Q3322.4641,227.9213 3323.1688,228.1104 Q3323.8906,228.2822 3324.4922,228.6775 Z " fill="#000000"/><text fill="#000000" font-family="sans-serif" font-size="15.4" lengthAdjust="spacing" textLength="95.7" x="3336.85" y="239.5916">InfoCommand</text><line style="stroke:#181818;stroke-width:0.55;" x1="3306.05" x2="3434.75" y1="250.815" y2="250.815"/><line style="stroke:#181818;stroke-width:0.55;" x1="3306.05" x2="3434.75" y1="259.615" y2="259.615"/></g><!--class RemoveByIdCommand--><g id="elem_RemoveByIdCommand"><rect codeLine="14" fill="#F1F1F1" height="52.8" id="RemoveByIdCommand" rx="2.75" ry="2.75" style="stroke:#181818;stroke-width:0.55;" width="192.5" x="3474.35" y="215.615"/><ellipse cx="3490.85" cy="233.215" fill="#ADD1B2" rx="12.1" ry="12.1" style="stroke:#181818;stroke-width:1.1;"/><path d="M3493.8922,228.6775 Q3494.0641,228.4369 3494.2703,228.3166 Q3494.4766,228.1963 3494.7172,228.1963 Q3495.1297,228.1963 3495.3875,228.4885 Q3495.6453,228.7635 3495.6453,229.4338 L3495.6453,231.0322 Q3495.6453,231.7025 3495.3875,231.9947 Q3495.1297,232.2869 3494.7172,232.2869 Q3494.3391,232.2869 3494.1156,232.0635 Q3493.8922,231.8572 3493.7719,231.29 Q3493.7203,230.8947 3493.5141,230.6885 Q3493.1531,230.276 3492.4828,230.0354 Q3491.8125,229.7947 3491.125,229.7947 Q3490.2828,229.7947 3489.5781,230.1557 Q3488.8906,230.5166 3488.3406,231.3416 Q3487.8078,232.1666 3487.8078,233.301 L3487.8078,234.5041 Q3487.8078,235.8619 3488.7875,236.7729 Q3489.7672,237.6666 3491.5203,237.6666 Q3492.5516,237.6666 3493.2734,237.3916 Q3493.7031,237.2197 3494.1672,236.7385 Q3494.4594,236.4463 3494.6141,236.3604 Q3494.7859,236.2744 3495.0094,236.2744 Q3495.3703,236.2744 3495.6453,236.5666 Q3495.9375,236.8416 3495.9375,237.2197 Q3495.9375,237.5979 3495.5594,238.0447 Q3495.0094,238.6807 3494.1328,239.0416 Q3492.9469,239.54 3491.5203,239.54 Q3489.8531,239.54 3488.5297,238.8525 Q3487.4469,238.3025 3486.6906,237.1338 Q3485.9344,235.9479 3485.9344,234.5385 L3485.9344,233.2666 Q3485.9344,231.8057 3486.6047,230.551 Q3487.2922,229.2791 3488.4953,228.6088 Q3489.6984,227.9213 3491.0563,227.9213 Q3491.8641,227.9213 3492.5688,228.1104 Q3493.2906,228.2822 3493.8922,228.6775 Z " fill="#000000"/><text fill="#000000" font-family="sans-serif" font-size="15.4" lengthAdjust="spacing" textLength="157.3" x="3506.25" y="239.5916">RemoveByIdCommand</text><line style="stroke:#181818;stroke-width:0.55;" x1="3475.45" x2="3665.75" y1="250.815" y2="250.815"/><line style="stroke:#181818;stroke-width:0.55;" x1="3475.45" x2="3665.75" y1="259.615" y2="259.615"/></g><!--class RemoveGreaterCommand--><g id="elem_RemoveGreaterCommand"><rect codeLine="15" fill="#F1F1F1" height="52.8" id="RemoveGreaterCommand" rx="2.75" ry="2.75" style="stroke:#181818;stroke-width:0.55;" width="216.7" x="3705.35" y="215.615"/><ellipse cx="3721.85" cy="233.215" fill="#ADD1B2" rx="12.1" ry="12.1" style="stroke:#181818;stroke-width:1.1;"/><path d="M3724.8922,228.6775 Q3725.0641,228.4369 3725.2703,228.3166 Q3725.4766,228.1963 3725.7172,228.1963 Q3726.1297,228.1963 3726.3875,228.4885 Q3726.6453,228.7635 3726.6453,229.4338 L3726.6453,231.0322 Q3726.6453,231.7025 3726.3875,231.9947 Q3726.1297,232.2869 3725.7172,232.2869 Q3725.3391,232.2869 3725.1156,232.0635 Q3724.8922,231.8572 3724.7719,231.29 Q3724.7203,230.8947 3724.5141,230.6885 Q3724.1531,230.276 3723.4828,230.0354 Q3722.8125,229.7947 3722.125,229.7947 Q3721.2828,229.7947 3720.5781,230.1557 Q3719.8906,230.5166 3719.3406,231.3416 Q3718.8078,232.1666 3718.8078,233.301 L3718.8078,234.5041 Q3718.8078,235.8619 3719.7875,236.7729 Q3720.7672,237.6666 3722.5203,237.6666 Q3723.5516,237.6666 3724.2734,237.3916 Q3724.7031,237.2197 3725.1672,236.7385 Q3725.4594,236.4463 3725.6141,236.3604 Q3725.7859,236.2744 3726.0094,236.2744 Q3726.3703,236.2744 3726.6453,236.5666 Q3726.9375,236.8416 3726.9375,237.2197 Q3726.9375,237.5979 3726.5594,238.0447 Q3726.0094,238.6807 3725.1328,239.0416 Q3723.9469,239.54 3722.5203,239.54 Q3720.8531,239.54 3719.5297,238.8525 Q3718.4469,238.3025 3717.6906,237.1338 Q3716.9344,235.9479 3716.9344,234.5385 L3716.9344,233.2666 Q3716.9344,231.8057 3717.6047,230.551 Q3718.2922,229.2791 3719.4953,228.6088 Q3720.6984,227.9213 3722.0563,227.9213 Q3722.8641,227.9213 3723.5688,228.1104 Q3724.2906,228.2822 3724.8922,228.6775 Z " fill="#000000"/><text fill="#000000" font-family="sans-serif" font-size="15.4" lengthAdjust="spacing" textLength="181.5" x="3737.25" y="239.5916">RemoveGreaterCommand</text><line style="stroke:#181818;stroke-width:0.55;" x1="3706.45" x2="3920.95" y1="250.815" y2="250.815"/><line style="stroke:#181818;stroke-width:0.55;" x1="3706.45" x2="3920.95" y1="259.615" y2="259.615"/></g><!--class RemoveLowerCommand--><g id="elem_RemoveLowerCommand"><rect codeLine="16" fill="#F1F1F1" height="52.8" id="RemoveLowerCommand" rx="2.75" ry="2.75" style="stroke:#181818;stroke-width:0.55;" width="204.6" x="3961.1" y="215.615"/><ellipse cx="3977.6" cy="233.215" fill="#ADD1B2" rx="12.1" ry="12.1" style="stroke:#181818;stroke-width:1.1;"/><path d="M3980.6422,228.6775 Q3980.8141,228.4369 3981.0203,228.3166 Q3981.2266,228.1963 3981.4672,228.1963 Q3981.8797,228.1963 3982.1375,228.4885 Q3982.3953,228.7635 3982.3953,229.4338 L3982.3953,231.0322 Q3982.3953,231.7025 3982.1375,231.9947 Q3981.8797,232.2869 3981.4672,232.2869 Q3981.0891,232.2869 3980.8656,232.0635 Q3980.6422,231.8572 3980.5219,231.29 Q3980.4703,230.8947 3980.2641,230.6885 Q3979.9031,230.276 3979.2328,230.0354 Q3978.5625,229.7947 3977.875,229.7947 Q3977.0328,229.7947 3976.3281,230.1557 Q3975.6406,230.5166 3975.0906,231.3416 Q3974.5578,232.1666 3974.5578,233.301 L3974.5578,234.5041 Q3974.5578,235.8619 3975.5375,236.7729 Q3976.5172,237.6666 3978.2703,237.6666 Q3979.3016,237.6666 3980.0234,237.3916 Q3980.4531,237.2197 3980.9172,236.7385 Q3981.2094,236.4463 3981.3641,236.3604 Q3981.5359,236.2744 3981.7594,236.2744 Q3982.1203,236.2744 3982.3953,236.5666 Q3982.6875,236.8416 3982.6875,237.2197 Q3982.6875,237.5979 3982.3094,238.0447 Q3981.7594,238.6807 3980.8828,239.0416 Q3979.6969,239.54 3978.2703,239.54 Q3976.6031,239.54 3975.2797,238.8525 Q3974.1969,238.3025 3973.4406,237.1338 Q3972.6844,235.9479 3972.6844,234.5385 L3972.6844,233.2666 Q3972.6844,231.8057 3973.3547,230.551 Q3974.0422,229.2791 3975.2453,228.6088 Q3976.4484,227.9213 3977.8063,227.9213 Q3978.6141,227.9213 3979.3188,228.1104 Q3980.0406,228.2822 3980.6422,228.6775 Z " fill="#000000"/><text fill="#000000" font-family="sans-serif" font-size="15.4" lengthAdjust="spacing" textLength="169.4" x="3993" y="239.5916">RemoveLowerCommand</text><line style="stroke:#181818;stroke-width:0.55;" x1="3962.2" x2="4164.6" y1="250.815" y2="250.815"/><line style="stroke:#181818;stroke-width:0.55;" x1="3962.2" x2="4164.6" y1="259.615" y2="259.615"/></g><!--class SaveCommand--><g id="elem_SaveCommand"><rect codeLine="17" fill="#F1F1F1" height="52.8" id="SaveCommand" rx="2.75" ry="2.75" style="stroke:#181818;stroke-width:0.55;" width="140.8" x="4204.2" y="215.615"/><ellipse cx="4220.7" cy="233.215" fill="#ADD1B2" rx="12.1" ry="12.1" style="stroke:#181818;stroke-width:1.1;"/><path d="M4223.7422,228.6775 Q4223.9141,228.4369 4224.1203,228.3166 Q4224.3266,228.1963 4224.5672,228.1963 Q4224.9797,228.1963 4225.2375,228.4885 Q4225.4953,228.7635 4225.4953,229.4338 L4225.4953,231.0322 Q4225.4953,231.7025 4225.2375,231.9947 Q4224.9797,232.2869 4224.5672,232.2869 Q4224.1891,232.2869 4223.9656,232.0635 Q4223.7422,231.8572 4223.6219,231.29 Q4223.5703,230.8947 4223.3641,230.6885 Q4223.0031,230.276 4222.3328,230.0354 Q4221.6625,229.7947 4220.975,229.7947 Q4220.1328,229.7947 4219.4281,230.1557 Q4218.7406,230.5166 4218.1906,231.3416 Q4217.6578,232.1666 4217.6578,233.301 L4217.6578,234.5041 Q4217.6578,235.8619 4218.6375,236.7729 Q4219.6172,237.6666 4221.3703,237.6666 Q4222.4016,237.6666 4223.1234,237.3916 Q4223.5531,237.2197 4224.0172,236.7385 Q4224.3094,236.4463 4224.4641,236.3604 Q4224.6359,236.2744 4224.8594,236.2744 Q4225.2203,236.2744 4225.4953,236.5666 Q4225.7875,236.8416 4225.7875,237.2197 Q4225.7875,237.5979 4225.4094,238.0447 Q4224.8594,238.6807 4223.9828,239.0416 Q4222.7969,239.54 4221.3703,239.54 Q4219.7031,239.54 4218.3797,238.8525 Q4217.2969,238.3025 4216.5406,237.1338 Q4215.7844,235.9479 4215.7844,234.5385 L4215.7844,233.2666 Q4215.7844,231.8057 4216.4547,230.551 Q4217.1422,229.2791 4218.3453,228.6088 Q4219.5484,227.9213 4220.9063,227.9213 Q4221.7141,227.9213 4222.4188,228.1104 Q4223.1406,228.2822 4223.7422,228.6775 Z " fill="#000000"/><text fill="#000000" font-family="sans-serif" font-size="15.4" lengthAdjust="spacing" textLength="105.6" x="4236.1" y="239.5916">SaveCommand</text><line style="stroke:#181818;stroke-width:0.55;" x1="4205.3" x2="4343.9" y1="250.815" y2="250.815"/><line style="stroke:#181818;stroke-width:0.55;" x1="4205.3" x2="4343.9" y1="259.615" y2="259.615"/></g><!--class ShowCommand--><g id="elem_ShowCommand"><rect codeLine="18" fill="#F1F1F1" height="52.8" id="ShowCommand" rx="2.75" ry="2.75" style="stroke:#181818;stroke-width:0.55;" width="143" x="4383.5" y="215.615"/><ellipse cx="4400" cy="233.215" fill="#ADD1B2" rx="12.1" ry="12.1" style="stroke:#181818;stroke-width:1.1;"/><path d="M4403.0422,228.6775 Q4403.2141,228.4369 4403.4203,228.3166 Q4403.6266,228.1963 4403.8672,228.1963 Q4404.2797,228.1963 4404.5375,228.4885 Q4404.7953,228.7635 4404.7953,229.4338 L4404.7953,231.0322 Q4404.7953,231.7025 4404.5375,231.9947 Q4404.2797,232.2869 4403.8672,232.2869 Q4403.4891,232.2869 4403.2656,232.0635 Q4403.0422,231.8572 4402.9219,231.29 Q4402.8703,230.8947 4402.6641,230.6885 Q4402.3031,230.276 4401.6328,230.0354 Q4400.9625,229.7947 4400.275,229.7947 Q4399.4328,229.7947 4398.7281,230.1557 Q4398.0406,230.5166 4397.4906,231.3416 Q4396.9578,232.1666 4396.9578,233.301 L4396.9578,234.5041 Q4396.9578,235.8619 4397.9375,236.7729 Q4398.9172,237.6666 4400.6703,237.6666 Q4401.7016,237.6666 4402.4234,237.3916 Q4402.8531,237.2197 4403.3172,236.7385 Q4403.6094,236.4463 4403.7641,236.3604 Q4403.9359,236.2744 4404.1594,236.2744 Q4404.5203,236.2744 4404.7953,236.5666 Q4405.0875,236.8416 4405.0875,237.2197 Q4405.0875,237.5979 4404.7094,238.0447 Q4404.1594,238.6807 4403.2828,239.0416 Q4402.0969,239.54 4400.6703,239.54 Q4399.0031,239.54 4397.6797,238.8525 Q4396.5969,238.3025 4395.8406,237.1338 Q4395.0844,235.9479 4395.0844,234.5385 L4395.0844,233.2666 Q4395.0844,231.8057 4395.7547,230.551 Q4396.4422,229.2791 4397.6453,228.6088 Q4398.8484,227.9213 4400.2063,227.9213 Q4401.0141,227.9213 4401.7188,228.1104 Q4402.4406,228.2822 4403.0422,228.6775 Z " fill="#000000"/><text fill="#000000" font-family="sans-serif" font-size="15.4" lengthAdjust="spacing" textLength="107.8" x="4415.4" y="239.5916">ShowCommand</text><line style="stroke:#181818;stroke-width:0.55;" x1="4384.6" x2="4525.4" y1="250.815" y2="250.815"/><line style="stroke:#181818;stroke-width:0.55;" x1="4384.6" x2="4525.4" y1="259.615" y2="259.615"/></g><!--class UpdateCommand--><g id="elem_UpdateCommand"><rect codeLine="19" fill="#F1F1F1" height="52.8" id="UpdateCommand" rx="2.75" ry="2.75" style="stroke:#181818;stroke-width:0.55;" width="155.1" x="4565.55" y="215.615"/><ellipse cx="4582.05" cy="233.215" fill="#ADD1B2" rx="12.1" ry="12.1" style="stroke:#181818;stroke-width:1.1;"/><path d="M4585.0922,228.6775 Q4585.2641,228.4369 4585.4703,228.3166 Q4585.6766,228.1963 4585.9172,228.1963 Q4586.3297,228.1963 4586.5875,228.4885 Q4586.8453,228.7635 4586.8453,229.4338 L4586.8453,231.0322 Q4586.8453,231.7025 4586.5875,231.9947 Q4586.3297,232.2869 4585.9172,232.2869 Q4585.5391,232.2869 4585.3156,232.0635 Q4585.0922,231.8572 4584.9719,231.29 Q4584.9203,230.8947 4584.7141,230.6885 Q4584.3531,230.276 4583.6828,230.0354 Q4583.0125,229.7947 4582.325,229.7947 Q4581.4828,229.7947 4580.7781,230.1557 Q4580.0906,230.5166 4579.5406,231.3416 Q4579.0078,232.1666 4579.0078,233.301 L4579.0078,234.5041 Q4579.0078,235.8619 4579.9875,236.7729 Q4580.9672,237.6666 4582.7203,237.6666 Q4583.7516,237.6666 4584.4734,237.3916 Q4584.9031,237.2197 4585.3672,236.7385 Q4585.6594,236.4463 4585.8141,236.3604 Q4585.9859,236.2744 4586.2094,236.2744 Q4586.5703,236.2744 4586.8453,236.5666 Q4587.1375,236.8416 4587.1375,237.2197 Q4587.1375,237.5979 4586.7594,238.0447 Q4586.2094,238.6807 4585.3328,239.0416 Q4584.1469,239.54 4582.7203,239.54 Q4581.0531,239.54 4579.7297,238.8525 Q4578.6469,238.3025 4577.8906,237.1338 Q4577.1344,235.9479 4577.1344,234.5385 L4577.1344,233.2666 Q4577.1344,231.8057 4577.8047,230.551 Q4578.4922,229.2791 4579.6953,228.6088 Q4580.8984,227.9213 4582.2563,227.9213 Q4583.0641,227.9213 4583.7688,228.1104 Q4584.4906,228.2822 4585.0922,228.6775 Z " fill="#000000"/><text fill="#000000" font-family="sans-serif" font-size="15.4" lengthAdjust="spacing" textLength="119.9" x="4597.45" y="239.5916">UpdateCommand</text><line style="stroke:#181818;stroke-width:0.55;" x1="4566.65" x2="4719.55" y1="250.815" y2="250.815"/><line style="stroke:#181818;stroke-width:0.55;" x1="4566.65" x2="4719.55" y1="259.615" y2="259.615"/></g><!--class Storage--><g id="elem_Storage"><rect codeLine="21" fill="#F1F1F1" height="52.8" id="Storage" rx="2.75" ry="2.75" style="stroke:#181818;stroke-width:0.55;" width="90.2" x="4606.8" y="96.815"/><ellipse cx="4623.3" cy="114.415" fill="#ADD1B2" rx="12.1" ry="12.1" style="stroke:#181818;stroke-width:1.1;"/><path d="M4626.3422,109.8775 Q4626.5141,109.6369 4626.7203,109.5166 Q4626.9266,109.3963 4627.1672,109.3963 Q4627.5797,109.3963 4627.8375,109.6885 Q4628.0953,109.9635 4628.0953,110.6338 L4628.0953,112.2322 Q4628.0953,112.9025 4627.8375,113.1947 Q4627.5797,113.4869 4627.1672,113.4869 Q4626.7891,113.4869 4626.5656,113.2635 Q4626.3422,113.0572 4626.2219,112.49 Q4626.1703,112.0947 4625.9641,111.8885 Q4625.6031,111.476 4624.9328,111.2354 Q4624.2625,110.9947 4623.575,110.9947 Q4622.7328,110.9947 4622.0281,111.3557 Q4621.3406,111.7166 4620.7906,112.5416 Q4620.2578,113.3666 4620.2578,114.501 L4620.2578,115.7041 Q4620.2578,117.0619 4621.2375,117.9729 Q4622.2172,118.8666 4623.9703,118.8666 Q4625.0016,118.8666 4625.7234,118.5916 Q4626.1531,118.4197 4626.6172,117.9385 Q4626.9094,117.6463 4627.0641,117.5604 Q4627.2359,117.4744 4627.4594,117.4744 Q4627.8203,117.4744 4628.0953,117.7666 Q4628.3875,118.0416 4628.3875,118.4197 Q4628.3875,118.7979 4628.0094,119.2447 Q4627.4594,119.8807 4626.5828,120.2416 Q4625.3969,120.74 4623.9703,120.74 Q4622.3031,120.74 4620.9797,120.0525 Q4619.8969,119.5025 4619.1406,118.3338 Q4618.3844,117.1479 4618.3844,115.7385 L4618.3844,114.4666 Q4618.3844,113.0057 4619.0547,111.751 Q4619.7422,110.4791 4620.9453,109.8088 Q4622.1484,109.1213 4623.5063,109.1213 Q4624.3141,109.1213 4625.0188,109.3104 Q4625.7406,109.4822 4626.3422,109.8775 Z " fill="#000000"/><text fill="#000000" font-family="sans-serif" font-size="15.4" lengthAdjust="spacing" textLength="55" x="4638.7" y="120.7916">Storage</text><line style="stroke:#181818;stroke-width:0.55;" x1="4607.9" x2="4695.9" y1="132.015" y2="132.015"/><line style="stroke:#181818;stroke-width:0.55;" x1="4607.9" x2="4695.9" y1="140.815" y2="140.815"/></g><!--class Arguments--><g id="elem_Arguments"><rect codeLine="22" fill="#F1F1F1" height="52.8" id="Arguments" rx="2.75" ry="2.75" style="stroke:#181818;stroke-width:0.55;" width="110" x="4735.5" y="96.815"/><ellipse cx="4752" cy="114.415" fill="#ADD1B2" rx="12.1" ry="12.1" style="stroke:#181818;stroke-width:1.1;"/><path d="M4755.0422,109.8775 Q4755.2141,109.6369 4755.4203,109.5166 Q4755.6266,109.3963 4755.8672,109.3963 Q4756.2797,109.3963 4756.5375,109.6885 Q4756.7953,109.9635 4756.7953,110.6338 L4756.7953,112.2322 Q4756.7953,112.9025 4756.5375,113.1947 Q4756.2797,113.4869 4755.8672,113.4869 Q4755.4891,113.4869 4755.2656,113.2635 Q4755.0422,113.0572 4754.9219,112.49 Q4754.8703,112.0947 4754.6641,111.8885 Q4754.3031,111.476 4753.6328,111.2354 Q4752.9625,110.9947 4752.275,110.9947 Q4751.4328,110.9947 4750.7281,111.3557 Q4750.0406,111.7166 4749.4906,112.5416 Q4748.9578,113.3666 4748.9578,114.501 L4748.9578,115.7041 Q4748.9578,117.0619 4749.9375,117.9729 Q4750.9172,118.8666 4752.6703,118.8666 Q4753.7016,118.8666 4754.4234,118.5916 Q4754.8531,118.4197 4755.3172,117.9385 Q4755.6094,117.6463 4755.7641,117.5604 Q4755.9359,117.4744 4756.1594,117.4744 Q4756.5203,117.4744 4756.7953,117.7666 Q4757.0875,118.0416 4757.0875,118.4197 Q4757.0875,118.7979 4756.7094,119.2447 Q4756.1594,119.8807 4755.2828,120.2416 Q4754.0969,120.74 4752.6703,120.74 Q4751.0031,120.74 4749.6797,120.0525 Q4748.5969,119.5025 4747.8406,118.3338 Q4747.0844,117.1479 4747.0844,115.7385 L4747.0844,114.4666 Q4747.0844,113.0057 4747.7547,111.751 Q4748.4422,110.4791 4749.6453,109.8088 Q4750.8484,109.1213 4752.2063,109.1213 Q4753.0141,109.1213 4753.7188,109.3104 Q4754.4406,109.4822 4755.0422,109.8775 Z " fill="#000000"/><text fill="#000000" font-family="sans-serif" font-size="15.4" lengthAdjust="spacing" textLength="74.8" x="4767.4" y="120.7916">Arguments</text><line style="stroke:#181818;stroke-width:0.55;" x1="4736.6" x2="4844.4" y1="132.015" y2="132.015"/><line style="stroke:#181818;stroke-width:0.55;" x1="4736.6" x2="4844.4" y1="140.815" y2="140.815"/></g><!--class Invoker--><g id="elem_Invoker"><rect codeLine="23" fill="#F1F1F1" height="52.8" id="Invoker" rx="2.75" ry="2.75" style="stroke:#181818;stroke-width:0.55;" width="85.8" x="4759.7" y="215.615"/><ellipse cx="4776.2" cy="233.215" fill="#ADD1B2" rx="12.1" ry="12.1" style="stroke:#181818;stroke-width:1.1;"/><path d="M4779.2422,228.6775 Q4779.4141,228.4369 4779.6203,228.3166 Q4779.8266,228.1963 4780.0672,228.1963 Q4780.4797,228.1963 4780.7375,228.4885 Q4780.9953,228.7635 4780.9953,229.4338 L4780.9953,231.0322 Q4780.9953,231.7025 4780.7375,231.9947 Q4780.4797,232.2869 4780.0672,232.2869 Q4779.6891,232.2869 4779.4656,232.0635 Q4779.2422,231.8572 4779.1219,231.29 Q4779.0703,230.8947 4778.8641,230.6885 Q4778.5031,230.276 4777.8328,230.0354 Q4777.1625,229.7947 4776.475,229.7947 Q4775.6328,229.7947 4774.9281,230.1557 Q4774.2406,230.5166 4773.6906,231.3416 Q4773.1578,232.1666 4773.1578,233.301 L4773.1578,234.5041 Q4773.1578,235.8619 4774.1375,236.7729 Q4775.1172,237.6666 4776.8703,237.6666 Q4777.9016,237.6666 4778.6234,237.3916 Q4779.0531,237.2197 4779.5172,236.7385 Q4779.8094,236.4463 4779.9641,236.3604 Q4780.1359,236.2744 4780.3594,236.2744 Q4780.7203,236.2744 4780.9953,236.5666 Q4781.2875,236.8416 4781.2875,237.2197 Q4781.2875,237.5979 4780.9094,238.0447 Q4780.3594,238.6807 4779.4828,239.0416 Q4778.2969,239.54 4776.8703,239.54 Q4775.2031,239.54 4773.8797,238.8525 Q4772.7969,238.3025 4772.0406,237.1338 Q4771.2844,235.9479 4771.2844,234.5385 L4771.2844,233.2666 Q4771.2844,231.8057 4771.9547,230.551 Q4772.6422,229.2791 4773.8453,228.6088 Q4775.0484,227.9213 4776.4063,227.9213 Q4777.2141,227.9213 4777.9188,228.1104 Q4778.6406,228.2822 4779.2422,228.6775 Z " fill="#000000"/><text fill="#000000" font-family="sans-serif" font-size="15.4" lengthAdjust="spacing" textLength="50.6" x="4791.6" y="239.5916">Invoker</text><line style="stroke:#181818;stroke-width:0.55;" x1="4760.8" x2="4844.4" y1="250.815" y2="250.815"/><line style="stroke:#181818;stroke-width:0.55;" x1="4760.8" x2="4844.4" y1="259.615" y2="259.615"/></g><!--class StaxXMLReader--><g id="elem_StaxXMLReader"><rect codeLine="55" fill="#F1F1F1" height="52.8" id="StaxXMLReader" rx="2.75" ry="2.75" style="stroke:#181818;stroke-width:0.55;" width="146.3" x="1141.25" y="96.815"/><ellipse cx="1157.75" cy="114.415" fill="#ADD1B2" rx="12.1" ry="12.1" style="stroke:#181818;stroke-width:1.1;"/><path d="M1160.7922,109.8775 Q1160.9641,109.6369 1161.1703,109.5166 Q1161.3766,109.3963 1161.6172,109.3963 Q1162.0297,109.3963 1162.2875,109.6885 Q1162.5453,109.9635 1162.5453,110.6338 L1162.5453,112.2322 Q1162.5453,112.9025 1162.2875,113.1947 Q1162.0297,113.4869 1161.6172,113.4869 Q1161.2391,113.4869 1161.0156,113.2635 Q1160.7922,113.0572 1160.6719,112.49 Q1160.6203,112.0947 1160.4141,111.8885 Q1160.0531,111.476 1159.3828,111.2354 Q1158.7125,110.9947 1158.025,110.9947 Q1157.1828,110.9947 1156.4781,111.3557 Q1155.7906,111.7166 1155.2406,112.5416 Q1154.7078,113.3666 1154.7078,114.501 L1154.7078,115.7041 Q1154.7078,117.0619 1155.6875,117.9729 Q1156.6672,118.8666 1158.4203,118.8666 Q1159.4516,118.8666 1160.1734,118.5916 Q1160.6031,118.4197 1161.0672,117.9385 Q1161.3594,117.6463 1161.5141,117.5604 Q1161.6859,117.4744 1161.9094,117.4744 Q1162.2703,117.4744 1162.5453,117.7666 Q1162.8375,118.0416 1162.8375,118.4197 Q1162.8375,118.7979 1162.4594,119.2447 Q1161.9094,119.8807 1161.0328,120.2416 Q1159.8469,120.74 1158.4203,120.74 Q1156.7531,120.74 1155.4297,120.0525 Q1154.3469,119.5025 1153.5906,118.3338 Q1152.8344,117.1479 1152.8344,115.7385 L1152.8344,114.4666 Q1152.8344,113.0057 1153.5047,111.751 Q1154.1922,110.4791 1155.3953,109.8088 Q1156.5984,109.1213 1157.9563,109.1213 Q1158.7641,109.1213 1159.4688,109.3104 Q1160.1906,109.4822 1160.7922,109.8775 Z " fill="#000000"/><text fill="#000000" font-family="sans-serif" font-size="15.4" lengthAdjust="spacing" textLength="111.1" x="1173.15" y="120.7916">StaxXMLReader</text><line style="stroke:#181818;stroke-width:0.55;" x1="1142.35" x2="1286.45" y1="132.015" y2="132.015"/><line style="stroke:#181818;stroke-width:0.55;" x1="1142.35" x2="1286.45" y1="140.815" y2="140.815"/></g><!--class StaxXMLWriter--><g id="elem_StaxXMLWriter"><rect codeLine="56" fill="#F1F1F1" height="52.8" id="StaxXMLWriter" rx="2.75" ry="2.75" style="stroke:#181818;stroke-width:0.55;" width="136.4" x="965.8" y="96.815"/><ellipse cx="982.3" cy="114.415" fill="#ADD1B2" rx="12.1" ry="12.1" style="stroke:#181818;stroke-width:1.1;"/><path d="M985.3422,109.8775 Q985.5141,109.6369 985.7203,109.5166 Q985.9266,109.3963 986.1672,109.3963 Q986.5797,109.3963 986.8375,109.6885 Q987.0953,109.9635 987.0953,110.6338 L987.0953,112.2322 Q987.0953,112.9025 986.8375,113.1947 Q986.5797,113.4869 986.1672,113.4869 Q985.7891,113.4869 985.5656,113.2635 Q985.3422,113.0572 985.2219,112.49 Q985.1703,112.0947 984.9641,111.8885 Q984.6031,111.476 983.9328,111.2354 Q983.2625,110.9947 982.575,110.9947 Q981.7328,110.9947 981.0281,111.3557 Q980.3406,111.7166 979.7906,112.5416 Q979.2578,113.3666 979.2578,114.501 L979.2578,115.7041 Q979.2578,117.0619 980.2375,117.9729 Q981.2172,118.8666 982.9703,118.8666 Q984.0016,118.8666 984.7234,118.5916 Q985.1531,118.4197 985.6172,117.9385 Q985.9094,117.6463 986.0641,117.5604 Q986.2359,117.4744 986.4594,117.4744 Q986.8203,117.4744 987.0953,117.7666 Q987.3875,118.0416 987.3875,118.4197 Q987.3875,118.7979 987.0094,119.2447 Q986.4594,119.8807 985.5828,120.2416 Q984.3969,120.74 982.9703,120.74 Q981.3031,120.74 979.9797,120.0525 Q978.8969,119.5025 978.1406,118.3338 Q977.3844,117.1479 977.3844,115.7385 L977.3844,114.4666 Q977.3844,113.0057 978.0547,111.751 Q978.7422,110.4791 979.9453,109.8088 Q981.1484,109.1213 982.5063,109.1213 Q983.3141,109.1213 984.0188,109.3104 Q984.7406,109.4822 985.3422,109.8775 Z " fill="#000000"/><text fill="#000000" font-family="sans-serif" font-size="15.4" lengthAdjust="spacing" textLength="101.2" x="997.7" y="120.7916">StaxXMLWriter</text><line style="stroke:#181818;stroke-width:0.55;" x1="966.9" x2="1101.1" y1="132.015" y2="132.015"/><line style="stroke:#181818;stroke-width:0.55;" x1="966.9" x2="1101.1" y1="140.815" y2="140.815"/></g><!--class CantReadFileException--><g id="elem_CantReadFileException"><rect codeLine="60" fill="#F1F1F1" height="52.8" id="CantReadFileException" rx="2.75" ry="2.75" style="stroke:#181818;stroke-width:0.55;" width="198" x="496.1" y="96.815"/><ellipse cx="512.6" cy="114.415" fill="#ADD1B2" rx="12.1" ry="12.1" style="stroke:#181818;stroke-width:1.1;"/><path d="M515.6422,109.8775 Q515.8141,109.6369 516.0203,109.5166 Q516.2266,109.3963 516.4672,109.3963 Q516.8797,109.3963 517.1375,109.6885 Q517.3953,109.9635 517.3953,110.6338 L517.3953,112.2322 Q517.3953,112.9025 517.1375,113.1947 Q516.8797,113.4869 516.4672,113.4869 Q516.0891,113.4869 515.8656,113.2635 Q515.6422,113.0572 515.5219,112.49 Q515.4703,112.0947 515.2641,111.8885 Q514.9031,111.476 514.2328,111.2354 Q513.5625,110.9947 512.875,110.9947 Q512.0328,110.9947 511.3281,111.3557 Q510.6406,111.7166 510.0906,112.5416 Q509.5578,113.3666 509.5578,114.501 L509.5578,115.7041 Q509.5578,117.0619 510.5375,117.9729 Q511.5172,118.8666 513.2703,118.8666 Q514.3016,118.8666 515.0234,118.5916 Q515.4531,118.4197 515.9172,117.9385 Q516.2094,117.6463 516.3641,117.5604 Q516.5359,117.4744 516.7594,117.4744 Q517.1203,117.4744 517.3953,117.7666 Q517.6875,118.0416 517.6875,118.4197 Q517.6875,118.7979 517.3094,119.2447 Q516.7594,119.8807 515.8828,120.2416 Q514.6969,120.74 513.2703,120.74 Q511.6031,120.74 510.2797,120.0525 Q509.1969,119.5025 508.4406,118.3338 Q507.6844,117.1479 507.6844,115.7385 L507.6844,114.4666 Q507.6844,113.0057 508.3547,111.751 Q509.0422,110.4791 510.2453,109.8088 Q511.4484,109.1213 512.8063,109.1213 Q513.6141,109.1213 514.3188,109.3104 Q515.0406,109.4822 515.6422,109.8775 Z " fill="#000000"/><text fill="#000000" font-family="sans-serif" font-size="15.4" lengthAdjust="spacing" textLength="162.8" x="528" y="120.7916">CantReadFileException</text><line style="stroke:#181818;stroke-width:0.55;" x1="497.2" x2="693" y1="132.015" y2="132.015"/><line style="stroke:#181818;stroke-width:0.55;" x1="497.2" x2="693" y1="140.815" y2="140.815"/></g><!--class EndOfFileException--><g id="elem_EndOfFileException"><rect codeLine="61" fill="#F1F1F1" height="52.8" id="EndOfFileException" rx="2.75" ry="2.75" style="stroke:#181818;stroke-width:0.55;" width="171.6" x="732.6" y="96.815"/><ellipse cx="749.1" cy="114.415" fill="#ADD1B2" rx="12.1" ry="12.1" style="stroke:#181818;stroke-width:1.1;"/><path d="M752.1422,109.8775 Q752.3141,109.6369 752.5203,109.5166 Q752.7266,109.3963 752.9672,109.3963 Q753.3797,109.3963 753.6375,109.6885 Q753.8953,109.9635 753.8953,110.6338 L753.8953,112.2322 Q753.8953,112.9025 753.6375,113.1947 Q753.3797,113.4869 752.9672,113.4869 Q752.5891,113.4869 752.3656,113.2635 Q752.1422,113.0572 752.0219,112.49 Q751.9703,112.0947 751.7641,111.8885 Q751.4031,111.476 750.7328,111.2354 Q750.0625,110.9947 749.375,110.9947 Q748.5328,110.9947 747.8281,111.3557 Q747.1406,111.7166 746.5906,112.5416 Q746.0578,113.3666 746.0578,114.501 L746.0578,115.7041 Q746.0578,117.0619 747.0375,117.9729 Q748.0172,118.8666 749.7703,118.8666 Q750.8016,118.8666 751.5234,118.5916 Q751.9531,118.4197 752.4172,117.9385 Q752.7094,117.6463 752.8641,117.5604 Q753.0359,117.4744 753.2594,117.4744 Q753.6203,117.4744 753.8953,117.7666 Q754.1875,118.0416 754.1875,118.4197 Q754.1875,118.7979 753.8094,119.2447 Q753.2594,119.8807 752.3828,120.2416 Q751.1969,120.74 749.7703,120.74 Q748.1031,120.74 746.7797,120.0525 Q745.6969,119.5025 744.9406,118.3338 Q744.1844,117.1479 744.1844,115.7385 L744.1844,114.4666 Q744.1844,113.0057 744.8547,111.751 Q745.5422,110.4791 746.7453,109.8088 Q747.9484,109.1213 749.3063,109.1213 Q750.1141,109.1213 750.8188,109.3104 Q751.5406,109.4822 752.1422,109.8775 Z " fill="#000000"/><text fill="#000000" font-family="sans-serif" font-size="15.4" lengthAdjust="spacing" textLength="136.4" x="764.5" y="120.7916">EndOfFileException</text><line style="stroke:#181818;stroke-width:0.55;" x1="733.7" x2="903.1" y1="132.015" y2="132.015"/><line style="stroke:#181818;stroke-width:0.55;" x1="733.7" x2="903.1" y1="140.815" y2="140.815"/></g><!--class NonValidFileElementException--><g id="elem_NonValidFileElementException"><rect codeLine="62" fill="#F1F1F1" height="52.8" id="NonValidFileElementException" rx="2.75" ry="2.75" style="stroke:#181818;stroke-width:0.55;" width="245.3" x="496.65" y="215.615"/><ellipse cx="513.15" cy="233.215" fill="#ADD1B2" rx="12.1" ry="12.1" style="stroke:#181818;stroke-width:1.1;"/><path d="M516.1922,228.6775 Q516.3641,228.4369 516.5703,228.3166 Q516.7766,228.1963 517.0172,228.1963 Q517.4297,228.1963 517.6875,228.4885 Q517.9453,228.7635 517.9453,229.4338 L517.9453,231.0322 Q517.9453,231.7025 517.6875,231.9947 Q517.4297,232.2869 517.0172,232.2869 Q516.6391,232.2869 516.4156,232.0635 Q516.1922,231.8572 516.0719,231.29 Q516.0203,230.8947 515.8141,230.6885 Q515.4531,230.276 514.7828,230.0354 Q514.1125,229.7947 513.425,229.7947 Q512.5828,229.7947 511.8781,230.1557 Q511.1906,230.5166 510.6406,231.3416 Q510.1078,232.1666 510.1078,233.301 L510.1078,234.5041 Q510.1078,235.8619 511.0875,236.7729 Q512.0672,237.6666 513.8203,237.6666 Q514.8516,237.6666 515.5734,237.3916 Q516.0031,237.2197 516.4672,236.7385 Q516.7594,236.4463 516.9141,236.3604 Q517.0859,236.2744 517.3094,236.2744 Q517.6703,236.2744 517.9453,236.5666 Q518.2375,236.8416 518.2375,237.2197 Q518.2375,237.5979 517.8594,238.0447 Q517.3094,238.6807 516.4328,239.0416 Q515.2469,239.54 513.8203,239.54 Q512.1531,239.54 510.8297,238.8525 Q509.7469,238.3025 508.9906,237.1338 Q508.2344,235.9479 508.2344,234.5385 L508.2344,233.2666 Q508.2344,231.8057 508.9047,230.551 Q509.5922,229.2791 510.7953,228.6088 Q511.9984,227.9213 513.3563,227.9213 Q514.1641,227.9213 514.8688,228.1104 Q515.5906,228.2822 516.1922,228.6775 Z " fill="#000000"/><text fill="#000000" font-family="sans-serif" font-size="15.4" lengthAdjust="spacing" textLength="210.1" x="528.55" y="239.5916">NonValidFileElementException</text><line style="stroke:#181818;stroke-width:0.55;" x1="497.75" x2="740.85" y1="250.815" y2="250.815"/><line style="stroke:#181818;stroke-width:0.55;" x1="497.75" x2="740.85" y1="259.615" y2="259.615"/></g><!--reverse link Command to AddCommand--><g id="link_Command_AddCommand"><path codeLine="25" d="M3021.3177,125.9669 C2781.5837,132.8309 1806.64,163.442 1503.7,215.615 C1497.199,216.737 1490.489,218.167 1483.812,219.784 " fill="none" id="Command-backto-AddCommand" style="stroke:#181818;stroke-width:1.1;"/><polygon fill="#181818" points="3027.915,125.778,3017.8931,121.6632,3022.4173,125.9354,3018.145,130.4596,3027.915,125.778" style="stroke:#181818;stroke-width:1.1;"/></g><!--reverse link Command to AddIfMinCommand--><g id="link_Command_AddIfMinCommand"><path codeLine="26" d="M3021.4032,124.5384 C2837.4172,125.8584 2217.116,136.25 1707.2,215.615 C1700.787,216.616 1694.176,217.826 1687.565,219.168 " fill="none" id="Command-backto-AddIfMinCommand" style="stroke:#181818;stroke-width:1.1;"/><polygon fill="#181818" points="3028.003,124.491,3018.0717,120.1622,3022.5031,124.5305,3018.1348,128.962,3028.003,124.491" style="stroke:#181818;stroke-width:1.1;"/></g><!--reverse link Command to AverageCommand--><g id="link_Command_AverageCommand"><path codeLine="27" d="M3021.6358,125.5036 C2855.8438,129.3866 2338.259,146.546 1910.7,215.615 C1904.111,216.682 1897.313,217.958 1890.515,219.355 " fill="none" id="Command-backto-AverageCommand" style="stroke:#181818;stroke-width:1.1;"/><polygon fill="#181818" points="3028.234,125.349,3018.2337,121.182,3022.7355,125.4778,3018.4397,129.9796,3028.234,125.349" style="stroke:#181818;stroke-width:1.1;"/></g><!--reverse link Command to ClearCommand--><g id="link_Command_ClearCommand"><path codeLine="28" d="M3021.5169,126.1154 C2872.7969,131.2414 2445.795,150.836 2092.2,215.615 C2085.886,216.77 2079.385,218.167 2072.884,219.685 " fill="none" id="Command-backto-ClearCommand" style="stroke:#181818;stroke-width:1.1;"/><polygon fill="#181818" points="3028.113,125.888,3018.0673,121.8317,3022.6163,126.0775,3018.3704,130.6265,3028.113,125.888" style="stroke:#181818;stroke-width:1.1;"/></g><!--reverse link Command to CountGreaterThanHealthCommand--><g id="link_Command_CountGreaterThanHealthCommand"><path codeLine="29" d="M3021.6121,132.0194 C2908.4661,146.7374 2641.287,181.955 2412.3,215.615 C2405.876,216.561 2399.309,217.54 2392.687,218.541 " fill="none" id="Command-backto-CountGreaterThanHealthCommand" style="stroke:#181818;stroke-width:1.1;"/><polygon fill="#181818" points="3028.157,131.168,3017.7721,128.0818,3022.7029,131.8775,3018.9073,136.8083,3028.157,131.168" style="stroke:#181818;stroke-width:1.1;"/></g><!--reverse link Command to ExecuteScriptCommand--><g id="link_Command_ExecuteScriptCommand"><path codeLine="30" d="M3021.4034,136.9696 C2930.0154,156.3406 2748.328,194.858 2631.618,219.608 " fill="none" id="Command-backto-ExecuteScriptCommand" style="stroke:#181818;stroke-width:1.1;"/><polygon fill="#181818" points="3027.86,135.601,3017.2628,133.3495,3022.4795,136.7415,3019.0875,141.9582,3027.86,135.601" style="stroke:#181818;stroke-width:1.1;"/></g><!--reverse link Command to ExitCommand--><g id="link_Command_ExitCommand"><path codeLine="31" d="M3021.8469,144.2516 C2960.5109,164.8986 2865.775,196.772 2799.72,219.003 " fill="none" id="Command-backto-ExitCommand" style="stroke:#181818;stroke-width:1.1;"/><polygon fill="#181818" points="3028.102,142.146,3017.3156,141.1344,3022.8894,143.9007,3020.1231,149.4745,3028.102,142.146" style="stroke:#181818;stroke-width:1.1;"/></g><!--reverse link Command to FilterStartsWithNameCommand--><g id="link_Command_FilterStartsWithNameCommand"><path codeLine="32" d="M3051.1331,154.2819 C3031.7071,173.7079 3009.666,195.749 2990.152,215.263 " fill="none" id="Command-backto-FilterStartsWithNameCommand" style="stroke:#181818;stroke-width:1.1;"/><polygon fill="#181818" points="3055.8,149.615,3045.6884,153.5041,3051.9109,153.5041,3051.9109,159.7267,3055.8,149.615" style="stroke:#181818;stroke-width:1.1;"/></g><!--reverse link Command to HelpCommand--><g id="link_Command_HelpCommand"><path codeLine="33" d="M3111.0669,154.2819 C3130.4929,173.7079 3152.534,195.749 3172.048,215.263 " fill="none" id="Command-backto-HelpCommand" style="stroke:#181818;stroke-width:1.1;"/><polygon fill="#181818" points="3106.4,149.615,3110.2891,159.7267,3110.2891,153.5041,3116.5116,153.5041,3106.4,149.615" style="stroke:#181818;stroke-width:1.1;"/></g><!--reverse link Command to InfoCommand--><g id="link_Command_InfoCommand"><path codeLine="34" d="M3140.2856,148.1661 C3189.2246,167.8891 3255.791,194.726 3307.601,215.604 " fill="none" id="Command-backto-InfoCommand" style="stroke:#181818;stroke-width:1.1;"/><polygon fill="#181818" points="3134.164,145.699,3141.7016,153.4807,3139.2653,147.7549,3144.9911,145.3186,3134.164,145.699" style="stroke:#181818;stroke-width:1.1;"/></g><!--reverse link Command to RemoveByIdCommand--><g id="link_Command_RemoveByIdCommand"><path codeLine="35" d="M3140.3752,138.429 C3221.7092,157.811 3372.391,193.703 3474.295,217.98 " fill="none" id="Command-backto-RemoveByIdCommand" style="stroke:#181818;stroke-width:1.1;"/><polygon fill="#181818" points="3133.955,136.899,3142.5654,143.4741,3139.3052,138.174,3144.6053,134.9138,3133.955,136.899" style="stroke:#181818;stroke-width:1.1;"/></g><!--reverse link Command to RemoveGreaterCommand--><g id="link_Command_RemoveGreaterCommand"><path codeLine="36" d="M3140.78,132.3936 C3246.237,146.8366 3482.831,180.14 3686.1,215.615 C3692.326,216.704 3698.728,217.859 3705.174,219.047 " fill="none" id="Command-backto-RemoveGreaterCommand" style="stroke:#181818;stroke-width:1.1;"/><polygon fill="#181818" points="3134.241,131.498,3143.4524,137.2007,3139.6901,132.2443,3144.6465,128.4821,3134.241,131.498" style="stroke:#181818;stroke-width:1.1;"/></g><!--reverse link Command to RemoveLowerCommand--><g id="link_Command_RemoveLowerCommand"><path codeLine="37" d="M3140.7787,128.6116 C3275.9797,138.6876 3637.491,168.139 3941.3,215.615 C3947.713,216.616 3954.302,217.738 3960.935,218.926 " fill="none" id="Command-backto-RemoveLowerCommand" style="stroke:#181818;stroke-width:1.1;"/><polygon fill="#181818" points="3134.197,128.121,3143.7426,133.2446,3139.6818,128.5298,3144.3966,124.469,3134.197,128.121" style="stroke:#181818;stroke-width:1.1;"/></g><!--reverse link Command to SaveCommand--><g id="link_Command_SaveCommand"><path codeLine="38" d="M3140.7628,125.1877 C3300.8348,128.2127 3785.848,143.07 4185.5,215.615 C4191.517,216.704 4197.699,218.035 4203.881,219.498 " fill="none" id="Command-backto-SaveCommand" style="stroke:#181818;stroke-width:1.1;"/><polygon fill="#181818" points="3134.164,125.063,3143.9791,129.6493,3139.663,125.167,3144.1454,120.8509,3134.164,125.063" style="stroke:#181818;stroke-width:1.1;"/></g><!--reverse link Command to ShowCommand--><g id="link_Command_ShowCommand"><path codeLine="39" d="M3140.742,124.2835 C3317.083,124.9105 3892.636,133.478 4364.8,215.615 C4370.894,216.671 4377.153,217.98 4383.423,219.421 " fill="none" id="Command-backto-ShowCommand" style="stroke:#181818;stroke-width:1.1;"/><polygon fill="#181818" points="3134.142,124.26,3144.0263,128.6952,3139.642,124.2796,3144.0576,119.8953,3134.142,124.26" style="stroke:#181818;stroke-width:1.1;"/></g><!--reverse link Command to UpdateCommand--><g id="link_Command_UpdateCommand"><path codeLine="40" d="M3140.665,123.9096 C3332.186,123.3156 3999.578,127.978 4546.3,215.615 C4552.471,216.605 4558.829,217.815 4565.187,219.168 " fill="none" id="Command-backto-UpdateCommand" style="stroke:#181818;stroke-width:1.1;"/><polygon fill="#181818" points="3134.065,123.93,3143.9786,128.2993,3139.565,123.913,3143.9513,119.4994,3134.065,123.93" style="stroke:#181818;stroke-width:1.1;"/></g><!--SRC=[xLJ1ReCm3Btp5Vn0-mMxTAnRAwsjLBfrLukO4XKS50AqglRl2nkm9A1AathOeIV4Uo-svMURiCxXW5uEqL5__HtFIZaDH9O1iOl7IQ6C8KA_XRmeXQBmPumDW6MyukIW5KeTrGQ3544wa2X9lKW4dMsN02qGKfNOcla9er9X64cUAvVY3lBCKnqgL21LiUSgMKFcLB70DBUH9SN2HhQOYGeVpqisXhVrZb6ledQ942gdWZ0HjOsyvKn7xB1EfaJJmwwZyb1cIAheYwx44QNdjQ_yXyd4TCU1BOyipdRAf2o_BEAgQwPor3jRm4VnQpwQEjDD4pSzDV6XiqFMyNSei5msQTDh2pSSDt7Rzq_FtiQBXrHc_gneke15eAK78S_TwYIGwohxtU9wE9v0GRzPGZ9E-aq_CTsqRN8aPBh36ABgXardnXL8JjYFdsv3jaLWEebRslHZzNhfXN3IlwtImlQIgx7NyrE4kUA2YYv80AIQ24rLFTjjER5DF4Qi1Rr3odyUfTYinwz49wNxZVldD-xRFZ0ilP-v-vcxqPbRewg5FDxmw0tFLkFh7w_I5m00]--></g></svg>